<?xml version="1.0" encoding="UTF-8"?>
<svg id="Layer_1" data-name="Layer 1" xmlns="http://www.w3.org/2000/svg" viewBox="0 0 2000 2000">
  <defs>
    <style>
      .cls-1 {
        stroke-width: 0px;
      }

      .cls-1, .cls-2 {
        fill: #4c5357;
      }

      .cls-2 {
        stroke-width: 6.76px;
      }

      .cls-2, .cls-3 {
        stroke: #4c5357;
        stroke-miterlimit: 10;
      }

      .cls-3 {
        fill: none;
        stroke-width: 8px;
      }
    </style>
  </defs>
  <g>
    <g>
      <ellipse class="cls-1" cx="993.08" cy="834.61" rx="28.63" ry="20.16" transform="translate(-293.93 997.01) rotate(-47.24)"/>
      <ellipse class="cls-1" cx="802.29" cy="852.54" rx="20.16" ry="28.63" transform="translate(-360.25 990.31) rotate(-53.5)"/>
    </g>
    <path class="cls-1" d="M1088.43,669.79c-33.56-8.2-51.12-8.04-66.87-6.88-3.32.25-16.31,30.46-12.13,44.34,5.1,16.95-4.75,21.18-19.86,18.44-20-3.64-40.15-5.19-56.54,9.69-13.56,12.31-20.33,28.74-10.45,45.51,11.08,18.81,25.61,7.23,38.6.36,59.21-31.3,124.45,6.34,142.36,82.33,1.82,7.71,2.5,15.69,3.08,19.46,7.36,79.66-47.08,125.1-118.42,98.43-59.99-22.42-113.88-19.38-167.24,15.69-31.52,20.72-65.47,24.85-97.75,1.71-31.95-22.91-42.28-55.85-38.87-94.27,2.52-28.43,11.16-54.32,27.49-77.72,26.37-37.76,50.71-45.98,94.85-32.24,14.7,4.57,32.71,14.91,39.65-8.23,5.84-19.47-4.54-34.96-22.92-43.32-12-5.46-24.9-6.57-37.79-2.01-5.62,1.99-11.34,3.71-16.94,5.76-8.62,3.16-20.82.83-18.37-7.03,7.86-25.25-.07-43.36-19.07-61.71-27.57-.29-126.95,112.91-100.48,268.2,26.83,157.37,95.68,186.88,117.74,249.37,17.28,1.46,79.79,0,79.79,0,2.56-16.28,26.01-103.75,79.79-103.75,46.63,0,58.81,75.56,63.37,103.75h79.79c20.05-113.45,55.1-111.42,73.1-99.15,41.59,28.35,43.67,99.16,43.67,99.16h80.02l26.17-110.72c-9.87-27.95-60.35,17.8-60.35,17.8,81.27,20.73,75.05,92.92,75.05,92.92h79.79c42.94-393.33-205.22-507.53-280.28-525.88ZM957.45,1033.43c-16.29,3.62-81.74,4.41-97.5,3.08-5.84-.49-12.04-3.16-13.18-10.08-1.14-6.9,4.32-10.35,9.15-13.9,24.94-18.33,80.84-17.8,104.84.64,12.19,9.37,10.12,17.27-3.31,20.25Z"/>
  </g>
  <line class="cls-3" x1="656.16" y1="1196.31" x2="1437.46" y2="1196.31"/>
  <g>
    <path class="cls-1" d="M398.74,1330.84c-.71,0-3.02-.2-3.02-2.81v-49.99c0-2.7,2.82-2.78,3.15-2.78.7,0,2.99.2,2.99,2.78v49.99c0,.9-.28,1.57-.86,2.06-.57.48-1.39.75-2.26.75h0Z"/>
    <path class="cls-1" d="M476.09,1330.67c-1.5,0-3.25-.88-3.25-3.34v-48.41c0-3.36.87-3.52,2.54-3.52,1.94,0,2.06.12,4.08,2.06l.14.13,33.68,42.14v-41.69c0-1.55,1.5-3.33,2.81-3.33,1.69,0,3.5,1.95,3.5,3.33v49.29c0,1.79-.65,2.72-2.36,3.34-1.83-.04-2.7-.39-4.67-2.2l-33.67-42.73v41.59c0,1.25-.37,3.34-2.81,3.34Z"/>
    <path class="cls-1" d="M612.71,1331.37c-1.25,0-2.52-1.14-3.48-3.12l-23.11-48.4c-.56-1.14-.55-2.18.03-3.11.65-1.04,1.9-1.74,3.11-1.74s2.08.63,2.76,1.87l7.75,17.5,12.57,28.84,12.35-28.88,7.74-17.47c.82-1.5,2-1.81,2.85-1.81,1.12,0,2.22.56,2.8,1.42.54.8.58,1.8.12,2.96l-22.35,48.99-.04.1c-.64,1.74-1.85,2.86-3.1,2.86h0Z"/>
    <path class="cls-1" d="M731.29,1331.58c-13.89,0-28.83-9.03-28.83-28.84s15.66-29.4,30.23-29.43c13.84.74,28.7,10.25,28.7,29.43s-14.4,28.81-28.63,28.81h-.12c-.45.02-.9.03-1.35.03h0ZM731.8,1279.27c-11.25,0-23.2,8.22-23.2,23.47s11.95,23.44,23.2,23.44,23.53-8.22,23.53-23.44-11.84-23.47-23.53-23.47Z"/>
    <path class="cls-1" d="M833.64,1330.84c-.71,0-3.03-.2-3.03-2.81v-49.99c0-2.7,2.83-2.78,3.15-2.78.7,0,3,.2,3,2.78v49.99c0,.9-.28,1.57-.86,2.06-.57.48-1.39.75-2.27.75h0Z"/>
    <path class="cls-1" d="M933.49,1331.28c-17.55,0-28.03-10.7-28.03-28.63,0-14.3,8.67-28.73,28.03-28.73,7,0,12.47,2.13,18.28,7.14.56.52.94,1.37.97,2.26.02.83-.27,1.62-.82,2.23-.69.58-1.45.7-1.98.7-.87,0-1.7-.34-2.28-.92-3.78-3.97-7.9-5.61-14.17-5.61-15.66,0-22.67,11.51-22.67,22.93s7.01,23.53,22.67,23.53c5.48,0,10.79-2.15,15.36-6.21.48-.35,1.04-.53,1.67-.53,1.15,0,2.11.58,2.52,1.12.6.83,1.36,2.61-.71,4.68-5.72,5.31-12.74,6.04-18.84,6.04Z"/>
    <path class="cls-1" d="M1024.44,1330.67c-1.58,0-2.72-1.14-2.72-2.72v-49.73c0-1.63,1.09-2.72,2.72-2.72h31.43c3.11,0,3.27,2.45,3.27,2.94,0,1.4-.86,3.03-3.27,3.03h-27.92v18.54h24.77c2.99,0,3.14,2.52,3.14,3.03s-.15,3.03-3.14,3.03h-24.77v18.54h29.4c2.76,0,3.5,2,3.5,3.19,0,.77-.27,1.46-.75,1.95-.6.6-1.55.92-2.75.92h-32.92Z"/>
    <path class="cls-2" d="M1171.6,1272.8c-3.15,0-5.95,2.27-5.95,5.42v19.08h-28.54v-19.08c0-3.15-2.29-5.42-5.34-5.42-3.94,0-6.22,2.27-6.22,5.42v49.73c0,3.06,2.29,5.42,6.22,5.42,3.06,0,5.34-2.37,5.34-5.42v-19.18h28.54v19.18c0,3.06,2.8,5.42,5.95,5.42s5.42-2.37,5.42-5.42v-49.73c0-3.15-2.37-5.42-5.42-5.42Z"/>
    <path class="cls-2" d="M1242.33,1278.04v49.99c0,7.44,11.55,7.26,11.55,0v-49.99c0-7.44-11.55-7.18-11.55,0Z"/>
    <path class="cls-2" d="M1345.62,1272.01h-20.22c-3.68,0-5.95,3.15-5.95,6.03v49.29c0,3.85,3.06,6.05,5.95,6.05,3.15,0,5.6-2.19,5.6-6.05v-11.55h14.62c11.39,0,21.63-7.71,21.63-21.53,0-14.62-10.24-22.24-21.63-22.24ZM1345.62,1304.84h-14.62v-21.8h14.62c5.87,0,10.51,5.09,10.51,11.21,0,5.42-4.64,10.59-10.51,10.59Z"/>
    <path class="cls-2" d="M1455.32,1272.01h-20.22c-3.68,0-5.96,3.15-5.96,6.03v49.29c0,3.85,3.07,6.05,5.96,6.05,3.14,0,5.6-2.19,5.6-6.05v-11.55h14.62c11.38,0,21.63-7.71,21.63-21.53,0-14.62-10.25-22.24-21.63-22.24ZM1455.32,1304.84h-14.62v-21.8h14.62c5.86,0,10.5,5.09,10.5,11.21,0,5.42-4.64,10.59-10.5,10.59Z"/>
    <path class="cls-2" d="M1569.56,1270.6c-16.2,0-33,10.59-33,32.14s16.8,32.2,33,31.52c15.31,0,31.34-10.78,31.34-31.52s-16.03-31.35-31.34-32.14ZM1568.6,1323.48c-9.81,0-20.49-6.99-20.49-20.74s10.69-20.76,20.49-20.76,20.83,6.93,20.83,20.76-10.77,20.74-20.83,20.74Z"/>
  </g>
</svg>