<?xml version="1.0" encoding="utf-8"?>
<!-- Generator: Adobe Illustrator 27.5.0, SVG Export Plug-In . SVG Version: 6.00 Build 0)  -->
<svg version="1.1" xmlns="http://www.w3.org/2000/svg" xmlns:xlink="http://www.w3.org/1999/xlink" x="0px" y="0px"
	 viewBox="0 0 750 500" style="enable-background:new 0 0 750 500;" xml:space="preserve">
<g id="BACKGROUND">
	<rect style="fill:#FFFFFF;" width="750" height="500"/>
</g>
<g id="OBJECTS">
	<g>
		<g>
			<linearGradient id="SVGID_1_" gradientUnits="userSpaceOnUse" x1="455.0339" y1="110.9106" x2="636.1738" y2="110.9106">
				<stop  offset="0" style="stop-color:#C4A0F6"/>
				<stop  offset="1" style="stop-color:#877EFA"/>
			</linearGradient>
			<path style="fill:url(#SVGID_1_);" d="M481.097,122.006c0,0,11.077-22.805,27.041-24.434c15.964-1.629,24.76,7.819,29.973,16.941
				c0,0,9.448-26.063,31.602-20.851c22.154,5.213,23.457,22.154,23.457,22.154s7.167-5.864,15.638-2.606
				c8.471,3.258,10.099,8.796,10.099,8.796s13.683-3.584,17.267,6.842h-181.14C455.034,128.848,458.943,118.097,481.097,122.006z"/>
			
				<linearGradient id="SVGID_00000010281622018611444770000015547347371548790420_" gradientUnits="userSpaceOnUse" x1="455.0339" y1="110.9138" x2="565.8718" y2="110.9138">
				<stop  offset="0" style="stop-color:#C4A0F6"/>
				<stop  offset="1" style="stop-color:#877EFA"/>
			</linearGradient>
			<path style="fill:url(#SVGID_00000010281622018611444770000015547347371548790420_);" d="M555.096,110.911
				c1.087-8.974,6.068-14.536,10.775-17.854c-19.408-1.573-27.761,21.457-27.761,21.457c-5.213-9.122-14.009-18.57-29.973-16.941
				c-15.964,1.629-27.041,24.434-27.041,24.434c-22.154-3.91-26.063,6.842-26.063,6.842h105.935
				C557.141,124.05,554.242,117.963,555.096,110.911z"/>
		</g>
		<path style="fill:#B0B6F4;" d="M288.74,96.921c0,0-25.846-14.986-60.38-18.896c-34.534-3.91-80.716,13.032-94.439,44.308
			c-13.723,31.276,5.173,90.57,13.643,119.891c8.471,29.321,15.638,83.403,9.122,111.421
			c-6.516,28.018-8.471,104.905,76.235,104.905c84.706,0,127.938-44.317,151.819-56.688
			c23.881-12.371,105.556-21.502,170.063-35.185c64.507-13.683,85.357-99.849,72.977-145.055
			c-12.38-45.207-44.959-83.65-120.543-81.044C431.654,143.183,325.011,119.726,288.74,96.921z"/>
		<path style="fill:#E5EEFF;" d="M249.21,413.372c0,0-56.036-23.457-78.624-73.412c-22.588-49.955-36.054-97.086-21.719-126.081
			c14.335-28.995,31.676-27.258,62.535-42.027s61.266-63.855,83.854-72.651c22.588-8.796,110.335-28.127,171.149,18.787
			c60.814,46.914,55.487,51.041,66.404,101.647c10.917,50.606,33.397,91.982,28.51,117.719
			c-4.887,25.737-17.158,51.366-77.973,51.258c0,0-37.575,1.737-74.28,16.941c-36.706,15.204-54.875,21.907-83.403,22.588
			C291.998,428.945,258.333,419.454,249.21,413.372z"/>
		<g>
			
				<linearGradient id="SVGID_00000029741447932205995290000008649537519578846637_" gradientUnits="userSpaceOnUse" x1="339.8554" y1="114.5131" x2="339.8554" y2="308.0331">
				<stop  offset="0" style="stop-color:#C4A0F6"/>
				<stop  offset="1" style="stop-color:#877EFA"/>
			</linearGradient>
			<path style="fill:url(#SVGID_00000029741447932205995290000008649537519578846637_);" d="M388.653,337.354h-97.595
				c-7.278,0-13.178-5.9-13.178-13.178V103.583c0-7.278,5.9-13.178,13.178-13.178h97.595c7.278,0,13.178,5.9,13.178,13.178v220.594
				C401.831,331.454,395.931,337.354,388.653,337.354z"/>
			<g>
				<g>
					
						<linearGradient id="SVGID_00000173862249406744120220000013146706414184933303_" gradientUnits="userSpaceOnUse" x1="288.7397" y1="153.1738" x2="389.9522" y2="153.1738">
						<stop  offset="0" style="stop-color:#A0C7FF"/>
						<stop  offset="1" style="stop-color:#BEB3FE"/>
					</linearGradient>
					<path style="fill:url(#SVGID_00000173862249406744120220000013146706414184933303_);" d="M385.179,165.771h-91.665
						c-2.636,0-4.773-2.137-4.773-4.773V145.35c0-2.636,2.137-4.773,4.773-4.773h91.665c2.636,0,4.773,2.137,4.773,4.773v15.648
						C389.952,163.634,387.815,165.771,385.179,165.771z"/>
					
						<line style="fill:none;stroke:#E5EEFF;stroke-linecap:round;stroke-miterlimit:10;" x1="328.486" y1="146.223" x2="381.916" y2="146.223"/>
					
						<line style="fill:none;stroke:#E5EEFF;stroke-linecap:round;stroke-miterlimit:10;" x1="328.486" y1="150.785" x2="381.916" y2="150.785"/>
					
						<line style="fill:none;stroke:#E5EEFF;stroke-linecap:round;stroke-miterlimit:10;" x1="328.486" y1="156.214" x2="381.916" y2="156.214"/>
					
						<line style="fill:none;stroke:#E5EEFF;stroke-linecap:round;stroke-miterlimit:10;" x1="328.486" y1="161.644" x2="351.292" y2="161.644"/>
					
						<ellipse transform="matrix(0.1597 -0.9872 0.9872 0.1597 106.066 430.511)" style="fill:#E5EEFF;" cx="305.898" cy="152.957" rx="10.643" ry="10.642"/>
					<circle style="fill:#6341CA;" cx="305.789" cy="149.699" r="3.475"/>
					<path style="fill:#6341CA;" d="M305.898,163.599c3.161,0,5.995-1.382,7.941-3.573c-1.783-2.46-4.671-4.066-7.941-4.066
						c-3.27,0-6.158,1.606-7.94,4.065C299.904,162.216,302.736,163.599,305.898,163.599z"/>
				</g>
				<g>
					
						<linearGradient id="SVGID_00000079448472166864110630000008783771684730783911_" gradientUnits="userSpaceOnUse" x1="288.7397" y1="188.7935" x2="389.9522" y2="188.7935">
						<stop  offset="0" style="stop-color:#A0C7FF"/>
						<stop  offset="1" style="stop-color:#BEB3FE"/>
					</linearGradient>
					<path style="fill:url(#SVGID_00000079448472166864110630000008783771684730783911_);" d="M385.179,201.391h-91.665
						c-2.636,0-4.773-2.137-4.773-4.773V180.97c0-2.636,2.137-4.773,4.773-4.773h91.665c2.636,0,4.773,2.137,4.773,4.773v15.648
						C389.952,199.254,387.815,201.391,385.179,201.391z"/>
					
						<line style="fill:none;stroke:#E5EEFF;stroke-linecap:round;stroke-miterlimit:10;" x1="328.486" y1="181.843" x2="381.916" y2="181.843"/>
					
						<line style="fill:none;stroke:#E5EEFF;stroke-linecap:round;stroke-miterlimit:10;" x1="328.486" y1="186.404" x2="381.916" y2="186.404"/>
					
						<line style="fill:none;stroke:#E5EEFF;stroke-linecap:round;stroke-miterlimit:10;" x1="328.486" y1="191.834" x2="381.916" y2="191.834"/>
					
						<line style="fill:none;stroke:#E5EEFF;stroke-linecap:round;stroke-miterlimit:10;" x1="328.486" y1="197.264" x2="351.292" y2="197.264"/>
					<circle style="fill:#E5EEFF;" cx="305.898" cy="188.576" r="10.642"/>
					<circle style="fill:#6341CA;" cx="305.789" cy="185.318" r="3.475"/>
					<path style="fill:#6341CA;" d="M305.898,199.219c3.161,0,5.995-1.382,7.941-3.573c-1.783-2.46-4.671-4.066-7.941-4.066
						c-3.27,0-6.158,1.606-7.94,4.065C299.904,197.836,302.736,199.219,305.898,199.219z"/>
				</g>
				<g>
					
						<linearGradient id="SVGID_00000126319542859057255790000003467974820673708672_" gradientUnits="userSpaceOnUse" x1="288.7397" y1="224.4135" x2="389.9522" y2="224.4135">
						<stop  offset="0" style="stop-color:#A0C7FF"/>
						<stop  offset="1" style="stop-color:#BEB3FE"/>
					</linearGradient>
					<path style="fill:url(#SVGID_00000126319542859057255790000003467974820673708672_);" d="M385.179,237.011h-91.665
						c-2.636,0-4.773-2.137-4.773-4.773V216.59c0-2.636,2.137-4.773,4.773-4.773h91.665c2.636,0,4.773,2.137,4.773,4.773v15.648
						C389.952,234.874,387.815,237.011,385.179,237.011z"/>
					
						<line style="fill:none;stroke:#E5EEFF;stroke-linecap:round;stroke-miterlimit:10;" x1="328.486" y1="217.463" x2="381.916" y2="217.463"/>
					
						<line style="fill:none;stroke:#E5EEFF;stroke-linecap:round;stroke-miterlimit:10;" x1="328.486" y1="222.024" x2="381.916" y2="222.024"/>
					
						<line style="fill:none;stroke:#E5EEFF;stroke-linecap:round;stroke-miterlimit:10;" x1="328.486" y1="227.454" x2="381.916" y2="227.454"/>
					
						<line style="fill:none;stroke:#E5EEFF;stroke-linecap:round;stroke-miterlimit:10;" x1="328.486" y1="232.884" x2="351.292" y2="232.884"/>
					<circle style="fill:#E5EEFF;" cx="305.898" cy="224.196" r="10.642"/>
					<circle style="fill:#6341CA;" cx="305.789" cy="220.938" r="3.475"/>
					<path style="fill:#6341CA;" d="M305.898,234.839c3.161,0,5.995-1.382,7.941-3.573c-1.783-2.46-4.671-4.066-7.941-4.066
						c-3.27,0-6.158,1.606-7.94,4.065C299.904,233.456,302.736,234.839,305.898,234.839z"/>
				</g>
				<g>
					
						<linearGradient id="SVGID_00000170991242294946249620000002329457866077569930_" gradientUnits="userSpaceOnUse" x1="288.7397" y1="260.0333" x2="389.9522" y2="260.0333">
						<stop  offset="0" style="stop-color:#A0C7FF"/>
						<stop  offset="1" style="stop-color:#BEB3FE"/>
					</linearGradient>
					<path style="fill:url(#SVGID_00000170991242294946249620000002329457866077569930_);" d="M385.179,272.63h-91.665
						c-2.636,0-4.773-2.137-4.773-4.773V252.21c0-2.636,2.137-4.773,4.773-4.773h91.665c2.636,0,4.773,2.137,4.773,4.773v15.647
						C389.952,270.493,387.815,272.63,385.179,272.63z"/>
					
						<line style="fill:none;stroke:#E5EEFF;stroke-linecap:round;stroke-miterlimit:10;" x1="328.486" y1="253.083" x2="381.916" y2="253.083"/>
					
						<line style="fill:none;stroke:#E5EEFF;stroke-linecap:round;stroke-miterlimit:10;" x1="328.486" y1="257.644" x2="381.916" y2="257.644"/>
					
						<line style="fill:none;stroke:#E5EEFF;stroke-linecap:round;stroke-miterlimit:10;" x1="328.486" y1="263.074" x2="381.916" y2="263.074"/>
					
						<line style="fill:none;stroke:#E5EEFF;stroke-linecap:round;stroke-miterlimit:10;" x1="328.486" y1="268.504" x2="351.292" y2="268.504"/>
					
						<ellipse transform="matrix(0.9249 -0.3802 0.3802 0.9249 -75.812 135.8185)" style="fill:#E5EEFF;" cx="305.898" cy="259.816" rx="10.642" ry="10.643"/>
					<circle style="fill:#6341CA;" cx="305.789" cy="256.558" r="3.475"/>
					<path style="fill:#6341CA;" d="M305.898,270.459c3.161,0,5.995-1.382,7.941-3.573c-1.783-2.46-4.671-4.066-7.941-4.066
						c-3.27,0-6.158,1.606-7.94,4.065C299.904,269.076,302.736,270.459,305.898,270.459z"/>
				</g>
				<g>
					
						<linearGradient id="SVGID_00000025420446346521435260000009476950856151642522_" gradientUnits="userSpaceOnUse" x1="288.7397" y1="295.653" x2="389.9522" y2="295.653">
						<stop  offset="0" style="stop-color:#A0C7FF"/>
						<stop  offset="1" style="stop-color:#BEB3FE"/>
					</linearGradient>
					<path style="fill:url(#SVGID_00000025420446346521435260000009476950856151642522_);" d="M385.179,308.25h-91.665
						c-2.636,0-4.773-2.137-4.773-4.773v-15.648c0-2.636,2.137-4.774,4.773-4.774h91.665c2.636,0,4.773,2.137,4.773,4.774v15.648
						C389.952,306.113,387.815,308.25,385.179,308.25z"/>
					
						<line style="fill:none;stroke:#E5EEFF;stroke-linecap:round;stroke-miterlimit:10;" x1="328.486" y1="288.703" x2="381.916" y2="288.703"/>
					
						<line style="fill:none;stroke:#E5EEFF;stroke-linecap:round;stroke-miterlimit:10;" x1="328.486" y1="293.264" x2="381.916" y2="293.264"/>
					
						<line style="fill:none;stroke:#E5EEFF;stroke-linecap:round;stroke-miterlimit:10;" x1="328.486" y1="298.694" x2="381.916" y2="298.694"/>
					
						<line style="fill:none;stroke:#E5EEFF;stroke-linecap:round;stroke-miterlimit:10;" x1="328.486" y1="304.124" x2="351.292" y2="304.124"/>
					<circle style="fill:#E5EEFF;" cx="305.898" cy="295.436" r="10.642"/>
					<circle style="fill:#6341CA;" cx="305.789" cy="292.178" r="3.475"/>
					<path style="fill:#6341CA;" d="M305.898,306.078c3.161,0,5.995-1.382,7.941-3.573c-1.783-2.46-4.671-4.066-7.941-4.066
						c-3.27,0-6.158,1.606-7.94,4.065C299.904,304.695,302.736,306.078,305.898,306.078z"/>
				</g>
			</g>
			<path style="fill:#6341CA;" d="M401.831,107.997v-4.415c0-7.278-5.9-13.178-13.178-13.178h-97.595
				c-7.278,0-13.178,5.9-13.178,13.178v4.415H401.831z"/>
			
				<linearGradient id="SVGID_00000092439983663745073600000011638132735502256306_" gradientUnits="userSpaceOnUse" x1="330.246" y1="130.3883" x2="330.246" y2="310.1219">
				<stop  offset="0" style="stop-color:#FFFFFF;stop-opacity:0.7"/>
				<stop  offset="1" style="stop-color:#877EFA;stop-opacity:0"/>
			</linearGradient>
			<polygon style="fill:url(#SVGID_00000092439983663745073600000011638132735502256306_);" points="283.495,107.997 
				360.49,337.354 376.997,337.354 300.468,107.997 			"/>
			
				<linearGradient id="SVGID_00000120533310644543796840000009952638814759863467_" gradientUnits="userSpaceOnUse" x1="352.6587" y1="130.3906" x2="352.6587" y2="310.1425">
				<stop  offset="0" style="stop-color:#FFFFFF;stop-opacity:0.7"/>
				<stop  offset="1" style="stop-color:#877EFA;stop-opacity:0"/>
			</linearGradient>
			<path style="fill:url(#SVGID_00000120533310644543796840000009952638814759863467_);" d="M309.265,107.997l79.388,229.357
				c0,0,4.499,0.417,7.4-2.273l-77.698-227.084H309.265z"/>
		</g>
		<g>
			<defs>
				<path id="SVGID_00000018236822601812554910000004440531959454626691_" d="M249.21,413.372c0,0-56.036-23.457-78.624-73.412
					c-22.588-49.955-36.054-97.086-21.719-126.081c14.335-28.995,31.676-27.258,62.535-42.027s61.266-63.855,83.854-72.651
					c22.588-8.796,110.335-28.127,171.149,18.787c60.814,46.914,55.487,51.041,66.404,101.647
					c10.917,50.606,33.397,91.982,28.51,117.719c-4.887,25.737-17.158,51.366-77.973,51.258c0,0-37.575,1.737-74.28,16.941
					c-36.706,15.204-54.875,21.907-83.403,22.588C291.998,428.945,258.333,419.454,249.21,413.372z"/>
			</defs>
			<clipPath id="SVGID_00000004506400729677505650000003416525564203963020_">
				<use xlink:href="#SVGID_00000018236822601812554910000004440531959454626691_"  style="overflow:visible;"/>
			</clipPath>
			<g style="clip-path:url(#SVGID_00000004506400729677505650000003416525564203963020_);">
				
					<linearGradient id="SVGID_00000086669891396064750730000005222791607222921918_" gradientUnits="userSpaceOnUse" x1="211.4015" y1="272.8477" x2="211.4015" y2="380.6693">
					<stop  offset="0" style="stop-color:#7A74F6"/>
					<stop  offset="1" style="stop-color:#7752D3"/>
				</linearGradient>
				<path style="fill:url(#SVGID_00000086669891396064750730000005222791607222921918_);" d="M210.767,389.155
					c0,0-22.805-2.606-28.344-21.502c-5.538-18.896,5.864-37.14,5.864-37.14s-15.964-10.878-11.077-34.271
					c4.887-23.394,21.828-35.164,21.828-35.164s-6.516-28.627,16.615-32.211c23.131-3.584,15.638,32.211,15.638,32.211
					s10.751,5.255,14.009,26.106c3.258,20.851-4.841,34.86-4.841,34.86s8.016,14.009,5.614,33.556
					C243.672,375.146,235.201,387.2,210.767,389.155z"/>
				<line style="fill:none;stroke:#6341CA;stroke-miterlimit:10;" x1="211.401" y1="393.39" x2="211.401" y2="306.404"/>
				
					<linearGradient id="SVGID_00000134209314222984098150000012718393197441511817_" gradientUnits="userSpaceOnUse" x1="185.013" y1="307.5213" x2="197.393" y2="308.1729">
					<stop  offset="0" style="stop-color:#7A74F6"/>
					<stop  offset="1" style="stop-color:#7752D3"/>
				</linearGradient>
				<path style="fill:url(#SVGID_00000134209314222984098150000012718393197441511817_);" d="M206.283,331.924
					c0,0-7.819-12.163-7.678-29.665c0.141-17.502,12.797-38.399,12.797-38.399c-3.664-13.289,0.167-26.161,4.309-35.001
					c-0.019,0.003-0.038,0.004-0.057,0.007c-23.131,3.584-16.615,32.211-16.615,32.211s-16.941,11.771-21.828,35.164
					c-4.887,23.394,11.077,34.271,11.077,34.271s-11.403,18.244-5.864,37.14c5.538,18.896,28.344,21.502,28.344,21.502
					c0.869-0.07,1.713-0.155,2.542-0.25C191.661,370.192,206.283,331.924,206.283,331.924z"/>
			</g>
			<g style="clip-path:url(#SVGID_00000004506400729677505650000003416525564203963020_);">
				
					<linearGradient id="SVGID_00000047025384344390757480000013626881284858742401_" gradientUnits="userSpaceOnUse" x1="470.1692" y1="296.5707" x2="532.8085" y2="296.5707">
					<stop  offset="0" style="stop-color:#7A74F6"/>
					<stop  offset="1" style="stop-color:#7752D3"/>
				</linearGradient>
				<path style="fill:url(#SVGID_00000047025384344390757480000013626881284858742401_);" d="M501.156,373.409
					c0,0-33.448-6.082-30.842-36.054c2.606-29.973,14.335-39.095,11.728-59.511c-2.606-20.416,2.606-58.208,26.498-58.208
					c23.891,0,20.851,27.585,15.204,40.942c-5.647,13.357-6.516,22.044-0.434,35.945c6.081,13.9,16.507,36.054,2.606,57.774
					S501.156,373.409,501.156,373.409z"/>
				
					<linearGradient id="SVGID_00000170968553678197190920000018323277365538439597_" gradientUnits="userSpaceOnUse" x1="464.8098" y1="279.807" x2="491.7419" y2="290.6667">
					<stop  offset="0" style="stop-color:#7A74F6"/>
					<stop  offset="1" style="stop-color:#7752D3"/>
				</linearGradient>
				<path style="fill:url(#SVGID_00000170968553678197190920000018323277365538439597_);" d="M492.979,367.652
					c-0.869-17.268,12.163-43.546,8.51-56.843s-5.469-21.02,0-53.165c3.381-19.868,11.277-30.602,16.817-35.909
					c-2.592-1.328-5.801-2.1-9.765-2.1c-23.891,0-29.104,37.792-26.498,58.208c2.606,20.416-9.122,29.538-11.728,59.511
					c-1.849,21.26,14.434,30.492,24.061,34.068C493.55,370.405,493.055,369.163,492.979,367.652z"/>
				<line style="fill:none;stroke:#6341CA;stroke-miterlimit:10;" x1="501.489" y1="279.581" x2="501.489" y2="389.481"/>
			</g>
		</g>
		<path style="fill:#E5827C;" d="M302.314,227.889c0,0-0.977,10.86-7.059,23.891c-6.081,13.032-12.163,25.194-12.163,25.194
			s13.224,15.638,14.865,29.973c1.641,14.335,2.51,30.407,2.51,30.407l-41.267,39.529c0,0-12.597-45.176-16.941-64.289
			s-0.869-33.882,10.86-53.43c11.729-19.547,28.67-42.57,37.792-43.439C300.034,214.857,304.16,218.416,302.314,227.889z"/>
		<g>
			<path style="fill:#E5827C;" d="M249.21,413.372c0,0,11.294-23.023,9.991-36.489c-1.303-13.466,41.267-39.529,41.267-39.529
				h88.185c0,0-4.348,38.226-53.868,59.945l-9.122,30.842C325.663,428.142,274.264,429.445,249.21,413.372z"/>
			<path style="fill:#CE6363;" d="M325.739,364.069c22.588,1.738,35.909-3.91,62.914-26.715h-88.185
				C300.468,337.354,303.151,362.332,325.739,364.069z"/>
		</g>
		<g>
			<path style="fill:#E5827C;" d="M409.065,405.553c0,0-0.434-29.538-2.172-37.792c-1.737-8.253-16.072-16.072-23.022-28.235
				c-6.95-12.163-18.679-52.127-18.679-67.765c0-15.638,0.869-32.145,11.729-31.276c10.86,0.869,16.507,50.389,28.235,52.561
				c11.728,2.172,12.597-31.776,9.556-52.594c-3.041-20.818-17.185-44.275-24.013-59.478c-6.828-15.204,5.635-23.891,11.132-19.33
				c5.497,4.561,8.103,12.38,8.103,12.38s19.547,13.466,27.366,19.113c7.819,5.647,28.235,19.113,33.014,24.76
				c4.778,5.647,16.507,25.195,22.154,53.43c5.647,28.235,1.303,62.118-4.344,77.755c-5.647,15.638-6.516,16.072-5.647,24.326
				c0.869,8.253,0.869,15.204,0.869,15.204S448.595,390.35,409.065,405.553z"/>
			<path style="fill:none;stroke:#BA5250;stroke-miterlimit:10;" d="M447.292,261.077c0,0-3.91-28.41-7.385-36.663
				c-3.475-8.253-5.647-16.072-13.466-25.195c-7.819-9.122-16.507-25.195-16.507-25.195"/>
			<path style="fill:none;stroke:#BA5250;stroke-miterlimit:10;" d="M452.895,204.058c0,0,7.428,10.539,8.296,13.493
				c0.869,2.953,5.213,21.632,5.213,21.632"/>
			<path style="fill:#CE6363;" d="M415.438,345.825c-11.079-16.941-21.5-24.108-31.446-57.122
				c-4.249-14.104-7.387-32.091-9.588-48.071c-8.477,1.752-9.213,16.8-9.213,31.129c0,15.638,11.729,55.602,18.679,67.765
				c6.95,12.163,21.285,19.982,23.022,28.235c1.738,8.253,2.172,37.792,2.172,37.792c6.1-2.346,12.086-4.37,17.848-6.118
				C425.901,384.087,423.084,357.516,415.438,345.825z"/>
			<g>
				<path style="fill:#CE6363;" d="M414.712,240.453c2.621,17.942,2.33,45.616-5.306,51.535c6.232-3.173,13.85-13.746,15.157-35.43
					c1.629-27.041-8.145-49.195-17.919-64.978c-6.229-10.059-11.822-20.992-15.062-27.604c-2.906,3.512-4.273,9.451-0.883,16.998
					C397.528,196.178,411.672,219.635,414.712,240.453z"/>
				<path style="fill:#CE6363;" d="M405.156,293.047c-0.12-0.022-0.237-0.057-0.355-0.089
					C404.918,293.006,405.036,293.041,405.156,293.047z"/>
			</g>
		</g>
		<circle style="fill:#FFDF9F;" cx="172.758" cy="408.594" r="25.846"/>
		<circle style="fill:#FFDF9F;" cx="157.989" cy="356.902" r="11.077"/>
		<circle style="fill:#FFDF9F;" cx="187.527" cy="159.78" r="11.077"/>
		
			<ellipse transform="matrix(0.9345 -0.356 0.356 0.9345 -40.4421 219.0689)" style="fill:#FFDF9F;" cx="575.002" cy="219.418" rx="30.624" ry="30.624"/>
		<circle style="fill:#FFDF9F;" cx="584.992" cy="170.984" r="7.385"/>
		<circle style="fill:#FFDF9F;" cx="618.669" cy="285.627" r="7.385"/>
		<g>
			
				<linearGradient id="SVGID_00000013875343544979757850000009540168442823195022_" gradientUnits="userSpaceOnUse" x1="336.0881" y1="88.6671" x2="470.314" y2="88.6671">
				<stop  offset="0" style="stop-color:#A0C7FF"/>
				<stop  offset="1" style="stop-color:#BEB3FE"/>
			</linearGradient>
			<path style="fill:url(#SVGID_00000013875343544979757850000009540168442823195022_);" d="M336.088,146.223l14.335-55.819V39.594
				c0-4.685,3.798-8.483,8.483-8.483h102.925c4.685,0,8.483,3.798,8.483,8.483v63.83c0,4.685-3.798,8.483-8.483,8.483H359.979
				L336.088,146.223z"/>
			<rect x="374.64" y="48.378" style="fill:#E5EEFF;" width="72.651" height="48.543"/>
			
				<linearGradient id="SVGID_00000100363381893463771840000003920307213526894004_" gradientUnits="userSpaceOnUse" x1="374.64" y1="60.5133" x2="447.2915" y2="60.5133">
				<stop  offset="0" style="stop-color:#C4A0F6"/>
				<stop  offset="1" style="stop-color:#877EFA"/>
			</linearGradient>
			<polygon style="fill:url(#SVGID_00000100363381893463771840000003920307213526894004_);" points="410.966,72.649 374.64,48.378 
				447.292,48.378 			"/>
			
				<ellipse transform="matrix(0.9499 -0.3125 0.3125 0.9499 12.6545 146.7199)" style="fill:#BC4D88;" cx="464.07" cy="33.88" rx="14.498" ry="14.498"/>
			<g>
				<path style="fill:#FFFFFF;" d="M463.72,29.014h-0.043l-2.499,1.349l-0.376-1.482l3.14-1.681h1.658v14.372h-1.88V29.014z"/>
			</g>
		</g>
		
			<linearGradient id="SVGID_00000047759180913792550340000007038768702480897449_" gradientUnits="userSpaceOnUse" x1="71.6016" y1="176.1963" x2="88.6739" y2="176.1963">
			<stop  offset="0" style="stop-color:#C4A0F6"/>
			<stop  offset="1" style="stop-color:#877EFA"/>
		</linearGradient>
		
			<circle style="fill:none;stroke:url(#SVGID_00000047759180913792550340000007038768702480897449_);stroke-miterlimit:10;" cx="80.138" cy="176.196" r="8.036"/>
		
			<linearGradient id="SVGID_00000168795156381714933210000003768018587728458374_" gradientUnits="userSpaceOnUse" x1="521.257" y1="65.2396" x2="538.3293" y2="65.2396">
			<stop  offset="0" style="stop-color:#C4A0F6"/>
			<stop  offset="1" style="stop-color:#877EFA"/>
		</linearGradient>
		
			<circle style="fill:none;stroke:url(#SVGID_00000168795156381714933210000003768018587728458374_);stroke-miterlimit:10;" cx="529.793" cy="65.24" r="8.036"/>
		
			<linearGradient id="SVGID_00000042732972279214248720000006095144649969094285_" gradientUnits="userSpaceOnUse" x1="657.6424" y1="266.6393" x2="674.7148" y2="266.6393">
			<stop  offset="0" style="stop-color:#C4A0F6"/>
			<stop  offset="1" style="stop-color:#877EFA"/>
		</linearGradient>
		
			<ellipse transform="matrix(0.1606 -0.987 0.987 0.1606 296.0217 881.3542)" style="fill:none;stroke:url(#SVGID_00000042732972279214248720000006095144649969094285_);stroke-miterlimit:10;" cx="666.179" cy="266.639" rx="8.036" ry="8.036"/>
		
			<linearGradient id="SVGID_00000009573272894447100490000016885086447181054909_" gradientUnits="userSpaceOnUse" x1="71.6016" y1="318.3499" x2="88.6739" y2="318.3499">
			<stop  offset="0" style="stop-color:#C4A0F6"/>
			<stop  offset="1" style="stop-color:#877EFA"/>
		</linearGradient>
		
			<circle style="fill:none;stroke:url(#SVGID_00000009573272894447100490000016885086447181054909_);stroke-miterlimit:10;" cx="80.138" cy="318.35" r="8.036"/>
		
			<linearGradient id="SVGID_00000069389985675617845990000003295471834914474413_" gradientUnits="userSpaceOnUse" x1="108.3233" y1="246.1461" x2="122.8978" y2="246.1461" gradientTransform="matrix(0.866 0.5 -0.5 0.866 143.3965 -23.5318)">
			<stop  offset="0" style="stop-color:#C4A0F6"/>
			<stop  offset="1" style="stop-color:#877EFA"/>
		</linearGradient>
		
			<rect x="113.655" y="240.649" transform="matrix(0.866 0.5 -0.5 0.866 139.8545 -27.0709)" style="fill:none;stroke:url(#SVGID_00000069389985675617845990000003295471834914474413_);stroke-miterlimit:10;" width="13.574" height="13.574"/>
		
			<linearGradient id="SVGID_00000168803827093857930370000011122807543821692819_" gradientUnits="userSpaceOnUse" x1="176.4588" y1="389.3904" x2="191.0333" y2="389.3904" gradientTransform="matrix(0.866 0.5 -0.5 0.866 143.3965 -23.5318)">
			<stop  offset="0" style="stop-color:#C4A0F6"/>
			<stop  offset="1" style="stop-color:#877EFA"/>
		</linearGradient>
		
			<rect x="101.038" y="398.766" transform="matrix(0.866 0.5 -0.5 0.866 217.223 0.4213)" style="fill:none;stroke:url(#SVGID_00000168803827093857930370000011122807543821692819_);stroke-miterlimit:10;" width="13.574" height="13.574"/>
		
			<linearGradient id="SVGID_00000009573080111635154880000008498492941312167824_" gradientUnits="userSpaceOnUse" x1="597.9151" y1="82.8968" x2="612.4895" y2="82.8968" gradientTransform="matrix(0.866 0.5 -0.5 0.866 143.3965 -23.5318)">
			<stop  offset="0" style="stop-color:#C4A0F6"/>
			<stop  offset="1" style="stop-color:#877EFA"/>
		</linearGradient>
		
			<rect x="619.266" y="344.071" transform="matrix(0.866 0.5 -0.5 0.866 259.3009 -266.0186)" style="fill:none;stroke:url(#SVGID_00000009573080111635154880000008498492941312167824_);stroke-miterlimit:10;" width="13.574" height="13.574"/>
		
			<linearGradient id="SVGID_00000032636725658271736620000003043321135234137996_" gradientUnits="userSpaceOnUse" x1="529.7913" y1="208.2573" x2="544.3657" y2="208.2573" gradientTransform="matrix(0.866 0.5 -0.5 0.866 143.3965 -23.5318)">
			<stop  offset="0" style="stop-color:#C4A0F6"/>
			<stop  offset="1" style="stop-color:#877EFA"/>
		</linearGradient>
		
			<rect x="497.591" y="418.571" transform="matrix(0.866 0.5 -0.5 0.866 280.2533 -195.2018)" style="fill:none;stroke:url(#SVGID_00000032636725658271736620000003043321135234137996_);stroke-miterlimit:10;" width="13.574" height="13.574"/>
		
			<linearGradient id="SVGID_00000129901022232898826600000002862187662697430960_" gradientUnits="userSpaceOnUse" x1="511.1366" y1="-87.6446" x2="525.711" y2="-87.6446" gradientTransform="matrix(0.866 0.5 -0.5 0.866 143.3965 -23.5318)">
			<stop  offset="0" style="stop-color:#C4A0F6"/>
			<stop  offset="1" style="stop-color:#877EFA"/>
		</linearGradient>
		
			<rect x="629.387" y="152.993" transform="matrix(0.866 0.5 -0.5 0.866 165.1184 -296.6777)" style="fill:none;stroke:url(#SVGID_00000129901022232898826600000002862187662697430960_);stroke-miterlimit:10;" width="13.574" height="13.574"/>
		<g>
			<g>
				<g>
					
						<linearGradient id="SVGID_00000164488038364356325630000000369532470810444201_" gradientUnits="userSpaceOnUse" x1="69.6018" y1="266.549" x2="70.6018" y2="266.549">
						<stop  offset="0" style="stop-color:#C4A0F6"/>
						<stop  offset="1" style="stop-color:#877EFA"/>
					</linearGradient>
					<path style="fill:url(#SVGID_00000164488038364356325630000000369532470810444201_);" d="M68.602,261.119
						c0,3.62,0,7.24,0,10.86c0,0.811,0.689,1.5,1.5,1.5c0.813,0,1.5-0.687,1.5-1.5c0-3.62,0-7.24,0-10.86c0-0.811-0.689-1.5-1.5-1.5
						C69.288,259.619,68.602,260.306,68.602,261.119L68.602,261.119z"/>
				</g>
			</g>
			<g>
				<g>
					
						<linearGradient id="SVGID_00000079464228010492463060000018007632141922357637_" gradientUnits="userSpaceOnUse" x1="64.6719" y1="266.5491" x2="75.5316" y2="266.5491">
						<stop  offset="0" style="stop-color:#C4A0F6"/>
						<stop  offset="1" style="stop-color:#877EFA"/>
					</linearGradient>
					<path style="fill:url(#SVGID_00000079464228010492463060000018007632141922357637_);" d="M64.672,268.049
						c3.62,0,7.24,0,10.86,0c0.811,0,1.5-0.689,1.5-1.5c0-0.814-0.687-1.5-1.5-1.5c-3.62,0-7.24,0-10.86,0
						c-0.811,0-1.5,0.689-1.5,1.5C63.172,267.363,63.858,268.049,64.672,268.049L64.672,268.049z"/>
				</g>
			</g>
		</g>
		<g>
			<g>
				<g>
					
						<linearGradient id="SVGID_00000012452686497414881670000017973405062246054564_" gradientUnits="userSpaceOnUse" x1="677.0013" y1="342.7842" x2="678.0013" y2="342.7842">
						<stop  offset="0" style="stop-color:#C4A0F6"/>
						<stop  offset="1" style="stop-color:#877EFA"/>
					</linearGradient>
					<path style="fill:url(#SVGID_00000012452686497414881670000017973405062246054564_);" d="M676.001,337.354
						c0,3.62,0,7.24,0,10.86c0,0.811,0.689,1.5,1.5,1.5c0.813,0,1.5-0.687,1.5-1.5c0-3.62,0-7.24,0-10.86c0-0.811-0.689-1.5-1.5-1.5
						C676.688,335.854,676.001,336.541,676.001,337.354L676.001,337.354z"/>
				</g>
			</g>
			<g>
				<g>
					
						<linearGradient id="SVGID_00000138571529929976006920000014537116336651475872_" gradientUnits="userSpaceOnUse" x1="672.0714" y1="342.7842" x2="682.9311" y2="342.7842">
						<stop  offset="0" style="stop-color:#C4A0F6"/>
						<stop  offset="1" style="stop-color:#877EFA"/>
					</linearGradient>
					<path style="fill:url(#SVGID_00000138571529929976006920000014537116336651475872_);" d="M672.071,344.284
						c3.62,0,7.24,0,10.86,0c0.811,0,1.5-0.689,1.5-1.5c0-0.814-0.686-1.5-1.5-1.5c-3.62,0-7.24,0-10.86,0
						c-0.811,0-1.5,0.689-1.5,1.5C670.571,343.598,671.258,344.284,672.071,344.284L672.071,344.284z"/>
				</g>
			</g>
		</g>
		<g>
			<g>
				<g>
					
						<linearGradient id="SVGID_00000076596506017384846710000008727850941095440048_" gradientUnits="userSpaceOnUse" x1="428.1128" y1="425.3583" x2="429.1128" y2="425.3583">
						<stop  offset="0" style="stop-color:#C4A0F6"/>
						<stop  offset="1" style="stop-color:#877EFA"/>
					</linearGradient>
					<path style="fill:url(#SVGID_00000076596506017384846710000008727850941095440048_);" d="M427.113,419.928
						c0,3.62,0,7.24,0,10.86c0,0.811,0.689,1.5,1.5,1.5c0.814,0,1.5-0.686,1.5-1.5c0-3.62,0-7.24,0-10.86c0-0.811-0.69-1.5-1.5-1.5
						C427.799,418.428,427.113,419.115,427.113,419.928L427.113,419.928z"/>
				</g>
			</g>
			<g>
				<g>
					
						<linearGradient id="SVGID_00000183945110525871084270000008073828961251028904_" gradientUnits="userSpaceOnUse" x1="423.1829" y1="425.3583" x2="434.0426" y2="425.3583">
						<stop  offset="0" style="stop-color:#C4A0F6"/>
						<stop  offset="1" style="stop-color:#877EFA"/>
					</linearGradient>
					<path style="fill:url(#SVGID_00000183945110525871084270000008073828961251028904_);" d="M423.183,426.858
						c3.62,0,7.24,0,10.86,0c0.811,0,1.5-0.689,1.5-1.5c0-0.814-0.687-1.5-1.5-1.5c-3.62,0-7.24,0-10.86,0
						c-0.811,0-1.5,0.689-1.5,1.5C421.683,426.172,422.369,426.858,423.183,426.858L423.183,426.858z"/>
				</g>
			</g>
		</g>
		<g>
			<g>
				<g>
					
						<linearGradient id="SVGID_00000151536527741426208700000011745672957067919269_" gradientUnits="userSpaceOnUse" x1="128.571" y1="337.3543" x2="129.571" y2="337.3543">
						<stop  offset="0" style="stop-color:#C4A0F6"/>
						<stop  offset="1" style="stop-color:#877EFA"/>
					</linearGradient>
					<path style="fill:url(#SVGID_00000151536527741426208700000011745672957067919269_);" d="M127.571,331.924
						c0,3.62,0,7.24,0,10.86c0,0.811,0.689,1.5,1.5,1.5c0.814,0,1.5-0.687,1.5-1.5c0-3.62,0-7.24,0-10.86c0-0.811-0.689-1.5-1.5-1.5
						C128.257,330.424,127.571,331.111,127.571,331.924L127.571,331.924z"/>
				</g>
			</g>
			<g>
				<g>
					
						<linearGradient id="SVGID_00000183211022074151396510000004547652465330144688_" gradientUnits="userSpaceOnUse" x1="123.6412" y1="337.3544" x2="134.5009" y2="337.3544">
						<stop  offset="0" style="stop-color:#C4A0F6"/>
						<stop  offset="1" style="stop-color:#877EFA"/>
					</linearGradient>
					<path style="fill:url(#SVGID_00000183211022074151396510000004547652465330144688_);" d="M123.641,338.854
						c3.62,0,7.24,0,10.86,0c0.811,0,1.5-0.69,1.5-1.5c0-0.814-0.687-1.5-1.5-1.5c-3.62,0-7.24,0-10.86,0
						c-0.811,0-1.5,0.689-1.5,1.5C122.141,338.168,122.828,338.854,123.641,338.854L123.641,338.854z"/>
				</g>
			</g>
		</g>
		<g>
			<g>
				<g>
					
						<linearGradient id="SVGID_00000044141741274359363460000003998140467898995090_" gradientUnits="userSpaceOnUse" x1="288.2397" y1="60.5132" x2="289.2397" y2="60.5132">
						<stop  offset="0" style="stop-color:#C4A0F6"/>
						<stop  offset="1" style="stop-color:#877EFA"/>
					</linearGradient>
					<path style="fill:url(#SVGID_00000044141741274359363460000003998140467898995090_);" d="M287.24,55.083c0,3.62,0,7.24,0,10.86
						c0,0.811,0.689,1.5,1.5,1.5c0.814,0,1.5-0.686,1.5-1.5c0-3.62,0-7.24,0-10.86c0-0.811-0.689-1.5-1.5-1.5
						C287.926,53.583,287.24,54.27,287.24,55.083L287.24,55.083z"/>
				</g>
			</g>
			<g>
				<g>
					
						<linearGradient id="SVGID_00000008854852685796209040000006417183700496413067_" gradientUnits="userSpaceOnUse" x1="283.3099" y1="60.5133" x2="294.1696" y2="60.5133">
						<stop  offset="0" style="stop-color:#C4A0F6"/>
						<stop  offset="1" style="stop-color:#877EFA"/>
					</linearGradient>
					<path style="fill:url(#SVGID_00000008854852685796209040000006417183700496413067_);" d="M283.31,62.013c3.62,0,7.24,0,10.86,0
						c0.811,0,1.5-0.689,1.5-1.5c0-0.814-0.686-1.5-1.5-1.5c-3.62,0-7.24,0-10.86,0c-0.811,0-1.5,0.689-1.5,1.5
						C281.81,61.327,282.496,62.013,283.31,62.013L283.31,62.013z"/>
				</g>
			</g>
		</g>
		<g>
			<g>
				<g>
					
						<linearGradient id="SVGID_00000156567781407573893760000012229074894097813653_" gradientUnits="userSpaceOnUse" x1="665.6786" y1="211.8161" x2="666.6786" y2="211.8161">
						<stop  offset="0" style="stop-color:#C4A0F6"/>
						<stop  offset="1" style="stop-color:#877EFA"/>
					</linearGradient>
					<path style="fill:url(#SVGID_00000156567781407573893760000012229074894097813653_);" d="M664.679,206.386
						c0,3.62,0,7.24,0,10.86c0,0.811,0.689,1.5,1.5,1.5c0.813,0,1.5-0.687,1.5-1.5c0-3.62,0-7.24,0-10.86c0-0.811-0.689-1.5-1.5-1.5
						C665.365,204.886,664.679,205.573,664.679,206.386L664.679,206.386z"/>
				</g>
			</g>
			<g>
				<g>
					
						<linearGradient id="SVGID_00000139994016146935218280000002456173730632665527_" gradientUnits="userSpaceOnUse" x1="660.7487" y1="211.8162" x2="671.6084" y2="211.8162">
						<stop  offset="0" style="stop-color:#C4A0F6"/>
						<stop  offset="1" style="stop-color:#877EFA"/>
					</linearGradient>
					<path style="fill:url(#SVGID_00000139994016146935218280000002456173730632665527_);" d="M660.749,213.316
						c3.62,0,7.24,0,10.86,0c0.811,0,1.5-0.689,1.5-1.5c0-0.814-0.686-1.5-1.5-1.5c-3.62,0-7.24,0-10.86,0
						c-0.81,0-1.5,0.689-1.5,1.5C659.249,212.63,659.935,213.316,660.749,213.316L660.749,213.316z"/>
				</g>
			</g>
		</g>
		<g>
			
				<linearGradient id="SVGID_00000167355271581425076710000006941345808665966981_" gradientUnits="userSpaceOnUse" x1="76.6497" y1="87.7028" x2="261.4819" y2="87.7028">
				<stop  offset="0" style="stop-color:#C4A0F6"/>
				<stop  offset="1" style="stop-color:#877EFA"/>
			</linearGradient>
			<path style="fill:url(#SVGID_00000167355271581425076710000006941345808665966981_);" d="M76.65,110.166h184.832
				c0,0-7.125-14.986-23.653-12.38c0,0-10.664-19.548-26.953-14.335c0,0-13.032-22.154-31.276-17.593s-24.109,17.593-24.109,17.593
				s-25.194-10.86-39.746,11.729c0,0-12.597-5.647-19.548,8.036C96.197,103.216,83.165,99.523,76.65,110.166z"/>
			
				<linearGradient id="SVGID_00000160904411439362107160000006254834490372742283_" gradientUnits="userSpaceOnUse" x1="76.6497" y1="88.873" x2="174.1974" y2="88.873">
				<stop  offset="0" style="stop-color:#C4A0F6"/>
				<stop  offset="1" style="stop-color:#877EFA"/>
			</linearGradient>
			<path style="fill:url(#SVGID_00000160904411439362107160000006254834490372742283_);" d="M145.468,92.973
				c6.081-6.988,23.598-5.27,23.598-5.27c-2.066-7.979,1.047-14.898,5.132-20.123c-14.015,5.469-18.706,15.871-18.706,15.871
				s-25.194-10.86-39.746,11.729c0,0-12.597-5.647-19.548,8.036c0,0-13.032-3.692-19.547,6.95h63.984
				C138.917,104.319,141.25,97.82,145.468,92.973z"/>
		</g>
	</g>
</g>
<g id="DESIGNED_BY_FREEPIK">
	<g>
		<g id="XMLID_319_">
			<g id="XMLID_338_">
				<path id="XMLID_346_" style="fill:#A5B7C6;" d="M385.104,465.465c-0.432,0.443-0.803,0.931-1.108,1.453l-0.465-0.241
					c-0.067-0.298-0.349-0.503-0.659-0.466c-0.331,0.039-0.568,0.339-0.529,0.67c0.039,0.331,0.339,0.568,0.67,0.529
					c0.066-0.008,0.127-0.026,0.184-0.052l0.451,0.234c-0.251,0.554-0.433,1.139-0.539,1.744l0.746,0.132
					c0.23-1.306,0.85-2.507,1.792-3.473L385.104,465.465z"/>
				<path id="XMLID_345_" style="fill:#A5B7C6;" d="M390.592,463.163c-0.171,0-0.341,0.006-0.51,0.017l-0.074-0.626
					c0.188-0.149,0.296-0.389,0.266-0.645c-0.046-0.393-0.402-0.674-0.795-0.628c-0.393,0.046-0.674,0.402-0.628,0.795
					c0.03,0.254,0.189,0.461,0.404,0.564l0.074,0.624c-0.714,0.116-1.403,0.332-2.06,0.646l0.327,0.684
					c0.934-0.447,1.942-0.673,2.995-0.673c0.496,0,0.993,0.053,1.475,0.158l0.161-0.741
					C391.692,463.222,391.142,463.163,390.592,463.163z"/>
				<path id="XMLID_344_" style="fill:#A5B7C6;" d="M397.194,465.711c0.331-0.04,0.566-0.341,0.526-0.672
					c-0.04-0.331-0.341-0.566-0.672-0.526c-0.309,0.038-0.535,0.304-0.53,0.609l-0.416,0.363c-0.418-0.43-0.889-0.813-1.408-1.139
					l-0.404,0.641c1.134,0.715,2.021,1.726,2.563,2.925l0.69-0.313c-0.251-0.554-0.567-1.072-0.942-1.545l0.402-0.351
					C397.065,465.716,397.129,465.719,397.194,465.711z"/>
				<path id="XMLID_343_" style="fill:#A5B7C6;" d="M390.044,473.372c-0.386,0.023-0.775,0.035-1.157,0.035
					c-0.88,0-1.733-0.061-2.478-0.179c-0.39-0.062-0.846-0.155-1.27-0.292c1.046,1.861,3.069,3.125,5.388,3.125
					c2.855,0,5.262-1.916,5.95-4.504c-0.682,0.449-1.505,0.825-2.459,1.123C392.839,473.047,391.463,473.286,390.044,473.372z"/>
				<path id="XMLID_339_" style="fill:#A5B7C6;" d="M390.592,464.68c-3.352,0-6.08,2.666-6.08,5.943
					c0,0.426,0.046,0.849,0.137,1.261c0.673,0.483,2.706,0.89,5.348,0.731c2.879-0.173,5.297-0.957,6.672-2.159
					c-0.006-0.195-0.021-0.39-0.045-0.582C396.244,466.913,393.65,464.68,390.592,464.68z M388.432,471.194
					c-1.02,0-1.85-0.83-1.85-1.85c0-1.02,0.83-1.85,1.85-1.85c1.02,0,1.85,0.83,1.85,1.85
					C390.282,470.365,389.452,471.194,388.432,471.194z M393.17,470.286c-0.75,0-1.36-0.61-1.36-1.36s0.61-1.361,1.36-1.361
					c0.75,0,1.361,0.61,1.361,1.361S393.92,470.286,393.17,470.286z"/>
			</g>
			<path id="XMLID_336_" style="fill:#A5B7C6;" d="M406.595,466.547c-0.295-0.116-0.805-0.309-1.382-0.237
				c-0.551,0.069-0.844,0.341-0.844,1.007v0.866h2.228v1.717h-2.228v5.455h-1.932v-5.455h-1.34v-1.717h1.34v-0.888
				c0-1.68,0.896-2.783,2.568-2.783c0.643,0,1.157,0.122,1.59,0.308L406.595,466.547z"/>
			<path id="XMLID_334_" style="fill:#A5B7C6;" d="M411.298,469.879c-0.177-0.03-0.358-0.046-0.526-0.046
				c-0.895,0-1.51,0.548-1.51,1.614v3.908h-1.932v-7.172h1.873v0.785c0.451-0.673,1.14-0.977,2.021-0.977
				c0.414,0,0.848,0.128,1.094,0.337L411.298,469.879z"/>
			<path id="XMLID_331_" style="fill:#A5B7C6;" d="M418.965,471.757c0,0.222-0.015,0.489-0.037,0.651h-5.085
				c0.207,1.036,0.933,1.488,1.843,1.488c0.622,0,1.295-0.252,1.813-0.688l1.133,1.243c-0.814,0.748-1.85,1.088-3.057,1.088
				c-2.198,0-3.723-1.495-3.723-3.753c0-2.258,1.48-3.797,3.627-3.797C417.544,467.99,418.958,469.522,418.965,471.757z
				 M413.851,471.091h3.175c-0.177-0.918-0.733-1.436-1.562-1.436C414.554,469.655,414.021,470.203,413.851,471.091z"/>
			<path id="XMLID_328_" style="fill:#A5B7C6;" d="M426.618,471.757c0,0.222-0.015,0.489-0.037,0.651h-5.085
				c0.207,1.036,0.932,1.488,1.843,1.488c0.622,0,1.295-0.252,1.814-0.688l1.132,1.243c-0.814,0.748-1.85,1.088-3.057,1.088
				c-2.198,0-3.723-1.495-3.723-3.753c0-2.258,1.48-3.797,3.627-3.797C425.197,467.99,426.611,469.522,426.618,471.757z
				 M421.504,471.091h3.175c-0.178-0.918-0.733-1.436-1.562-1.436C422.207,469.655,421.674,470.203,421.504,471.091z"/>
			<path id="XMLID_325_" style="fill:#A5B7C6;" d="M434.964,471.764c0,2.154-1.495,3.775-3.471,3.775
				c-0.962,0-1.643-0.378-2.109-0.933v3.708h-1.924v-10.133h1.887v0.792c0.466-0.585,1.155-0.984,2.139-0.984
				C433.469,467.99,434.964,469.61,434.964,471.764z M429.287,471.764c0,1.132,0.747,1.976,1.843,1.976
				c1.14,0,1.85-0.881,1.85-1.976c0-1.095-0.711-1.976-1.85-1.976C430.035,469.788,429.287,470.632,429.287,471.764z"/>
			<path id="XMLID_322_" style="fill:#A5B7C6;" d="M438.067,465.836c0,0.696-0.54,1.229-1.236,1.229
				c-0.696,0-1.229-0.533-1.229-1.229c0-0.696,0.533-1.243,1.229-1.243C437.527,464.592,438.067,465.14,438.067,465.836z
				 M437.809,475.354h-1.932v-7.172h1.932V475.354z"/>
			<path id="XMLID_320_" style="fill:#A5B7C6;" d="M441.032,470.736l2.702-2.554h2.368l-3.479,3.375l3.501,3.797h-2.376
				l-2.716-2.901v2.901H439.1v-10.658h1.932V470.736z"/>
		</g>
		<g>
			<path style="fill:#A5B7C6;" d="M309.412,475.289v-1.055c-0.527,0.718-1.391,1.23-2.387,1.23c-1.846,0-3.149-1.406-3.149-3.706
				c0-2.256,1.289-3.721,3.149-3.721c0.952,0,1.816,0.469,2.387,1.245v-3.765h1.099v9.77H309.412z M309.412,473.37v-3.208
				c-0.395-0.615-1.245-1.143-2.124-1.143c-1.421,0-2.27,1.172-2.27,2.739c0,1.567,0.85,2.724,2.27,2.724
				C308.168,474.483,309.017,473.986,309.412,473.37z"/>
			<path style="fill:#A5B7C6;" d="M311.932,471.744c0-2.051,1.465-3.706,3.486-3.706c2.139,0,3.398,1.67,3.398,3.794v0.279h-5.727
				c0.088,1.333,1.026,2.446,2.549,2.446c0.806,0,1.626-0.322,2.182-0.894l0.527,0.718c-0.703,0.703-1.655,1.084-2.812,1.084
				C313.44,475.465,311.932,473.956,311.932,471.744z M315.404,468.947c-1.509,0-2.256,1.274-2.315,2.358h4.643
				C317.718,470.25,317.015,468.947,315.404,468.947z"/>
			<path style="fill:#A5B7C6;" d="M319.607,474.351l0.571-0.791c0.469,0.542,1.362,1.011,2.329,1.011c1.084,0,1.67-0.513,1.67-1.216
				c0-1.714-4.38-0.659-4.38-3.281c0-1.098,0.952-2.036,2.636-2.036c1.201,0,2.051,0.454,2.622,1.026l-0.513,0.762
				c-0.424-0.513-1.201-0.894-2.109-0.894c-0.967,0-1.567,0.483-1.567,1.113c0,1.552,4.38,0.527,4.38,3.281
				c0,1.187-0.952,2.138-2.783,2.138C321.306,475.465,320.325,475.113,319.607,474.351z"/>
			<path style="fill:#A5B7C6;" d="M326.477,466.471c0-0.41,0.337-0.747,0.732-0.747c0.41,0,0.747,0.337,0.747,0.747
				c0,0.41-0.337,0.732-0.747,0.732C326.814,467.203,326.477,466.881,326.477,466.471z M326.667,475.289v-7.075h1.099v7.075H326.667
				z"/>
			<path style="fill:#A5B7C6;" d="M329.582,477.105l0.556-0.82c0.586,0.703,1.289,0.967,2.3,0.967c1.172,0,2.27-0.571,2.27-2.124
				v-1.011c-0.513,0.718-1.377,1.26-2.373,1.26c-1.845,0-3.149-1.377-3.149-3.662c0-2.27,1.289-3.677,3.149-3.677
				c0.952,0,1.802,0.469,2.373,1.245v-1.069h1.099v6.87c0,2.344-1.641,3.076-3.369,3.076
				C331.237,478.16,330.417,477.926,329.582,477.105z M334.709,473.253v-3.091c-0.381-0.615-1.23-1.143-2.109-1.143
				c-1.421,0-2.27,1.128-2.27,2.695c0,1.553,0.849,2.695,2.27,2.695C333.478,474.41,334.328,473.868,334.709,473.253z"/>
			<path style="fill:#A5B7C6;" d="M342.413,475.289v-4.629c0-1.245-0.63-1.641-1.582-1.641c-0.865,0-1.685,0.527-2.095,1.099v5.17
				h-1.099v-7.075h1.099v1.025c0.498-0.586,1.465-1.201,2.519-1.201c1.48,0,2.256,0.747,2.256,2.285v4.966H342.413z"/>
			<path style="fill:#A5B7C6;" d="M344.932,471.744c0-2.051,1.465-3.706,3.486-3.706c2.138,0,3.398,1.67,3.398,3.794v0.279h-5.727
				c0.088,1.333,1.025,2.446,2.549,2.446c0.806,0,1.626-0.322,2.183-0.894l0.527,0.718c-0.703,0.703-1.655,1.084-2.812,1.084
				C346.441,475.465,344.932,473.956,344.932,471.744z M348.404,468.947c-1.509,0-2.256,1.274-2.314,2.358h4.643
				C350.718,470.25,350.015,468.947,348.404,468.947z"/>
			<path style="fill:#A5B7C6;" d="M358.35,475.289v-1.055c-0.527,0.718-1.392,1.23-2.388,1.23c-1.846,0-3.149-1.406-3.149-3.706
				c0-2.256,1.289-3.721,3.149-3.721c0.952,0,1.817,0.469,2.388,1.245v-3.765h1.098v9.77H358.35z M358.35,473.37v-3.208
				c-0.396-0.615-1.245-1.143-2.124-1.143c-1.421,0-2.27,1.172-2.27,2.739c0,1.567,0.849,2.724,2.27,2.724
				C357.105,474.483,357.954,473.986,358.35,473.37z"/>
			<path style="fill:#A5B7C6;" d="M364.692,475.289v-9.77h1.099v3.765c0.572-0.776,1.421-1.245,2.388-1.245
				c1.845,0,3.149,1.465,3.149,3.721c0,2.299-1.304,3.706-3.149,3.706c-0.996,0-1.86-0.513-2.388-1.23v1.055H364.692z
				 M367.9,474.483c1.436,0,2.286-1.157,2.286-2.724c0-1.568-0.85-2.739-2.286-2.739c-0.864,0-1.728,0.527-2.109,1.143v3.208
				C366.171,473.986,367.036,474.483,367.9,474.483z"/>
			<path style="fill:#A5B7C6;" d="M372.529,477.061c0.161,0.073,0.425,0.117,0.601,0.117c0.483,0,0.806-0.161,1.055-0.747
				l0.469-1.069l-2.959-7.148h1.187l2.358,5.8l2.344-5.8h1.201l-3.545,8.51c-0.425,1.025-1.143,1.421-2.08,1.435
				c-0.234,0-0.601-0.044-0.806-0.103L372.529,477.061z"/>
		</g>
	</g>
</g>
</svg>
