<svg id="icons" height="512" viewBox="0 0 60 60" width="512" xmlns="http://www.w3.org/2000/svg"><path d="m41 55h-38a2.006 2.006 0 0 1 -2-2v-50a2.006 2.006 0 0 1 2-2h30.59a.984.984 0 0 1 .7.29l6.42 6.42a.984.984 0 0 1 .29.7z" fill="#e4f1ff"/><rect fill="#64bab7" height="4" rx="2" width="18" x="12" y="8"/><path d="m36.8 47.8-3.17 7.271a1.29 1.29 0 0 0 1.19 1.79h2.67a.862.862 0 0 1 .61.25l1.51 1.511a1.306 1.306 0 0 0 2.11-.39l3.28-7.232 3.28 7.231a1.306 1.306 0 0 0 2.11.39l1.51-1.511a.862.862 0 0 1 .61-.25h2.67a1.29 1.29 0 0 0 1.19-1.79l-3.17-7.26z" fill="#a54759"/><path d="m58.561 38.62v.007a3.2 3.2 0 0 0 -.409 2.06 3.205 3.205 0 0 1 -1.243 3 3.2 3.2 0 0 0 -1.17 1.749 3.205 3.205 0 0 1 -2.293 2.292 3.2 3.2 0 0 0 -1.748 1.17 3.2 3.2 0 0 1 -3 1.243 3.207 3.207 0 0 0 -2.061.409h-.006a3.21 3.21 0 0 1 -3.24 0h-.007a3.2 3.2 0 0 0 -2.06-.409 3.205 3.205 0 0 1 -3-1.243 3.2 3.2 0 0 0 -1.749-1.17 3.205 3.205 0 0 1 -2.292-2.293 3.2 3.2 0 0 0 -1.17-1.748 3.2 3.2 0 0 1 -1.243-3 3.207 3.207 0 0 0 -.409-2.061v-.006a3.21 3.21 0 0 1 0-3.24v-.007a3.2 3.2 0 0 0 .409-2.06 3.205 3.205 0 0 1 1.243-3 3.2 3.2 0 0 0 1.17-1.749 3.205 3.205 0 0 1 2.293-2.292 3.2 3.2 0 0 0 1.748-1.17 3.2 3.2 0 0 1 3-1.243 3.207 3.207 0 0 0 2.061-.409h.006a3.21 3.21 0 0 1 3.24 0h.007a3.2 3.2 0 0 0 2.06.409 3.205 3.205 0 0 1 3 1.243 3.2 3.2 0 0 0 1.749 1.17 3.205 3.205 0 0 1 2.292 2.293 3.2 3.2 0 0 0 1.17 1.748 3.2 3.2 0 0 1 1.243 3 3.207 3.207 0 0 0 .409 2.061v.006a3.21 3.21 0 0 1 0 3.24z" fill="#64bab7"/><circle cx="45" cy="37" fill="#90d3ce" r="9"/><path d="m40.91 8h-4.91a2.006 2.006 0 0 1 -2-2v-4.91a1.078 1.078 0 0 1 .29.2l6.42 6.42a1.078 1.078 0 0 1 .2.29z" fill="#a3bdce"/><g fill="#373737"><path d="m28 13a3 3 0 0 0 0-6h-14a3 3 0 0 0 0 6zm-15-3a1 1 0 0 1 1-1h14a1 1 0 0 1 0 2h-14a1 1 0 0 1 -1-1z"/><path d="m59.139 33.449a4.209 4.209 0 0 0 -1.631-3.936 2.2 2.2 0 0 1 -.806-1.207 4.211 4.211 0 0 0 -3.012-3.006 2.218 2.218 0 0 1 -1.2-.806 4.191 4.191 0 0 0 -3.938-1.631 2.231 2.231 0 0 1 -1.424-.285 4.217 4.217 0 0 0 -4.255 0 2.2 2.2 0 0 1 -.87.281v-14.449a1.977 1.977 0 0 0 -.586-1.41l-6.417-6.417a1.977 1.977 0 0 0 -1.41-.583h-30.59a3 3 0 0 0 -3 3v50a3 3 0 0 0 3 3h27a1 1 0 0 0 0-2h-27a1 1 0 0 1 -1-1v-50a1 1 0 0 1 1-1h30v4a3 3 0 0 0 3 3h4v13.921a4.207 4.207 0 0 0 -2.487 1.571 2.2 2.2 0 0 1 -1.207.806 4.211 4.211 0 0 0 -3.006 3.012 2.218 2.218 0 0 1 -.806 1.2 4.212 4.212 0 0 0 -1.631 3.938 2.215 2.215 0 0 1 -.285 1.424 4.212 4.212 0 0 0 0 4.255 2.221 2.221 0 0 1 .281 1.421 4.209 4.209 0 0 0 1.631 3.936 2.2 2.2 0 0 1 .806 1.207 4.2 4.2 0 0 0 2.164 2.679l-2.751 6.311a2.291 2.291 0 0 0 2.111 3.18h2.616l1.472 1.474a2.319 2.319 0 0 0 1.624.665 2.4 2.4 0 0 0 .429-.04 2.3 2.3 0 0 0 1.67-1.315l2.369-5.223 2.367 5.217a2.3 2.3 0 0 0 1.672 1.321 2.337 2.337 0 0 0 2.058-.631l1.467-1.468h2.616a2.29 2.29 0 0 0 2.106-3.19l-2.749-6.3a4.2 4.2 0 0 0 2.163-2.681 2.218 2.218 0 0 1 .806-1.2 4.212 4.212 0 0 0 1.631-3.938 2.263 2.263 0 0 1 .284-1.425 4.212 4.212 0 0 0 0-4.255 2.221 2.221 0 0 1 -.282-1.423zm-24.139-27.449v-2.587l3.589 3.587h-2.589a1 1 0 0 1 -1-1zm5.807 51.824a.288.288 0 0 1 -.217.17.305.305 0 0 1 -.273-.079l-1.508-1.509a1.871 1.871 0 0 0 -1.319-.545h-2.67a.289.289 0 0 1 -.244-.132.269.269 0 0 1 -.029-.258l2.719-6.238a2.154 2.154 0 0 1 .247.275 4.189 4.189 0 0 0 3.938 1.631 2.219 2.219 0 0 1 1.424.285 4.257 4.257 0 0 0 .692.315zm14.617-2.095a.289.289 0 0 1 -.244.132h-2.67a1.87 1.87 0 0 0 -1.317.543l-1.5 1.5a.308.308 0 0 1 -.278.085.289.289 0 0 1 -.219-.176l-2.758-6.08a4.238 4.238 0 0 0 .7-.318 2.239 2.239 0 0 1 1.421-.281 4.2 4.2 0 0 0 3.936-1.631 2.19 2.19 0 0 1 .245-.273l2.717 6.227a.274.274 0 0 1 -.033.272zm2.276-17.616v.009a4.232 4.232 0 0 0 -.535 2.7 2.211 2.211 0 0 1 -.856 2.065 4.229 4.229 0 0 0 -1.536 2.3 2.213 2.213 0 0 1 -1.58 1.579 4.207 4.207 0 0 0 -2.3 1.535 2.235 2.235 0 0 1 -2.065.855 4.241 4.241 0 0 0 -2.713.539 2.2 2.2 0 0 1 -2.235 0 4.226 4.226 0 0 0 -2.13-.575 4.274 4.274 0 0 0 -.575.04 2.226 2.226 0 0 1 -2.065-.856 4.229 4.229 0 0 0 -2.3-1.536 2.213 2.213 0 0 1 -1.579-1.58 4.207 4.207 0 0 0 -1.535-2.3 2.208 2.208 0 0 1 -.855-2.065 4.24 4.24 0 0 0 -.539-2.713 2.2 2.2 0 0 1 0-2.235 4.232 4.232 0 0 0 .535-2.7 2.211 2.211 0 0 1 .856-2.065 4.229 4.229 0 0 0 1.536-2.3 2.213 2.213 0 0 1 1.58-1.579 4.207 4.207 0 0 0 2.3-1.535 2.233 2.233 0 0 1 2.065-.855 4.249 4.249 0 0 0 2.713-.539 2.2 2.2 0 0 1 2.235 0 4.225 4.225 0 0 0 2.7.535 2.221 2.221 0 0 1 2.065.856 4.229 4.229 0 0 0 2.3 1.536 2.213 2.213 0 0 1 1.579 1.58 4.207 4.207 0 0 0 1.535 2.3 2.208 2.208 0 0 1 .855 2.065 4.24 4.24 0 0 0 .539 2.713 2.2 2.2 0 0 1 .005 2.226z"/><path d="m45 27a10 10 0 1 0 10 10 10.011 10.011 0 0 0 -10-10zm0 18a8 8 0 1 1 8-8 8.009 8.009 0 0 1 -8 8z"/><path d="m6 18a1 1 0 0 0 1 1h28a1 1 0 0 0 0-2h-28a1 1 0 0 0 -1 1z"/><path d="m34 23a1 1 0 0 0 -1-1h-26a1 1 0 0 0 0 2h26a1 1 0 0 0 1-1z"/><path d="m30 28a1 1 0 0 0 -1-1h-7a1 1 0 0 0 0 2h7a1 1 0 0 0 1-1z"/><path d="m18 27h-11a1 1 0 0 0 0 2h11a1 1 0 0 0 0-2z"/><path d="m13 33a1 1 0 0 0 1 1h13a1 1 0 0 0 0-2h-13a1 1 0 0 0 -1 1z"/><path d="m7 34h3a1 1 0 0 0 0-2h-3a1 1 0 0 0 0 2z"/><path d="m7 39h20a1 1 0 0 0 0-2h-20a1 1 0 0 0 0 2z"/><path d="m29 43a1 1 0 0 0 -1-1h-21a1 1 0 0 0 0 2h21a1 1 0 0 0 1-1z"/><path d="m7 47a1 1 0 0 0 0 2h11a1 1 0 0 0 0-2z"/><path d="m47.293 34.293-4.293 4.293-.293-.293a1 1 0 0 0 -1.414 1.414l1 1a1 1 0 0 0 1.414 0l5-5a1 1 0 0 0 -1.414-1.414z"/></g></svg>