<?xml version="1.0" encoding="iso-8859-1"?>
<!-- Generator: Adobe Illustrator 19.0.0, SVG Export Plug-In . SVG Version: 6.00 Build 0)  -->
<svg version="1.1" id="Capa_1" xmlns="http://www.w3.org/2000/svg" xmlns:xlink="http://www.w3.org/1999/xlink" x="0px" y="0px"
	 viewBox="0 0 512 512" style="enable-background:new 0 0 512 512;" xml:space="preserve">
<g>
	<path style="fill:#C70024;" d="M334.147,223.407v249.19c0,13.403-10.879,24.282-24.282,24.282h-15.106
		c-13.413,0-24.282-10.879-24.282-24.282v-249.19c0-13.413,10.869-24.282,24.282-24.282h15.106
		C323.268,199.125,334.147,209.994,334.147,223.407z"/>
	<path style="fill:#C70024;" d="M204.303,134.684v337.913c0,13.403-10.879,24.282-24.282,24.282h-15.106
		c-13.413,0-24.282-10.879-24.282-24.282V134.684c0-13.413,10.869-24.282,24.282-24.282h15.106
		C193.424,110.402,204.303,121.271,204.303,134.684z"/>
	<path style="fill:#C70024;" d="M71.183,39.409v433.188c0,13.403-10.869,24.282-24.282,24.282H31.795
		c-13.413,0-24.282-10.879-24.282-24.282V39.409c0-13.413,10.869-24.282,24.282-24.282h15.106
		C60.314,15.127,71.183,25.996,71.183,39.409z"/>
</g>
<path style="fill:#EE8700;" d="M498.16,191.832c-0.561,29.952-21.277,54.785-48.985,61.807c-5.509,1.402-11.289,2.094-17.25,1.983
	c-35.902-0.671-64.461-30.322-63.79-66.224s30.322-64.471,66.224-63.8c5.099,0.09,10.057,0.771,14.796,1.983
	C477.795,134.824,498.731,161.029,498.16,191.832z"/>
<path style="fill:#FFA733;" d="M498.16,191.832c-0.561,29.952-21.277,54.785-48.985,61.807
	c-28.629-7.253-49.556-33.448-48.985-64.241c0.561-29.942,21.277-54.785,48.965-61.817
	C477.795,134.824,498.731,161.029,498.16,191.832z"/>
<path style="fill:#C70024;" d="M497.198,443.928l-45.559,45.559c-2.635,2.645-5.73,4.548-9.046,5.73
	c-3.035,1.102-6.251,1.573-9.446,1.453c-6.672,0.26-13.433-2.114-18.492-7.182l-45.559-45.559
	c-4.818-4.828-7.232-11.179-7.232-17.53c0-6.351,2.414-12.702,7.232-17.52c8.745-8.755,22.529-9.526,32.216-2.394v-80.249
	c0-13.413,10.869-24.282,24.282-24.282h15.106c0.641,0,1.272,0.02,1.893,0.08c12.532,0.962,22.389,11.43,22.389,24.202v80.249
	c9.687-7.132,23.471-6.361,32.216,2.394C506.845,418.514,506.845,434.281,497.198,443.928z"/>
<g>
	<path style="fill:#FF0C38;" d="M334.147,223.407v235.406h-0.321c-13.413,0-24.282-10.879-24.282-24.282V199.125h0.321
		C323.268,199.125,334.147,209.994,334.147,223.407z"/>
	<path style="fill:#FF0C38;" d="M204.303,134.684v324.13h-0.321c-13.413,0-24.282-10.879-24.282-24.282v-324.13h0.321
		C193.424,110.402,204.303,121.271,204.303,134.684z"/>
	<path style="fill:#FF0C38;" d="M71.183,39.409v419.404h-0.321c-13.413,0-24.282-10.879-24.282-24.282V15.127h0.321
		C60.314,15.127,71.183,25.996,71.183,39.409z"/>
	<path style="fill:#FF0C38;" d="M497.198,443.928l-45.559,45.559c-2.635,2.645-5.73,4.548-9.046,5.73V302.033
		c12.532,0.962,22.389,11.43,22.389,24.202v80.249c9.687-7.132,23.471-6.361,32.216,2.394
		C506.845,418.514,506.845,434.281,497.198,443.928z"/>
</g>
<path d="M309.861,191.61h-15.104c-17.533,0-31.797,14.265-31.797,31.797v249.186c0,17.532,14.264,31.797,31.797,31.797h15.104
	c17.533,0,31.797-14.264,31.797-31.797V223.407C341.658,205.875,327.394,191.61,309.861,191.61z M326.632,472.593
	c0,9.247-7.524,16.771-16.771,16.771h-15.104c-9.247,0-16.771-7.523-16.771-16.771V223.407c0-9.247,7.524-16.771,16.771-16.771
	h15.104c9.247,0,16.771,7.524,16.771,16.771V472.593z"/>
<path d="M180.016,102.886h-15.104c-17.533,0-31.797,14.264-31.797,31.797v337.91c0,17.532,14.264,31.797,31.797,31.797h15.104
	c17.533,0,31.797-14.264,31.797-31.797v-337.91C211.813,117.15,197.549,102.886,180.016,102.886z M196.787,472.593
	c0,9.247-7.524,16.771-16.771,16.771h-15.104c-9.247,0-16.771-7.523-16.771-16.771v-337.91c0-9.247,7.524-16.771,16.771-16.771
	h15.104c9.247,0,16.771,7.524,16.771,16.771V472.593z"/>
<path d="M46.9,7.61H31.796C14.264,7.61,0,21.875,0,39.407v433.186c0,17.532,14.264,31.797,31.796,31.797H46.9
	c17.533,0,31.797-14.264,31.797-31.797V39.407C78.698,21.875,64.433,7.61,46.9,7.61z M63.672,472.593
	c0,9.247-7.524,16.771-16.771,16.771H31.796c-9.247,0-16.77-7.523-16.77-16.771V39.407c0-9.247,7.523-16.771,16.77-16.771H46.9
	c9.247,0,16.771,7.523,16.771,16.771L63.672,472.593L63.672,472.593z"/>
<path d="M431.789,263.137c0.463,0.009,0.924,0.013,1.383,0.013c27.577,0,52.411-15.319,64.813-39.981
	c1.864-3.707,0.371-8.223-3.337-10.087c-3.706-1.865-8.222-0.37-10.086,3.337c-9.999,19.884-30.143,32.117-52.49,31.696
	c-31.118-0.583-56.434-26.367-56.434-57.476c0-0.366,0.004-0.732,0.011-1.101c0.582-31.117,26.366-56.433,57.475-56.433
	c0.366,0,0.732,0.003,1.102,0.01c31.118,0.583,56.434,26.367,56.434,57.476v0.234c0,4.149,3.363,7.513,7.513,7.513
	c4.15,0,7.513-3.364,7.513-7.513v-0.234c0-19.089-7.367-37.115-20.743-50.759c-13.393-13.662-31.305-21.383-50.435-21.741
	c-0.464-0.009-0.925-0.013-1.384-0.013c-19.089,0-37.115,7.367-50.759,20.743c-13.662,13.394-21.383,31.305-21.741,50.435
	c-0.009,0.462-0.013,0.923-0.013,1.382c0,19.089,7.367,37.115,20.743,50.759C394.747,255.058,412.659,262.779,431.789,263.137z"/>
<path d="M433.148,243.509c3.528,0,6.398-2.87,6.398-6.397v-4.59c11.819-2.314,18.56-11.026,18.56-24.123
	c0-17.178-10.98-22.156-20.524-25.715l0.001-0.003l-1.653-0.608c-8.799-3.234-13.39-5.237-13.39-12.027
	c0-3.76,1.391-6.356,4.253-7.94c2.705-1.498,6.173-1.811,8.605-1.811c5.791,0,8.927,1.614,11.22,2.794
	c1.387,0.713,2.482,1.277,3.777,1.277c3.723,0,5.782-3.926,5.782-6.639c0-6.661-11.964-8.525-16.632-8.998v-4.613
	c0-3.528-2.87-6.398-6.398-6.398c-3.528,0-6.398,2.87-6.398,6.398v5.41c-10.741,2.622-16.632,10.088-16.632,21.164
	c0,15.23,10.704,19.253,20.149,22.801c8.95,3.363,15.418,5.793,15.418,15.55c0,10.007-7.225,12.108-13.286,12.108
	c-8.03,0-11.229-3.448-13.565-5.966c-1.394-1.504-2.712-2.925-4.753-2.925c-3.264,0-5.89,3.632-5.89,6.639
	c0,5.344,7.391,11.934,18.561,13.758v4.456C426.75,240.639,429.62,243.509,433.148,243.509z"/>
<path d="M479.678,394.132c-2.454,0-4.858,0.27-7.182,0.801v-53.482c0-4.236-3.496-7.641-7.751-7.509
	c-4.109,0.127-7.275,3.711-7.275,7.823c0,14.328,0,59.01,0,68.282c0,5.217,6.308,7.831,9.997,4.141
	c3.237-3.216,7.571-5.029,12.211-5.029c15.378,0,23.037,18.625,12.211,29.451c-0.062,0.061-0.108,0.108-0.143,0.143
	c-0.011,0.011-0.018,0.018-0.027,0.027c0.006-0.006,0.011-0.011,0.017-0.017c-1.033,1.034-8.053,8.054-45.405,45.415
	c-3.246,3.236-7.583,5.029-12.211,5.029c-5.463,0-9.849-0.723-14.154-5.029c0.313,0.313-4.105-4.105-26.165-26.175l0,0
	l-19.393-19.393c-6.732-6.732-6.732-17.691,0-24.422c6.564-6.543,17.497-6.879,24.422,0c3.689,3.689,9.997,1.077,9.997-4.141
	c0-10.046,0-67.23,0-83.811c0-9.261,7.508-16.769,16.769-16.769h15.106c5.459,0,10.598,2.675,13.744,7.152
	c2.384,3.396,7.062,4.227,10.458,1.833c3.406-2.374,4.227-7.062,1.843-10.458c-5.96-8.485-15.697-13.553-26.045-13.553h-15.106
	c-17.56,0-31.795,14.235-31.795,31.795v68.699c-31.422-7.177-52.88,31.445-30.022,54.304l45.569,45.559
	c12.036,12.055,34.32,13.282,47.602,0l45.569-45.559C522.837,428.918,508.315,394.132,479.678,394.132z"/>
<g>
</g>
<g>
</g>
<g>
</g>
<g>
</g>
<g>
</g>
<g>
</g>
<g>
</g>
<g>
</g>
<g>
</g>
<g>
</g>
<g>
</g>
<g>
</g>
<g>
</g>
<g>
</g>
<g>
</g>
</svg>
