<?xml version="1.0" encoding="iso-8859-1"?>
<!-- Generator: Adobe Illustrator 19.0.0, SVG Export Plug-In . SVG Version: 6.00 Build 0)  -->
<svg version="1.1" id="Capa_1" xmlns="http://www.w3.org/2000/svg" xmlns:xlink="http://www.w3.org/1999/xlink" x="0px" y="0px"
	 viewBox="0 0 512 512" style="enable-background:new 0 0 512 512;" xml:space="preserve">
<g>
	<path style="fill:#7ED63E;" d="M110.397,417.587v61.689c0,13.927-11.292,25.209-25.209,25.209h-15.68
		c-13.917,0-25.199-11.282-25.199-25.209v-61.689c0-13.927,11.282-25.209,25.199-25.209h15.68
		C99.105,392.378,110.397,403.66,110.397,417.587z"/>
	<path style="fill:#7ED63E;" d="M211.603,360.867v118.409c0,13.927-11.282,25.209-25.199,25.209h-15.68
		c-13.917,0-25.209-11.282-25.209-25.209V360.867c0-13.927,11.292-25.209,25.209-25.209h15.68
		C200.321,335.658,211.603,346.94,211.603,360.867z"/>
	<path style="fill:#7ED63E;" d="M312.818,309.438v169.839c0,13.927-11.292,25.209-25.209,25.209h-15.68
		c-13.917,0-25.199-11.282-25.199-25.209V309.438c0-13.917,11.282-25.199,25.199-25.199h15.68
		C301.527,284.239,312.818,295.521,312.818,309.438z"/>
</g>
<path style="fill:#EE8700;" d="M443.232,73.781c-0.561,29.958-21.291,54.806-48.995,61.82c-5.511,1.403-11.292,2.094-17.243,1.984
	c-35.92-0.671-64.485-30.329-63.814-66.238c0.671-35.91,30.329-64.485,66.248-63.814c5.1,0.09,10.059,0.771,14.799,1.984
	C422.862,16.761,443.802,42.972,443.232,73.781z"/>
<path style="fill:#FFA733;" d="M443.232,73.781c-0.561,29.958-21.291,54.806-48.995,61.82
	c-28.635-7.254-49.566-33.455-48.995-64.254c0.561-29.948,21.281-54.796,48.985-61.83C422.862,16.761,443.802,42.972,443.232,73.781
	z"/>
<path style="fill:#7ED63E;" d="M467.669,238.971c0,1.884-0.17,3.767-0.531,5.621c-1.072,5.741-3.817,11.222-8.236,15.63
	c-11.693,11.683-30.82,11.683-42.512,0l-2.365-2.375v221.429c0,13.927-11.282,25.209-25.209,25.209h-15.67
	c-13.917,0-25.209-11.282-25.209-25.209V258.309l-1.904,1.914c-5.841,5.841-13.556,8.767-21.251,8.767
	c-7.715,0-15.41-2.926-21.261-8.767c-11.693-11.693-11.693-30.82,0-42.512l51.209-51.209c3.567-4.659,8.346-8.346,13.877-10.58
	c0.11-0.05,0.21-0.09,0.321-0.13c0.351-0.13,0.691-0.271,1.042-0.391c0.11-0.04,0.23-0.08,0.341-0.11
	c3.346-1.152,6.933-1.773,10.671-1.773c0.331,0,0.651,0,0.982,0.02c1.443,0.04,2.876,0.17,4.268,0.401
	c6.372,0.812,12.534,3.637,17.414,8.516l55.257,55.257c4.419,4.419,7.164,9.889,8.236,15.63
	C467.498,235.194,467.669,237.088,467.669,238.971z"/>
<g>
	<path style="fill:#A4E276;" d="M110.397,417.587v54.445h-6.863c-13.917,0-25.199-11.282-25.199-25.199v-54.455h6.853
		C99.105,392.378,110.397,403.66,110.397,417.587z"/>
	<path style="fill:#A4E276;" d="M211.603,360.867v111.165h-6.853c-13.917,0-25.209-11.282-25.209-25.199V335.658h6.863
		C200.321,335.658,211.603,346.94,211.603,360.867z"/>
	<path style="fill:#A4E276;" d="M312.818,309.438v162.595h-6.863c-13.917,0-25.199-11.282-25.199-25.199V284.239h6.853
		C301.527,284.239,312.818,295.521,312.818,309.438z"/>
</g>
<path style="fill:#B6E892;" d="M467.137,233.34v11.252c-1.072,5.741-3.817,11.222-8.236,15.63c-11.693,11.683-30.82,11.683-42.512,0
	l-2.365-2.375v214.185h-6.853c-13.927,0-25.209-11.282-25.209-25.199V153.536c1.443,0.04,2.876,0.17,4.268,0.401
	c6.372,0.812,12.534,3.637,17.414,8.516l55.257,55.257C463.32,222.129,466.065,227.599,467.137,233.34z"/>
<path d="M85.19,384.864H69.513c-18.041,0-32.718,14.677-32.718,32.718v21.076c0,4.15,3.364,7.515,7.515,7.515
	s7.515-3.365,7.515-7.515v-21.076c0-9.754,7.935-17.689,17.689-17.689h15.676c9.754,0,17.689,7.935,17.689,17.689v61.696
	c0,9.754-7.935,17.689-17.689,17.689H69.513c-9.754,0-17.689-7.935-17.689-17.689v-10.561c0-4.15-3.364-7.515-7.515-7.515
	s-7.515,3.365-7.515,7.515v10.562c0,18.041,14.677,32.718,32.718,32.718h15.676c18.041,0,32.718-14.677,32.718-32.718v-61.696
	C117.908,399.541,103.231,384.864,85.19,384.864z"/>
<path d="M186.4,328.144h-15.676c-18.041,0-32.718,14.677-32.718,32.718v118.416c0,18.041,14.677,32.718,32.718,32.718H186.4
	c18.041,0,32.718-14.677,32.718-32.718V360.863C219.119,342.821,204.441,328.144,186.4,328.144z M204.09,479.278
	c0,9.754-7.935,17.689-17.689,17.689h-15.676c-9.754,0-17.689-7.935-17.689-17.689V360.863c0-9.754,7.935-17.689,17.689-17.689
	h15.676c9.754,0,17.689,7.935,17.689,17.689V479.278z"/>
<path d="M287.611,276.72h-15.676c-18.041,0-32.718,14.677-32.718,32.718v169.84c0,18.041,14.677,32.718,32.718,32.718h15.676
	c18.041,0,32.718-14.677,32.718-32.718V364.151c0-4.15-3.363-7.515-7.515-7.515c-4.151,0-7.515,3.365-7.515,7.515v115.127
	c0,9.754-7.935,17.689-17.689,17.689h-15.676c-9.754,0-17.689-7.935-17.689-17.689v-169.84c0-9.754,7.935-17.689,17.689-17.689
	h15.676c9.754,0,17.689,7.935,17.689,17.689v24.655c0,4.15,3.363,7.515,7.515,7.515c4.151,0,7.515-3.365,7.515-7.515v-24.655
	C320.329,291.398,305.652,276.72,287.611,276.72z"/>
<path d="M443.059,105.124c1.865-3.708,0.371-8.225-3.337-10.09c-3.707-1.866-8.224-0.371-10.089,3.337
	c-10.001,19.888-30.161,32.134-52.501,31.703c-31.124-0.583-56.446-26.372-56.446-57.488c0-31.999,26.596-58.133,58.599-57.536
	c31.124,0.583,56.446,26.372,56.446,57.488v0.233c0,4.15,3.364,7.515,7.515,7.515s7.515-3.365,7.515-7.515v-0.233
	c0-64.029-77.628-96.602-123.345-51.781c-28.545,27.984-29.161,73.887-1.012,102.599
	C360.994,158.64,420.535,149.914,443.059,105.124z"/>
<path d="M378.207,125.469c3.529,0,6.399-2.871,6.399-6.398v-4.591c11.822-2.314,18.564-11.028,18.564-24.128
	c0-17.181-10.982-22.161-20.529-25.721l0.001-0.003c-8.062-3.132-15.046-4.62-15.046-12.636c0-11.405,15.128-11.566,24.083-6.959
	c1.388,0.714,2.483,1.277,3.778,1.277c3.724,0,5.783-3.927,5.783-6.641c0-6.663-11.966-8.527-16.635-8.999v-4.614
	c0-3.529-2.871-6.399-6.399-6.399s-6.399,2.871-6.399,6.399v5.411c-10.743,2.622-16.635,10.091-16.635,21.168
	c0,28.119,35.574,17.401,35.574,38.359c0,10.009-7.227,12.11-13.29,12.11c-13.089,0-13.075-8.893-18.321-8.893
	c-3.264,0-5.891,3.633-5.891,6.641c0,5.345,7.392,11.936,18.565,13.761v4.457C371.809,122.598,374.678,125.469,378.207,125.469z"/>
<path d="M308.984,222.868c-0.009,0.009-0.019,0.019-0.026,0.027c0.018-0.018,0.037-0.037,0.055-0.055
	C309.004,222.847,308.993,222.859,308.984,222.868z"/>
<path d="M464.212,212.4l-55.257-55.267c-15.73-15.73-44.209-15.36-59.786,4.298L298.211,212.4
	c-23.702,23.686-6.697,64.104,26.561,64.104c5.491,0,10.801-1.162,15.65-3.377v206.149c0,18.045,14.678,32.723,32.723,32.723h15.68
	c18.035,0,32.713-14.678,32.713-32.723V272.917c13.68,6.454,30.949,4.339,42.673-7.384C478.87,250.884,478.87,227.048,464.212,212.4
	z M453.591,254.902c-9.126,9.126-23.945,8.549-32.343-0.461c-5.439-5.439-14.739-1.587-14.739,6.105c0,7.615,0,209.563,0,218.73
	c0,9.759-7.935,17.694-17.684,17.694h-15.68c-9.772,0-17.694-7.922-17.694-17.694c0-9.167,0-210.626,0-218.269
	c0-7.692-9.3-11.543-14.739-6.105c-4.27,4.264-9.923,6.573-15.941,6.573c-20.029,0-30.097-24.282-15.941-38.454l0,0
	c0.003-0.003,0.006-0.006,0.009-0.009c0.01-0.01,0.029-0.029,0.057-0.057c-0.001,0.001-0.002,0.002-0.003,0.003
	c0.002-0.002,0.004-0.004,0.006-0.006c0.015-0.015,0.034-0.034,0.055-0.055c-0.013,0.013-0.024,0.024-0.036,0.036
	c0.022-0.022,0.044-0.044,0.063-0.063c0.039-0.039,0.084-0.084,0.141-0.141c-0.006,0.006-0.013,0.013-0.021,0.021
	c0.018-0.018,0.025-0.025,0.035-0.035c0.002-0.003,0.005-0.005,0.007-0.007c0.005-0.005,0.009-0.009,0.011-0.011
	c1.4-1.4,8.178-8.176,35.823-35.813l0,0c21.782-21.221,22.068-25.68,37.402-25.68c5.849,0,11.59,2.199,15.941,6.563
	c46.799,46.799,8.594,8.594,55.267,55.257C462.378,231.817,462.378,246.115,453.591,254.902z"/>
<g>
</g>
<g>
</g>
<g>
</g>
<g>
</g>
<g>
</g>
<g>
</g>
<g>
</g>
<g>
</g>
<g>
</g>
<g>
</g>
<g>
</g>
<g>
</g>
<g>
</g>
<g>
</g>
<g>
</g>
</svg>
