<svg id="icons" height="512" viewBox="0 0 60 60" width="512" xmlns="http://www.w3.org/2000/svg"><path d="m31.05 55h-28.05a2.006 2.006 0 0 1 -2-2v-50a2.006 2.006 0 0 1 2-2h30.59a.984.984 0 0 1 .7.29l6.42 6.42a.984.984 0 0 1 .29.7v16.62z" fill="#e4f1ff"/><rect fill="#64bab7" height="4" rx="2" width="18" x="12" y="8"/><circle cx="42" cy="42" fill="#cd596b" r="17"/><path d="m49.41 46.59a1.994 1.994 0 1 1 -2.82 2.82l-4.59-4.59-4.59 4.59a1.994 1.994 0 0 1 -2.82-2.82l4.59-4.59-4.59-4.59a1.994 1.994 0 0 1 2.82-2.82l4.59 4.59 4.59-4.59a1.994 1.994 0 0 1 2.82 2.82l-4.59 4.59z" fill="#fff"/><path d="m40.91 8h-4.91a2.006 2.006 0 0 1 -2-2v-4.91a1.078 1.078 0 0 1 .29.2l6.42 6.42a1.078 1.078 0 0 1 .2.29z" fill="#a3bdce"/><g fill="#373737"><path d="m28 13a3 3 0 0 0 0-6h-14a3 3 0 0 0 0 6zm-15-3a1 1 0 0 1 1-1h14a1 1 0 0 1 0 2h-14a1 1 0 0 1 -1-1z"/><path d="m42 24v-15.59a1.977 1.977 0 0 0 -.583-1.41l-6.417-6.417a1.977 1.977 0 0 0 -1.41-.583h-30.59a3 3 0 0 0 -3 3v50a3 3 0 0 0 3 3h23a1 1 0 0 0 0-2h-23a1 1 0 0 1 -1-1v-50a1 1 0 0 1 1-1h30v4a3 3 0 0 0 3 3h4v15.118a17.945 17.945 0 1 0 2-.118zm-7-18v-2.587l3.589 3.587h-2.589a1 1 0 0 1 -1-1zm7 52a16 16 0 1 1 16-16 16.019 16.019 0 0 1 -16 16z"/><path d="m50.976 36a2.947 2.947 0 0 0 -.854-2.113 3.049 3.049 0 0 0 -4.239 0l-3.883 3.879-3.878-3.879a3.053 3.053 0 0 0 -4.235-.009 3.011 3.011 0 0 0 0 4.239l3.879 3.883-3.879 3.878a3.011 3.011 0 0 0 0 4.24 3.051 3.051 0 0 0 4.233 0l3.88-3.884 3.884 3.884a2.994 2.994 0 1 0 4.23-4.238l-3.88-3.88 3.879-3.878a3.005 3.005 0 0 0 .863-2.122zm-2.273.7-4.59 4.59a1 1 0 0 0 0 1.414l4.594 4.596a.994.994 0 0 1 -1.41 1.4l-4.59-4.59a1.026 1.026 0 0 0 -1.414 0l-4.593 4.59a.994.994 0 1 1 -1.4-1.4l4.59-4.59a1 1 0 0 0 0-1.414l-4.597-4.596a.994.994 0 0 1 1.41-1.4l4.59 4.59a1 1 0 0 0 1.414 0l4.593-4.597a.994.994 0 0 1 1.4 1.41z"/><path d="m6 18a1 1 0 0 0 1 1h28a1 1 0 0 0 0-2h-28a1 1 0 0 0 -1 1z"/><path d="m7 24h25a1 1 0 0 0 0-2h-25a1 1 0 0 0 0 2z"/><path d="m22 27a1 1 0 0 0 0 2h5a1 1 0 0 0 0-2z"/><path d="m7 29h11a1 1 0 0 0 0-2h-11a1 1 0 0 0 0 2z"/><path d="m24 33a1 1 0 0 0 -1-1h-9a1 1 0 0 0 0 2h9a1 1 0 0 0 1-1z"/><path d="m7 34h3a1 1 0 0 0 0-2h-3a1 1 0 0 0 0 2z"/><path d="m22 38a1 1 0 0 0 -1-1h-14a1 1 0 0 0 0 2h14a1 1 0 0 0 1-1z"/><path d="m20 43a1 1 0 0 0 -1-1h-12a1 1 0 0 0 0 2h12a1 1 0 0 0 1-1z"/><path d="m7 47a1 1 0 0 0 0 2h11a1 1 0 0 0 0-2z"/></g></svg>