<svg fill="none" height="512" viewBox="0 0 200 241" width="512" xmlns="http://www.w3.org/2000/svg"><g fill="#ff9908"><path d="m139.67 49.25c-5.468-.0079-10.71-2.1843-14.575-6.0518-3.866-3.8674-6.04-9.1101-6.045-14.5782v-28.62h-92.1401c-7.137 0-13.9815 2.83511-19.02806 7.88171-5.04661 5.04659-7.88184 11.89139-7.88184 19.02829v162.22c0 7.137 2.83523 13.982 7.88184 19.028 5.04656 5.047 11.89106 7.882 19.02806 7.882h110.6001c3.535.001 7.035-.694 10.301-2.045 3.266-1.352 6.234-3.334 8.734-5.833s4.483-5.466 5.836-8.732c1.353-3.265 2.049-6.765 2.049-10.3v-139.88z" opacity=".15"/><path d="m164.43 49.25h-24.76c-5.468-.0079-10.71-2.1843-14.575-6.0518-3.866-3.8674-6.04-9.1101-6.045-14.5782v-28.62z"/><path d="m183.94 170.61h-125.0401c-8.8697 0-16.0598 7.19-16.0598 16.06v37.28c0 8.87 7.1901 16.06 16.0598 16.06h125.0401c8.87 0 16.06-7.19 16.06-16.06v-37.28c0-8.87-7.19-16.06-16.06-16.06z"/></g><path d="m100.743 224.796c-1.3602-.527-1.7682-1.462-1.2242-2.805l12.1382-29.886c.51-1.122 1.309-1.683 2.397-1.683h.102c1.105.051 1.853.612 2.244 1.683l12.342 29.886c.544 1.343.153 2.278-1.173 2.805-1.343.527-2.278.136-2.805-1.173l-2.754-6.681h-15.887l-2.626 6.681c-.527 1.326-1.445 1.717-2.754 1.173zm7.063-12.138h12.444l-6.349-15.453z" fill="#fff"/><path d="m138.484 225c-.731 0-1.275-.17-1.632-.51-.34-.357-.51-.901-.51-1.632v-30.243c0-.748.17-1.292.51-1.632.357-.34.901-.51 1.632-.51.748 0 1.292.17 1.632.51s.51.884.51 1.632v30.243c0 .731-.17 1.275-.51 1.632-.34.34-.884.51-1.632.51z" fill="#fff"/><path d="m75.1432 115.006c.5849-.585.7931-1.436 1.0643-2.217.1439-.415.3806-.791.6924-1.099.273-.273.5974-.49.9543-.638s.7394-.224 1.1258-.224c.3863 0 .7688.076 1.1257.224s.6813.365.9544.638c.2733.273.49.597.6379.954s.2241.74.2241 1.126-.0762.769-.2241 1.126-.3646.681-.6379.954c-.3085.312-.6844.549-1.0987.693-.7811.271-1.6332.479-2.2179 1.063l-20.4791 20.48c-2.3969 2.396.3981 6.307 3.4418 4.815l33.5803-16.461c.7774-.381 1.35-1.071 1.5893-1.904 1.2029-4.183 5.2322-17.398 9.9732-24.229.944-1.36.942-3.2658-.229-4.4367l-8.7603-8.7606c-1.171-1.171-3.0767-1.1727-4.4371-.2285-6.8311 4.7412-20.0452 8.7701-24.2292 9.973-.8321.2393-1.5222.8118-1.9033 1.5893l-16.4753 33.6095c-1.4915 3.043 2.4163 5.838 4.8138 3.443z" fill="#ff9908"/><path d="m120.397 88.2846-15.931-15.9311c-1.172-1.1716-3.072-1.1716-4.243 0l-5.6499 5.6498c-1.1715 1.1715-1.1715 3.071 0 4.2426l15.9309 15.9312c1.172 1.1715 3.071 1.1715 4.243 0l5.65-5.6498c1.171-1.1716 1.171-3.0711 0-4.2427z" fill="#ff9908"/></svg>