<svg fill="none" height="512" viewBox="0 0 201 240" width="512" xmlns="http://www.w3.org/2000/svg"><g fill="#ff9908"><path d="m140 49.24c-5.468-.0053-10.711-2.1791-14.578-6.0447-3.868-3.8656-6.044-9.1072-6.052-14.5753v-28.62h-92.17c-7.137 0-13.9816 2.83517-19.02825 7.88177-5.0466 5.04663-7.881711 11.89123-7.881711 19.02823v162.22c.007952 7.131 2.846911 13.967 7.892941 19.005 5.04602 5.039 11.88612 7.868 19.01702 7.865h110.6c7.137 0 13.982-2.835 19.028-7.882 5.047-5.046 7.882-11.891 7.882-19.028v-139.85z" opacity=".15"/><path d="m164.71 49.24h-24.71c-5.468-.0053-10.711-2.1791-14.578-6.0447-3.868-3.8656-6.044-9.1072-6.052-14.5753v-28.62z"/><path d="m184.23 170.6h-125.0401c-8.8697 0-16.0599 7.19-16.0599 16.06v37.28c0 8.87 7.1902 16.06 16.0599 16.06h125.0401c8.87 0 16.06-7.19 16.06-16.06v-37.28c0-8.87-7.19-16.06-16.06-16.06z"/></g><path d="m85.129 224.796c-1.36-.527-1.768-1.462-1.224-2.805l12.138-29.886c.51-1.122 1.309-1.683 2.397-1.683h.102c1.105.051 1.853.612 2.244 1.683l12.342 29.886c.544 1.343.153 2.278-1.173 2.805-1.343.527-2.278.136-2.805-1.173l-2.754-6.681h-15.8865l-2.6265 6.681c-.527 1.326-1.445 1.717-2.754 1.173zm7.0635-12.138h12.4445l-6.35-15.453z" fill="#fff"/><path d="m130.047 225c-.884 0-1.581-.561-2.091-1.683l-12.597-29.835c-.255-.595-.323-1.122-.204-1.581.119-.476.51-.867 1.173-1.173 1.394-.697 2.38-.34 2.958 1.071l11.908 28.203h-1.479l11.603-28.203c.561-1.394 1.547-1.751 2.958-1.071.595.306.96.697 1.096 1.173.153.459.111.986-.127 1.581l-12.699 29.835c-.527 1.122-1.292 1.683-2.295 1.683z" fill="#fff"/><path d="m154.097 225c-.731 0-1.275-.17-1.632-.51-.34-.357-.51-.901-.51-1.632v-30.243c0-.748.17-1.292.51-1.632.357-.34.901-.51 1.632-.51.748 0 1.292.17 1.632.51s.51.884.51 1.632v30.243c0 .731-.17 1.275-.51 1.632-.34.34-.884.51-1.632.51z" fill="#fff"/><path d="m82.34 149.83c-10.9096-.013-21.3685-4.353-29.0828-12.067s-12.054-18.173-12.0673-29.083c.0133-10.9096 4.353-21.3686 12.0673-29.0828 7.7143-7.7143 18.1732-12.0539 29.0828-12.0672 10.9096.0133 21.369 4.3529 29.083 12.0672 7.714 7.7142 12.054 18.1732 12.067 29.0828-.013 10.91-4.353 21.369-12.067 29.083s-18.1734 12.054-29.083 12.067zm0-75.09c-8.9966.0159-17.6202 3.5968-23.9817 9.9583-6.3616 6.3616-9.9424 14.9851-9.9583 23.9817 0 9.007 3.5739 17.646 9.9372 24.02 6.3632 6.375 14.9958 9.964 24.0028 9.98 9.0069-.016 17.6396-3.605 24.003-9.98 6.363-6.374 9.937-15.013 9.937-24.02-.016-8.9966-3.597-17.6201-9.958-23.9817-6.3619-6.3615-14.9855-9.9424-23.982-9.9583z" fill="#ff9908"/><path d="m94.14 105.86-9.5701-5.52c-.4953-.286-1.0571-.4365-1.6291-.4367-.572-.0001-1.1339.1497-1.6294.4357s-.9071.697-1.1935 1.192c-.2863.495-.4373 1.057-.4378 1.629v11.05c.0005.572.1515 1.134.4378 1.629.2864.495.698.906 1.1935 1.192s1.0574.436 1.6294.436 1.1338-.151 1.6291-.437l9.5701-5.53c.4941-.286.9041-.698 1.1892-1.193s.4352-1.056.4352-1.627-.1501-1.132-.4352-1.627-.6951-.906-1.1892-1.193z" fill="#ff9908"/><path d="m74.77 99.48h-3.5c-1.3034 0-2.36 1.057-2.36 2.36v13.69c0 1.303 1.0566 2.36 2.36 2.36h3.5c1.3034 0 2.36-1.057 2.36-2.36v-13.69c0-1.303-1.0566-2.36-2.36-2.36z" fill="#ff9908"/></svg>