<svg fill="none" height="512" viewBox="0 0 202 240" width="512" xmlns="http://www.w3.org/2000/svg"><g fill="#a140ff"><path d="m140.53 49.24c-5.469-.0027-10.713-2.1756-14.581-6.0418-3.868-3.8661-6.044-9.1093-6.049-14.5782v-28.62h-92.13c-3.5347-.00000024-7.0347.696337-10.3003 2.04932-3.2655 1.35298-6.2325 3.33605-8.73142 5.83593-2.49895 2.49985-4.48099 5.46765-5.83276 8.73365s-2.046724 6.7664-2.045411 10.3011v162.21c-.001313 3.535.693641 7.035 2.045411 10.301s3.33381 6.234 5.83276 8.734c2.49892 2.5 5.46592 4.483 8.73142 5.836 3.2656 1.353 6.7656 2.049 10.3003 2.049h110.6c3.535 0 7.035-.696 10.3-2.049 3.266-1.353 6.233-3.336 8.732-5.836s4.481-5.468 5.832-8.734c1.352-3.266 2.047-6.766 2.046-10.301v-139.88z" opacity=".15"/><path d="m165.28 49.24h-24.75c-5.469-.0027-10.713-2.1756-14.581-6.0418-3.868-3.8661-6.044-9.1093-6.049-14.5782v-28.62z"/><path d="m185.1 170.6h-125.0399c-8.8697 0-16.0601 7.19-16.0601 16.06v37.28c0 8.87 7.1904 16.06 16.0601 16.06h125.0399c8.87 0 16.06-7.19 16.06-16.06v-37.28c0-8.87-7.19-16.06-16.06-16.06z"/></g><path d="m75.8083 225c-1.428 0-2.142-.714-2.142-2.142v-30.294c0-1.428.714-2.142 2.142-2.142h13.311c2.703 0 4.777.714 6.222 2.142 1.462 1.428 2.193 3.468 2.193 6.12v1.377c0 2.295-.7225 4.071-2.1675 5.329 2.703 1.513 4.0545 4.276 4.0545 8.288v1.734c0 3.128-.833 5.508-2.499 7.14-1.649 1.632-4.029 2.448-7.14 2.448zm2.142-4.284h11.832c1.921 0 3.2895-.408 4.1055-1.224.833-.833 1.2495-2.193 1.2495-4.08v-1.734c0-1.887-.3995-3.23-1.1985-4.029-.799-.816-2.1845-1.224-4.1565-1.224h-11.832zm0-16.575h12.087c1.241 0 2.0825-.383 2.5245-1.148.459-.765.6885-1.742.6885-2.932v-1.377c0-1.479-.306-2.508-.918-3.086-.612-.595-1.683-.892-3.213-.892h-11.169z" fill="#fff"/><path d="m110.124 225c-1.428 0-2.142-.714-2.142-2.142v-30.294c0-1.428.714-2.142 2.142-2.142.935 0 1.717.459 2.346 1.377l12.036 18.105-.918.153 12.138-18.258c.578-.918 1.445-1.377 2.601-1.377s1.734.714 1.734 2.142v30.294c0 1.428-.714 2.142-2.142 2.142s-2.142-.714-2.142-2.142v-26.01l1.326.459-10.71 15.759c-.629.918-1.496 1.377-2.601 1.377-.765 0-1.462-.459-2.091-1.377l-10.71-15.759 1.275.357v25.194c0 1.428-.714 2.142-2.142 2.142z" fill="#fff"/><path d="m152.806 225c-1.428 0-2.142-.714-2.142-2.142v-30.294c0-1.428.714-2.142 2.142-2.142h11.934c3.111 0 5.491.833 7.14 2.499 1.666 1.649 2.499 4.029 2.499 7.14v1.53c0 3.111-.833 5.499-2.499 7.165-1.649 1.649-4.029 2.474-7.14 2.474h-9.792v11.628c0 1.428-.714 2.142-2.142 2.142zm2.142-18.054h9.792c1.938 0 3.315-.408 4.131-1.224s1.224-2.193 1.224-4.131v-1.53c0-1.921-.408-3.29-1.224-4.106-.816-.833-2.193-1.249-4.131-1.249h-9.792z" fill="#fff"/><path d="m105.16 146.41h-44.16c-4.3241-.005-8.4695-1.725-11.5271-4.783-3.0576-3.057-4.7777-7.203-4.783-11.527v-44.1699c.0053-4.3241 1.7254-8.4696 4.783-11.5271 3.0576-3.0576 7.203-4.7777 11.5271-4.783h44.17c4.323.0053 8.468 1.7257 11.524 4.7836 3.056 3.0578 4.773 7.2033 4.776 11.5265v44.1699c-.003 4.325-1.722 8.472-4.78 11.53s-7.205 4.777-11.53 4.78zm-44.16-69.58c-2.4127.0026-4.7256.9623-6.4316 2.6683s-2.6659 4.0191-2.6685 6.4318v44.1699c.0026 2.413.9625 4.726 2.6685 6.432s4.0189 2.665 6.4316 2.668h44.17c2.411-.005 4.721-.966 6.425-2.672s2.662-4.017 2.665-6.428v-44.1699c-.003-2.411-.961-4.7225-2.665-6.4283-1.704-1.7057-4.014-2.6666-6.425-2.6718z" fill="#a140ff"/><path d="m117.86 121.7v8.4c-.003 3.367-1.341 6.596-3.723 8.977-2.381 2.381-5.61 3.72-8.977 3.723h-44.16c-3.3692 0-6.6006-1.338-8.9839-3.719-2.3833-2.382-3.7234-5.612-3.7261-8.981v-14.1c6.8627-1.473 17.1923-1.97 29.7229 2.755.732.276 1.5602.119 2.1264-.421l5.0201-4.784c1.0275-.98 2.7198-.607 3.2404.714l2.2724 5.763c.7006 1.777 4.1207 1.837 5.9323 1.232.7064-.236 1.53-.325 2.4856-.179 4.7799.73 12.5199 3.32 15.8299 1.11.889-.512 1.933-.686 2.94-.49z" fill="#a140ff"/><path d="m102.39 94.95c2.712 0 4.91-2.1982 4.91-4.91 0-2.7117-2.198-4.91-4.91-4.91-2.7118 0-4.91 2.1983-4.91 4.91 0 2.7118 2.1982 4.91 4.91 4.91z" fill="#a140ff"/></svg>