<svg id="Layer_1" enable-background="new 0 0 192 240" height="512" viewBox="0 0 192 240" width="512" xmlns="http://www.w3.org/2000/svg"><path d="m140.2 49.2c-5.5 0-10.7-2.2-14.6-6-3.9-3.9-6-9.1-6-14.6v-28.6h-92.1c-3.5 0-7 .7-10.3 2-3.3 1.4-6.2 3.3-8.7 5.8s-4.5 5.5-5.8 8.7c-1.4 3.3-2 6.8-2 10.3v162.2c0 7.1 2.9 14 7.9 19s11.9 7.9 19 7.9h110.6c7.1 0 14-2.8 19-7.9 5-5 7.9-11.9 7.9-19v-139.8z" fill="#3cba32" opacity=".15"/><path d="m164.9 49.2h-24.8c-5.5 0-10.7-2.2-14.6-6-3.9-3.9-6-9.1-6-14.6v-28.6z" fill="#3cba32"/><path d="m175.5 170.6h-125c-8.9 0-16.1 7.2-16.1 16.1v37.3c0 8.9 7.2 16.1 16.1 16.1h125c8.9 0 16.1-7.2 16.1-16.1v-37.3c0-8.9-7.2-16.1-16.1-16.1z" fill="#3cba32"/><path d="m76.9 225c-3.9 0-6.8-.9-8.6-2.8-1.9-1.9-2.8-4.8-2.8-8.6v-11.7c0-3.9.9-6.8 2.8-8.7s4.7-2.8 8.6-2.8h6.2c3.2 0 5.6.7 7.3 2s2.7 3.4 2.9 6.2c.1.7 0 1.3-.4 1.6-.4.4-.9.6-1.6.6-1.3 0-2-.7-2.2-2.1-.2-1.6-.7-2.6-1.6-3.2-.9-.5-2.3-.8-4.3-.8h-6.2c-1.8 0-3.2.2-4.3.6-1 .4-1.8 1.2-2.2 2.2s-.6 2.5-.6 4.3v11.7c0 1.8.2 3.2.6 4.3.4 1 1.2 1.8 2.2 2.2s2.5.6 4.3.6h6.1c2 0 3.4-.3 4.3-.8.9-.6 1.5-1.6 1.6-3.2.2-1.4 1-2.1 2.2-2.1.7 0 1.3.2 1.6.6.4.4.5.9.4 1.6-.3 2.9-1.2 4.9-2.9 6.2s-4.1 2-7.3 2h-6.1z" fill="#fff"/><path d="m104.4 225c-1.4 0-2.1-.7-2.1-2.1v-30.3c0-1.4.7-2.1 2.1-2.1h12.3c4.4 0 7.7 1.1 9.8 3.2s3.2 5.4 3.2 9.8v8.7c0 4.4-1 7.7-3.1 9.8s-5.3 3.1-9.8 3.1h-12.4zm2.1-4.3h10.1c2.2 0 3.9-.3 5.2-.8s2.2-1.4 2.7-2.7.8-3 .8-5.2v-8.7c0-2.2-.3-3.9-.8-5.1-.5-1.3-1.4-2.2-2.7-2.7s-3-.8-5.2-.8h-10.1z" fill="#fff"/><path d="m161.2 225.1c-.6.4-1.1.5-1.6.3-.5-.1-.9-.5-1.3-1l-7.9-13.2h-7.1v11.6c0 1.4-.7 2.1-2.1 2.1s-2.1-.7-2.1-2.1v-30.3c0-1.4.7-2.1 2.1-2.1h11.9c3.1 0 5.5.8 7.1 2.5 1.7 1.6 2.5 4 2.5 7.1v1.5c0 2.7-.6 4.9-1.9 6.5s-3.1 2.6-5.5 3l6.7 11.1c.7 1.3.4 2.3-.8 3zm-17.9-18.2h9.8c1.9 0 3.3-.4 4.1-1.2s1.2-2.2 1.2-4.1v-1.5c0-1.9-.4-3.3-1.2-4.1s-2.2-1.2-4.1-1.2h-9.8z" fill="#fff"/><g fill="#3cba32"><path d="m71.5 63.3c1.3-.9 2.9-1.1 4.2-.2 5.2 3.5 16.9 18 0 76-.3.9-1.1 1.5-1.9 1.5-.9 0-1.7-.5-1.9-1.4-2.8-9.5-17.5-63.2-.4-75.9z"/><path d="m85.7 65.3c-1-.5-1.9.8-1.1 1.6 6.9 6.9 15.4 24.1-2.3 62.7-.5 1.1 1 2 1.7 1 11.5-17.1 30.1-52.1 1.7-65.3z"/><path d="m98.6 71c-.6-.5-1.4.3-.7.9 6.5 7.8 13.1 26.5-15.3 63.8-.1.1-.1.3.1.2 7.4-8.6 38.5-46.9 15.9-64.9z"/><path d="m61.8 65.3c1-.5 1.9.8 1.1 1.6-6.9 6.9-15.4 24.1 2.3 62.7.5 1.1-1 2-1.7 1-11.4-17.1-30.1-52.1-1.7-65.3z"/><path d="m48.9 71c.8-.6 1.4.4.7.9-6.6 8-13.1 26.9 16.8 65.3.3.3 0 .4-.2.2-3-3.3-41.8-46.9-17.3-66.4z"/><path d="m78.5 153c-.2.6-.8 1.1-1.4 1.1h-6.3c-.7 0-1.2-.4-1.4-1.1l-1.6-5.1c-.3-1 .4-1.9 1.4-1.9h9.5c1 0 1.7 1 1.4 1.9z"/></g></svg>