<svg fill="none" height="512" viewBox="0 0 201 241" width="512" xmlns="http://www.w3.org/2000/svg"><path d="m140.53 49.25c-5.47-.0053-10.714-2.1805-14.582-6.0482-3.867-3.8677-6.043-9.112-6.048-14.5818v-28.62h-92.13c-7.137 0-13.9817 2.83511-19.0283 7.88171-5.0466 5.04659-7.881593 11.89139-7.881593 19.02829v162.22c0 7.137 2.834993 13.982 7.881593 19.028 5.0466 5.047 11.8913 7.882 19.0283 7.882h110.6c7.137 0 13.982-2.835 19.028-7.882 5.047-5.046 7.882-11.891 7.882-19.028v-139.88z" fill="#a140ff" opacity=".15"/><path d="m165.28 49.25h-24.75c-5.47-.0053-10.714-2.1805-14.582-6.0482-3.867-3.8677-6.043-9.112-6.048-14.5818v-28.62z" fill="#a140ff"/><path d="m184.8 170.61h-125.04c-8.8697 0-16.06 7.19-16.06 16.06v37.28c0 8.87 7.1903 16.06 16.06 16.06h125.04c8.87 0 16.06-7.19 16.06-16.06v-37.28c0-8.87-7.19-16.06-16.06-16.06z" fill="#a140ff"/><path d="m83.4762 225c-1.428 0-2.142-.714-2.142-2.142v-30.294c0-1.428.714-2.142 2.142-2.142h12.291c4.4368 0 7.7008 1.054 9.7918 3.162 2.108 2.091 3.162 5.355 3.162 9.792v8.67c0 4.437-1.045 7.709-3.136 9.817-2.074 2.091-5.347 3.137-9.8178 3.137zm2.142-4.284h10.149c2.176 0 3.893-.264 5.1508-.791 1.275-.544 2.176-1.445 2.703-2.703.544-1.275.816-3 .816-5.176v-8.67c0-2.159-.272-3.868-.816-5.126-.527-1.275-1.428-2.184-2.703-2.728-1.2578-.544-2.9748-.816-5.1508-.816h-10.149z" fill="#fff"/><path d="m120.232 225c-1.428 0-2.142-.714-2.142-2.142v-30.294c0-1.428.714-2.142 2.142-2.142s2.142.714 2.142 2.142v28.152h14.127c1.428 0 2.142.714 2.142 2.142s-.714 2.142-2.142 2.142z" fill="#fff"/><path d="m147.824 225c-1.428 0-2.142-.714-2.142-2.142v-30.294c0-1.428.714-2.142 2.142-2.142s2.142.714 2.142 2.142v28.152h14.127c1.428 0 2.142.714 2.142 2.142s-.714 2.142-2.142 2.142z" fill="#fff"/><g fill="#a140ff"><path d="m69.24 159.4c-1.1404 0-2.2341-.453-3.0405-1.259-.8064-.807-1.2596-1.901-1.2596-3.041v-6.61c0-.564.1115-1.123.3277-1.644s.5329-.994.9324-1.393c.3994-.398.8736-.714 1.3952-.929.5217-.215 1.0806-.325 1.6448-.324 1.1378 0 2.2289.452 3.0334 1.257.8046.804 1.2566 1.895 1.2566 3.033v6.61c0 1.139-.4516 2.231-1.2558 3.037-.8043.806-1.8955 1.26-3.0342 1.263z"/><path d="m69.24 106.1c-.5642.001-1.1231-.109-1.6448-.324-.5216-.215-.9958-.53-1.3952-.929-.3995-.398-.7162-.872-.9324-1.393s-.3277-1.08-.3277-1.644v-7.69c0-1.1404.4532-2.2341 1.2596-3.0405s1.9001-1.2596 3.0405-1.2596c1.1387.0027 2.2299.457 3.0342 1.2631.8042.8061 1.2558 1.8983 1.2558 3.037v7.69c0 1.138-.452 2.229-1.2566 3.034-.8045.804-1.8956 1.256-3.0334 1.256z"/><path d="m84.49 155.32c-.7554-.001-1.4974-.2-2.1519-.577s-1.1986-.92-1.5781-1.573l-3.1999-5.56c-.5693-.987-.7238-2.159-.4295-3.26.2944-1.1 1.0134-2.039 1.9993-2.61.988-.568 2.1615-.721 3.2622-.425s2.0387 1.017 2.6079 2.005l3.21 5.55c.5684.988.7213 2.161.425 3.262s-1.0175 2.039-2.0051 2.608c-.6495.379-1.3878.579-2.1399.58z"/><path d="m57.9399 109.32c-.7558.001-1.4985-.197-2.1533-.574-.6549-.378-1.1988-.921-1.5767-1.576l-3.9299-6.82c-.283-.4875-.4668-1.0261-.541-1.5849-.0743-.5588-.0375-1.1268.1084-1.6713.1458-.5445.3978-1.0548.7414-1.5016.3437-.4468.7724-.8214 1.2613-1.1022.4882-.2832 1.0275-.4672 1.5871-.5416s1.1283-.0376 1.6736.1083c.5453.1458 1.0564.3979 1.5041.7417.4478.3438.8233.7725 1.105 1.2617l3.93 6.8199c.2832.488.4673 1.028.5417 1.587.0744.56.0375 1.129-.1084 1.674-.1458.545-.3977 1.056-.7414 1.504-.3438.448-.7726.823-1.2618 1.105-.6508.375-1.3891.571-2.1401.57z"/><path d="m95.65 144.15c-.7551-.002-1.4964-.202-2.1499-.58l-5.56-3.21c-.9853-.569-1.7041-1.506-1.9986-2.605-.2944-1.099-.1401-2.27.4287-3.255.5692-.988 1.5072-1.709 2.6079-2.005 1.1008-.296 2.274-.143 3.262.425l5.5601 3.21c.9859.571 1.7049 1.51 1.9992 2.61.2946 1.101.1401 2.273-.4292 3.26-.3755.654-.9175 1.198-1.5708 1.576-.6533.377-1.3948.575-2.1494.574z"/><path d="m49.6399 117.6c-.7517-.003-1.4893-.203-2.1399-.58l-6.8201-3.93c-.9859-.571-1.7049-1.51-1.9992-2.61-.2944-1.101-.1399-2.273.4294-3.26.5692-.988 1.5072-1.709 2.6079-2.005s2.274-.144 3.262.425l6.8201 3.94c.9859.571 1.7049 1.51 1.9992 2.61.2944 1.101.1401 2.273-.4292 3.26-.3779.654-.9218 1.198-1.5766 1.575-.6549.378-1.3978.576-2.1536.575z"/><path d="m99.73 128.91h-6.6199c-1.1396-.003-2.232-.457-3.0378-1.262-.8059-.806-1.2596-1.898-1.2622-3.038.0026-1.139.4568-2.23 1.2629-3.034s1.8984-1.256 3.0371-1.256h6.6199c1.139 0 2.231.452 3.037 1.256s1.26 1.895 1.263 3.034c-.003 1.14-.457 2.232-1.262 3.038-.806.805-1.898 1.259-3.038 1.262z"/><path d="m46.4299 128.91h-7.6799c-1.1396-.003-2.2318-.457-3.0376-1.262-.8058-.806-1.2598-1.898-1.2624-3.038.0026-1.139.4568-2.23 1.2629-3.034s1.8984-1.256 3.0371-1.256h7.6799c1.1378 0 2.2289.452 3.0335 1.257.8045.804 1.2566 1.895 1.2566 3.033 0 1.139-.4516 2.231-1.2559 3.037-.8042.806-1.8955 1.26-3.0342 1.263z"/><path d="m89.6201 117.14c-.7558.001-1.4987-.197-2.1535-.575-.6549-.377-1.1988-.92-1.5767-1.575-.2812-.489-.4633-1.028-.5361-1.586-.0728-.559-.0347-1.127.112-1.672.1468-.544.3993-1.054.7432-1.5.3439-.447.7723-.821 1.261-1.102l6-3.49c.988-.569 2.1615-.721 3.2622-.425s2.0387 1.017 2.6079 2.005c.5693.987.7239 2.159.4292 3.26-.2943 1.1-1.0133 2.039-1.9993 2.61l-6 3.48c-.6531.378-1.3952.575-2.1499.57z"/><path d="m42.8301 144.15c-.7542-.001-1.495-.2-2.148-.577-.6529-.377-1.1949-.92-1.572-1.573-.5693-.987-.7238-2.159-.4294-3.26.2943-1.1 1.0133-2.039 1.9992-2.61l6.3601-3.67c.9875-.567 2.159-.719 3.2588-.425s2.0384 1.011 2.6111 1.995c.5693.987.7238 2.159.4295 3.26-.2944 1.1-1.0134 2.039-1.9993 2.61l-6.3601 3.67c-.6535.378-1.3948.578-2.1499.58z"/><path d="m69.77 152.79h-.6899c-4.9148-.106-9.71-1.537-13.8801-4.14-4.1224-2.556-7.5017-6.149-9.8001-10.42-2.1483-4.022-3.2745-8.51-3.2798-13.07 0-.24 0-.46 0-.69.1183-4.699 1.4329-9.29 3.8198-13.34 2.3839-4.044 5.7561-7.416 9.8001-9.8 4.0664-2.3888 8.6751-3.7001 13.3899-3.81h.6301c4.5655-.0056 9.0606 1.125 13.0801 3.29 4.2678 2.291 7.8578 5.663 10.4099 9.78 2.609 4.19 4.0391 9.006 4.1399 13.94v.63c.001 4.774-1.2358 9.467-3.5899 13.62-2.4609 4.359-6.0634 7.965-10.4201 10.43-4.1515 2.348-8.8402 3.582-13.6099 3.58zm-.1101-46.69h-.27c-3.2632.066-6.4547.968-9.2698 2.62-2.7922 1.644-5.1216 3.97-6.77 6.76-1.6492 2.802-2.5547 5.979-2.6301 9.23v.44c.001 3.139.7737 6.23 2.25 9 1.5863 2.952 3.921 5.435 6.77 7.2 2.8847 1.79 6.1962 2.774 9.5901 2.85h.4399c3.2911.004 6.5267-.847 9.3899-2.47 3.0067-1.702 5.4927-4.191 7.1902-7.2 1.621-2.86 2.472-6.092 2.47-9.38v-.38c-.074-3.416-1.0579-6.751-2.8501-9.66-1.767-2.839-4.2457-5.166-7.19-6.75-2.808-1.492-5.9405-2.268-9.1201-2.26z"/><path d="m80.8001 108.87c-.7511.002-1.4894-.195-2.1402-.57-.4891-.282-.9179-.657-1.2617-1.105s-.5956-.959-.7415-1.504c-.1458-.545-.1827-1.114-.1084-1.674.0744-.559.2586-1.099.5418-1.587l3.6699-6.3699c.2817-.4892.6573-.9179 1.105-1.2617s.9588-.5959 1.5041-.7417c.5454-.1459 1.1141-.1827 1.6736-.1083.5596.0744 1.0989.2584 1.5872.5416.4887.2809.9173.6554 1.2612 1.102.3439.4465.5965.9565.7432 1.5007s.1848 1.112.112 1.6709-.2551 1.098-.5363 1.5864l-3.68 6.37c-.3779.655-.9218 1.198-1.5766 1.575-.6549.378-1.3975.576-2.1533.575z"/><path d="m54 155.32c-.7521-.001-1.4904-.201-2.1399-.58-.4892-.282-.9179-.657-1.2617-1.105s-.5959-.959-.7417-1.504c-.1459-.545-.1828-1.114-.1084-1.674.0744-.559.2585-1.099.5417-1.587l3.47-6c.2817-.489.6573-.918 1.105-1.262.4477-.343.9588-.596 1.5041-.741.5454-.146 1.1141-.183 1.6736-.109.5596.075 1.0989.259 1.5872.542.9859.571 1.7051 1.51 1.9995 2.61.2944 1.101.1399 2.273-.4294 3.26l-3.47 6c-.3779.655-.9216 1.198-1.5764 1.576-.6549.377-1.3978.575-2.1536.574z"/><path d="m108.84 100.66c-.695 0-1.361-.276-1.853-.7674-.491-.4913-.767-1.1577-.767-1.8525v-4c0-.3436.068-.6838.2-1.0011.131-.3174.325-.6056.568-.8481s.532-.4345.85-.565c.318-.1306.658-.1971 1.002-.1958.692 0 1.356.2749 1.846.7644.489.4894.764 1.1533.764 1.8456v4c.001.3435-.065.684-.196 1.0018-.13.3178-.322.6067-.565.8501-.242.243-.531.437-.848.568-.317.132-.657.2-1.001.2z"/><path d="m108.84 68.23c-.344.0013-.684-.0652-1.002-.1958s-.607-.3226-.85-.5651-.437-.5307-.568-.848c-.132-.3173-.2-.6575-.2-1.0011v-4.6801c0-.6948.276-1.3612.767-1.8525.492-.4913 1.158-.7675 1.853-.7675.344 0 .684.068 1.001.1998.317.1317.606.3249.848.5683.243.2434.435.5323.565.8501.131.3178.197.6583.196 1.0018v4.6801c0 .6922-.275 1.3561-.764 1.8456-.49.4894-1.154.7644-1.846.7644z"/><path d="m118.12 98.17c-.459.0012-.911-.1182-1.309-.3464s-.73-.557-.961-.9536l-1.95-3.38c-.342-.6075-.428-1.3257-.241-1.997.188-.6712.634-1.2405 1.241-1.583.3-.1689.631-.2772.972-.3183.342-.0412.689-.0145 1.02.0783.332.0929.642.2502.913.4629.27.2128.496.4769.665.7771l2 3.38c.169.3001.277.6303.318.9722.042.3418.015.6885-.078 1.02-.093.3316-.25.6417-.463.9124s-.477.4968-.777.6654c-.413.2249-.88.3322-1.35.31z"/><path d="m102 70.19c-.46-.0008-.912-.1222-1.31-.3521-.398-.2298-.7292-.5601-.96-.9578l-2.3899-4.1501c-.169-.3-.2772-.6304-.3184-.9723-.0412-.3418-.0145-.6884.0784-1.02.0929-.3315.2501-.6415.4629-.9122.2127-.2707.4769-.4968.7771-.6654.2997-.1703.63-.2795.9721-.3214.3422-.0419.6898-.0156 1.0208.0774.332.0929.642.2507.913.4642s.496.4786.664.7798l2.39 4.15c.169.3.277.6303.318.9722.042.3418.015.6884-.078 1.02s-.25.6416-.463.9124c-.213.2707-.477.4968-.777.6654-.4.2118-.847.3184-1.3.3099z"/><path d="m124.91 91.3801c-.46.0022-.912-.1186-1.31-.35l-3.38-2c-.3-.1686-.564-.3948-.777-.6655-.213-.2708-.37-.5807-.463-.9123-.093-.3315-.12-.6781-.078-1.02.041-.3418.149-.6723.318-.9723.168-.3012.393-.5661.664-.7797.27-.2135.581-.3713.913-.4643s.678-.1193 1.021-.0774c.342.0419.672.1511.972.3214l3.38 2c.301.1676.566.3934.78.664.213.2706.371.5808.464.9127s.119.6789.077 1.0211c-.041.3421-.151.6726-.321.9723-.223.4058-.549.7448-.947.9822-.397.2373-.85.3642-1.313.3678z"/><path d="m96.9199 75.22c-.4601.0022-.9122-.1186-1.3098-.35l-4.1501-2.39c-.3003-.1686-.5644-.3947-.7771-.6654-.2128-.2707-.3701-.5808-.4629-.9123-.0929-.3316-.1196-.6782-.0784-1.0201.0412-.3418.1494-.6721.3184-.9721.3424-.6071.9117-1.0534 1.583-1.2409.6712-.1875 1.3896-.1008 1.997.2409l4.1399 2.39c.607.3424 1.0535.9117 1.241 1.583.1875.6712.1007 1.3895-.241 1.9969-.2246.4033-.5519.7397-.949.9751-.397.2354-.8494.3613-1.311.3649z"/><path d="m127.39 82.11h-4c-.344 0-.684-.0678-1.001-.1996s-.605-.3249-.848-.5683c-.242-.2435-.435-.5324-.565-.8503-.131-.3178-.197-.6582-.196-1.0018 0-.6922.275-1.3561.764-1.8456.49-.4894 1.154-.7644 1.846-.7644h4c.344-.0013.684.0652 1.002.1958s.607.3226.85.5651.437.5307.568.848c.132.3173.2.6575.2 1.0011 0 .6949-.276 1.3613-.767 1.8527-.492.4913-1.158.7673-1.853.7673z"/><path d="m95 82.11h-4.6799c-.3436 0-.6839-.0678-1.0012-.1996s-.6054-.3249-.8479-.5684c-.2425-.2434-.4346-.5324-.5652-.8502s-.1971-.6582-.1958-1.0018c0-.3428.0675-.6821.1987-.9988.1312-.3166.3233-.6044.5657-.8468.2423-.2424.5302-.4345.8469-.5657.3167-.1311.656-.1987.9988-.1987h4.6799c.6922 0 1.356.2749 1.8455.7644.4894.4895.7646 1.1534.7646 1.8456.0013.3436-.0652.684-.1958 1.0018-.1305.3178-.3227.6068-.5652.8502-.2425.2435-.5305.4366-.8479.5684-.3173.1318-.6576.1996-1.0012.1996z"/><path d="m121.24 75c-.46-.0008-.912-.1222-1.31-.352-.398-.2299-.729-.5603-.96-.958-.169-.3001-.277-.6304-.318-.9722-.042-.3419-.015-.6885.078-1.02.093-.3316.25-.6417.463-.9124s.477-.4968.777-.6654l3.67-2.12c.3-.1689.63-.277.972-.3182s.689-.0146 1.02.0782c.332.0929.642.2503.913.463.27.2128.496.4768.665.777.17.2997.28.6302.321.9723.042.3421.016.6892-.077 1.0211s-.251.6421-.464.9127c-.214.2706-.479.4962-.78.6639l-3.67 2.12c-.4.2118-.847.3186-1.3.31z"/><path d="m92.77 91.3801c-.4588.0004-.9095-.1206-1.3064-.3506-.3969-.2301-.726-.5612-.9536-.9595-.1737-.2964-.2868-.6241-.333-.9645s-.0246-.6866.0637-1.0185c.0883-.332.2417-.6431.4509-.9154.2093-.2724.4704-.5007.7683-.6715l3.8702-2.23c.2997-.1703.63-.2796.9721-.3214.3422-.0419.6894-.0156 1.0213.0774.3319.0929.642.2507.9126.4642s.4962.4786.6638.7798c.1689.3.2772.6304.3183.9723.0412.3418.0146.6884-.0783 1.02-.0929.3315-.2501.6415-.4629.9122s-.4769.4968-.7771.6654l-3.8599 2.24c-.3914.2051-.8282.3083-1.27.3001z"/><path d="m109.16 96.64h-.43c-2.986-.065-5.898-.9357-8.43-2.52-2.5227-1.5489-4.5923-3.7358-5.9999-6.34-1.3155-2.4612-2.0025-5.2093-2-8v-.4301c.0727-2.8577.8746-5.6494 2.3298-8.1099 1.4554-2.4791 3.5209-4.5446 6.0001-6 2.475-1.453 5.28-2.2513 8.15-2.32h.38c2.791-.0087 5.541.6787 8 2 2.604 1.408 4.791 3.4775 6.34 6 1.58 2.5518 2.45 5.4793 2.52 8.48v.39c.002 2.9021-.749 5.755-2.18 8.2799-1.5 2.6549-3.695 4.8505-6.35 6.3501-2.536 1.4528-5.407 2.218-8.33 2.22zm-.07-28.4101h-.15c-1.989.0333-3.935.5811-5.65 1.59-1.701 1.0012-3.119 2.4191-4.1201 4.12-1.0021 1.7033-1.5527 3.6344-1.5998 5.6101v.2699c-.0011 1.9116.4694 3.7939 1.3698 5.4801.9655 1.7902 2.3821 3.2967 4.1101 4.37 1.757 1.0896 3.773 1.6903 5.84 1.74h.27c2.001.0013 3.968-.5155 5.71-1.5 1.83-1.0356 3.344-2.5497 4.38-4.38.982-1.743 1.499-3.7095 1.5-5.7101v-.24c-.045-2.0756-.642-4.1016-1.73-5.87-1.077-1.7284-2.587-3.1452-4.38-4.11-1.708-.9089-3.615-1.3796-5.55-1.37z"/><path d="m115.87 69.9101c-.457.0009-.905-.1199-1.3-.35-.3-.1686-.564-.3948-.777-.6656-.213-.2707-.37-.5806-.463-.9122-.093-.3315-.119-.6782-.078-1.02.041-.3419.149-.6723.318-.9723l2.24-3.87c.169-.3002.395-.5642.665-.777.271-.2127.581-.3701.913-.463.331-.0929.678-.1194 1.02-.0782s.672.1493.972.3182c.3.1686.564.3947.777.6654s.37.5808.463.9124c.093.3315.119.6781.078 1.02-.041.3418-.149.6721-.318.9722l-2.24 3.88c-.225.4054-.553.7434-.953.979-.399.2356-.853.3603-1.317.3611z"/><path d="m99.56 98.1701c-.4567.0009-.9055-.12-1.3-.3501-.3002-.1686-.5643-.3947-.7771-.6654-.2128-.2708-.37-.5807-.4629-.9123-.0929-.3315-.1195-.6781-.0784-1.02.0412-.3418.1494-.6723.3184-.9723l2.1101-3.66c.1686-.3002.3946-.5642.6649-.777.271-.2128.581-.3701.913-.463.331-.0929.678-.1194 1.02-.0783.342.0412.672.1493.972.3183.3.1686.564.3948.777.6655s.37.5807.463.9122c.093.3316.119.6782.078 1.0201-.041.3418-.149.6722-.318.9723l-2.11 3.6699c-.228.4026-.557.7384-.956.9736-.398.2352-.851.3616-1.314.3665z"/></g></svg>