<svg fill="none" height="512" viewBox="0 0 201 241" width="512" xmlns="http://www.w3.org/2000/svg"><g fill="#0072ff"><path d="m139.81 49.25c-5.467-.0053-10.709-2.1796-14.575-6.0454-3.866-3.8659-6.04-9.1076-6.045-14.5747v-28.62989814h-92.1299c-3.5348-.00131353-7.0352.69364414-10.3012 2.04540814-3.266 1.35177-6.2337 3.33381-8.73363 5.83277-2.49989 2.49892-4.48296 5.46592-5.83594 8.73142-1.352978 3.2655-2.049316 6.7656-2.049315 10.3003v162.2201c-.000001 3.535.696337 7.035 2.049315 10.3 1.35298 3.266 3.33605 6.233 5.83594 8.732 2.49993 2.499 5.46763 4.481 8.73363 5.832 3.266 1.352 6.7664 2.047 10.3012 2.046h110.5999c7.137 0 13.982-2.835 19.028-7.882 5.047-5.046 7.882-11.891 7.882-19.028v-139.88z" opacity=".15"/><path d="m164.57 49.25h-24.76c-5.467-.0053-10.709-2.1796-14.575-6.0454-3.866-3.8659-6.04-9.1076-6.045-14.5747v-28.6299z"/><path d="m130.74 83.73h-103.24c-.9919 0-1.9431-.3941-2.6445-1.0955s-1.0955-1.6526-1.0955-2.6445c-.0013-.492.0945-.9794.2819-1.4343.1873-.4549.4626-.8685.81-1.2168.3475-.3484.7601-.6247 1.2145-.8133.4544-.1885.9416-.2856 1.4336-.2856h103.24c.995 0 1.948.3951 2.652 1.0984.703.7032 1.098 1.657 1.098 2.6516-.003.9928-.399 1.9442-1.102 2.6453s-1.655 1.0947-2.648 1.0947z"/><path d="m130.74 106.1h-103.24c-.9919 0-1.9431-.394-2.6445-1.095-.7014-.702-1.0955-1.653-1.0955-2.645-.0013-.492.0945-.979.2819-1.434.1873-.455.4626-.869.81-1.217.3475-.3484.7601-.6247 1.2145-.8132.4544-.1886.9416-.2857 1.4336-.2857h103.24c.995 0 1.948.3949 2.652 1.0982.703.7037 1.098 1.6577 1.098 2.6517-.003.993-.399 1.944-1.102 2.645s-1.655 1.095-2.648 1.095z"/><path d="m130.74 128.47h-103.24c-.492 0-.9792-.097-1.4336-.286-.4544-.188-.867-.465-1.2145-.813-.3474-.348-.6227-.762-.81-1.217-.1874-.455-.2832-.942-.2819-1.434 0-.992.3941-1.943 1.0955-2.645.7014-.701 1.6526-1.095 2.6445-1.095h103.24c.993 0 1.945.394 2.648 1.095s1.099 1.652 1.102 2.645c0 .995-.395 1.948-1.098 2.652-.704.703-1.657 1.098-2.652 1.098z"/><path d="m90 150.84h-62.5c-.492 0-.9792-.097-1.4336-.286-.4544-.188-.867-.465-1.2145-.813-.3474-.348-.6227-.762-.81-1.217-.1874-.454-.2832-.942-.2819-1.434 0-.992.3941-1.943 1.0955-2.645.7014-.701 1.6526-1.095 2.6445-1.095h62.5c.9919 0 1.9432.394 2.6445 1.095.7014.702 1.0955 1.653 1.0955 2.645.0013.492-.0945.98-.2819 1.434-.1873.455-.4626.869-.81 1.217s-.7601.625-1.2145.813c-.4544.189-.9416.286-1.4336.286z"/><path d="m184.09 170.61h-125.04c-8.8697 0-16.06 7.19-16.06 16.06v37.28c0 8.87 7.1903 16.06 16.06 16.06h125.04c8.87 0 16.06-7.19 16.06-16.06v-37.28c0-8.87-7.19-16.06-16.06-16.06z"/></g><path d="m57.7981 225c-1.428 0-2.142-.714-2.142-2.142v-30.294c0-1.428.714-2.142 2.142-2.142h12.291c4.437 0 7.701 1.054 9.792 3.162 2.108 2.091 3.162 5.355 3.162 9.792v8.67c0 4.437-1.0455 7.71-3.1365 9.818-2.074 2.091-5.3465 3.136-9.8175 3.136zm2.142-4.284h10.149c2.176 0 3.893-.263 5.151-.79 1.275-.544 2.176-1.445 2.703-2.703.544-1.275.816-3.001.816-5.177v-8.67c0-2.159-.272-3.867-.816-5.125-.527-1.275-1.428-2.185-2.703-2.729-1.258-.544-2.975-.816-5.151-.816h-10.149z" fill="#fff"/><path d="m102.612 225c-3.8931 0-6.7746-.926-8.6446-2.779-1.853-1.87-2.7795-4.752-2.7795-8.645v-11.781c0-3.927.935-6.808 2.805-8.644 1.87-1.853 4.743-2.763 8.6191-2.729h6.12c3.91 0 6.791.927 8.644 2.779 1.853 1.854 2.78 4.735 2.78 8.645v11.73c0 3.893-.927 6.775-2.78 8.645-1.853 1.853-4.734 2.779-8.644 2.779zm0-4.284h6.12c1.819 0 3.247-.212 4.284-.637 1.037-.442 1.768-1.182 2.193-2.219.442-1.037.663-2.465.663-4.284v-11.73c0-1.802-.221-3.221-.663-4.258-.425-1.037-1.156-1.777-2.193-2.219s-2.465-.663-4.284-.663h-6.12c-1.802-.017-3.2216.187-4.2586.612s-1.7765 1.156-2.2185 2.193-.663 2.465-.663 4.284v11.781c0 1.819.2125 3.247.6375 4.284.442 1.037 1.1815 1.777 2.2185 2.219 1.037.425 2.4651.637 4.2841.637z" fill="#fff"/><path d="m139.716 225c-3.893 0-6.774-.926-8.644-2.779-1.853-1.87-2.78-4.752-2.78-8.645v-11.73c0-3.927.927-6.817 2.78-8.67 1.853-1.87 4.717-2.788 8.593-2.754h6.171c3.196 0 5.636.663 7.319 1.989 1.683 1.309 2.66 3.383 2.932 6.222.102.714-.034 1.258-.408 1.632s-.918.561-1.632.561c-1.292 0-2.04-.714-2.244-2.142-.17-1.564-.714-2.618-1.632-3.162-.901-.544-2.346-.816-4.335-.816h-6.171c-1.802-.017-3.221.187-4.258.612-1.02.425-1.751 1.165-2.193 2.219-.425 1.037-.638 2.473-.638 4.309v11.73c0 1.819.213 3.247.638 4.284.442 1.037 1.181 1.777 2.218 2.219 1.037.425 2.465.637 4.284.637h6.12c1.989 0 3.434-.272 4.335-.816.918-.561 1.462-1.615 1.632-3.162.204-1.428.952-2.142 2.244-2.142.714 0 1.258.187 1.632.561s.51.918.408 1.632c-.272 2.856-1.249 4.939-2.932 6.248s-4.123 1.963-7.319 1.963z" fill="#fff"/><path d="m164.109 224.541c-1.139-.782-1.309-1.785-.51-3.009l9.333-13.77-9.843-13.872c-.765-1.122-.578-2.125.561-3.009 1.173-.799 2.159-.612 2.958.561l9.129 12.801 9.18-12.801c.884-1.139 1.87-1.292 2.958-.459 1.156.85 1.326 1.836.51 2.958l-10.047 13.974 9.639 13.566c.799 1.173.612 2.193-.561 3.06-1.173.799-2.159.612-2.958-.561l-8.874-12.495-8.466 12.546c-.782 1.105-1.785 1.275-3.009.51z" fill="#fff"/></svg>