<svg fill="none" height="512" viewBox="0 0 192 240" width="512" xmlns="http://www.w3.org/2000/svg"><path d="m140.38 49.24c-5.467-.0053-10.709-2.1794-14.575-6.0453s-6.04-9.1076-6.045-14.5747v-28.62h-92.13c-3.5352 0-7.0358.696338-10.3019 2.04919-3.2661 1.35286-6.2336 3.3357-8.73337 5.83545-2.49976 2.49976-4.48272 5.46746-5.83557 8.73356-1.35286 3.266-2.049199 6.7667-2.049199 10.3018v162.21c0 3.535.696339 7.036 2.049199 10.302 1.35285 3.266 3.33581 6.234 5.83557 8.733 2.49977 2.5 5.46727 4.483 8.73337 5.836s6.7667 2.049 10.3019 2.049h110.6c3.535 0 7.035-.696 10.3-2.049 3.266-1.353 6.233-3.336 8.732-5.836s4.481-5.468 5.832-8.734c1.352-3.266 2.047-6.766 2.046-10.301v-139.88z" fill="#ff9908" opacity=".15"/><path d="m165.09 49.24h-24.76c-5.467-.0053-10.709-2.1794-14.575-6.0453s-6.04-9.1076-6.045-14.5747v-28.62z" fill="#ff9908"/><path d="m175.66 170.6h-125.04c-8.8697 0-16.0599 7.19-16.0599 16.06v37.28c0 8.87 7.1902 16.06 16.0599 16.06h125.04c8.87 0 16.06-7.19 16.06-16.06v-37.28c0-8.87-7.19-16.06-16.06-16.06z" fill="#ff9908"/><path d="m71.7868 225c-1.428 0-2.142-.714-2.142-2.142v-30.294c0-1.428.714-2.142 2.142-2.142h18.309c1.428 0 2.142.714 2.142 2.142s-.714 2.142-2.142 2.142h-16.167v10.71h10.149c1.428 0 2.142.714 2.142 2.142s-.714 2.142-2.142 2.142h-10.149v11.016h16.167c1.428 0 2.142.714 2.142 2.142s-.714 2.142-2.142 2.142z" fill="#fff"/><path d="m102.516 225c-1.428 0-2.142-.714-2.142-2.142v-30.294c0-1.428.714-2.142 2.142-2.142h11.934c3.111 0 5.491.833 7.14 2.499 1.666 1.649 2.499 4.029 2.499 7.14v1.53c0 3.111-.833 5.499-2.499 7.165-1.649 1.649-4.029 2.474-7.14 2.474h-9.792v11.628c0 1.428-.714 2.142-2.142 2.142zm2.142-18.054h9.792c1.938 0 3.315-.408 4.131-1.224s1.224-2.193 1.224-4.131v-1.53c0-1.921-.408-3.29-1.224-4.106-.816-.833-2.193-1.249-4.131-1.249h-9.792z" fill="#fff"/><path d="m140.296 225c-2.907 0-5.176-.587-6.808-1.76-1.615-1.173-2.627-2.983-3.035-5.431-.068-.748.085-1.309.459-1.683s.918-.561 1.632-.561 1.233.17 1.556.51c.34.34.569.867.688 1.581.255 1.173.799 1.98 1.632 2.422.85.425 2.142.638 3.876.638h7.344c2.193 0 3.681-.391 4.463-1.173.799-.799 1.198-2.278 1.198-4.437 0-2.193-.408-3.689-1.224-4.488-.816-.816-2.295-1.224-4.437-1.224h-6.324c-3.213 0-5.601-.782-7.165-2.346-1.547-1.581-2.321-3.978-2.321-7.191 0-3.196.765-5.568 2.295-7.115 1.547-1.547 3.927-2.32 7.14-2.32h6.069c2.703 0 4.82.552 6.35 1.657 1.547 1.105 2.524 2.797 2.932 5.075.102.731-.034 1.292-.408 1.683-.374.374-.935.561-1.683.561-.68 0-1.19-.179-1.53-.536s-.561-.875-.663-1.555c-.272-1.003-.79-1.683-1.555-2.04-.765-.374-1.913-.561-3.443-.561h-6.069c-2.04 0-3.408.365-4.105 1.096-.697.714-1.046 2.066-1.046 4.055 0 2.006.357 3.383 1.071 4.131s2.091 1.122 4.131 1.122h6.324c3.349 0 5.84.816 7.472 2.448 1.649 1.632 2.473 4.148 2.473 7.548 0 3.383-.816 5.882-2.448 7.497-1.632 1.598-4.131 2.397-7.497 2.397z" fill="#fff"/><g fill="#ff9908"><path d="m114.74 127.73h-2.49c-.013-10.092-4.029-19.766-11.166-26.901-7.1366-7.1354-16.8121-11.1484-26.9039-11.159-10.0909.0106-19.7656 4.0239-26.9009 11.159-7.1354 7.136-11.1486 16.81-11.1592 26.901h-2.49c.0132-10.75 4.2898-21.057 11.8915-28.6586 7.6017-7.6017 17.9081-11.8781 28.6586-11.8913 10.7522.0105 21.061 4.2858 28.6649 11.8878 7.604 7.6021 11.882 17.9101 11.895 28.6621z"/><path d="m131.81 87.1801h-115.26v2.4899h115.26z"/><path d="m36.86 123.75h-3.97c-1.1046 0-2 .895-2 2v3.97c0 1.105.8954 2 2 2h3.97c1.1046 0 2-.895 2-2v-3.97c0-1.105-.8954-2-2-2z"/><path d="m115.48 123.75h-3.97c-1.105 0-2 .895-2 2v3.97c0 1.105.895 2 2 2h3.97c1.105 0 2-.895 2-2v-3.97c0-1.105-.895-2-2-2z"/><path d="m76.17 84.3101h-3.97c-1.1046 0-2 .8954-2 2v3.9699c0 1.1046.8954 2 2 2h3.97c1.1046 0 2-.8954 2-2v-3.9699c0-1.1046-.8954-2-2-2z"/><path d="m16.42 92.29c2.2037 0 3.99-1.7863 3.99-3.99 0-2.2036-1.7863-3.9899-3.99-3.9899-2.2036 0-3.9899 1.7863-3.9899 3.9899 0 2.2037 1.7863 3.99 3.9899 3.99z"/><path d="m131.43 92.29c2.204 0 3.99-1.7863 3.99-3.99 0-2.2036-1.786-3.9899-3.99-3.9899s-3.99 1.7863-3.99 3.9899c0 2.2037 1.786 3.99 3.99 3.99z"/></g></svg>