<svg fill="none" height="512" viewBox="0 0 201 241" width="512" xmlns="http://www.w3.org/2000/svg"><path d="m140 49.25c-5.47-.0053-10.714-2.1805-14.582-6.0482s-6.043-9.112-6.048-14.5818v-28.62h-92.17c-7.137 0-13.9816 2.83511-19.02825 7.88171-5.0466 5.04659-7.881711 11.89139-7.881711 19.02829v162.22c.010598 7.13 2.850421 13.964 7.895871 19.002 5.04549 5.038 11.88399 7.868 19.01409 7.868h110.6c7.137 0 13.982-2.835 19.028-7.882 5.047-5.046 7.882-11.891 7.882-19.028v-139.88z" fill="#0072ff" opacity=".15"/><path d="m164.71 49.25h-24.71c-5.47-.0053-10.714-2.1805-14.582-6.0482s-6.043-9.112-6.048-14.5818v-28.62z" fill="#0072ff"/><path d="m184.23 170.61h-125.0401c-8.8697 0-16.0599 7.19-16.0599 16.06v37.28c0 8.87 7.1902 16.06 16.0599 16.06h125.0401c8.87 0 16.06-7.19 16.06-16.06v-37.28c0-8.87-7.19-16.06-16.06-16.06z" fill="#0072ff"/><path d="m81.7541 225c-1.428 0-2.142-.714-2.142-2.142v-30.294c0-1.428.714-2.142 2.142-2.142h18.3089c1.428 0 2.142.714 2.142 2.142s-.714 2.142-2.142 2.142h-16.1669v10.71h10.149c1.428 0 2.142.714 2.142 2.142s-.714 2.142-2.142 2.142h-10.149v11.016h16.1669c1.428 0 2.142.714 2.142 2.142s-.714 2.142-2.142 2.142z" fill="#fff"/><path d="m109.424 224.541c-1.139-.782-1.309-1.785-.51-3.009l9.333-13.77-9.843-13.872c-.765-1.122-.578-2.125.561-3.009 1.173-.799 2.159-.612 2.958.561l9.129 12.801 9.18-12.801c.884-1.139 1.87-1.292 2.958-.459 1.156.85 1.326 1.836.51 2.958l-10.047 13.974 9.639 13.566c.799 1.173.612 2.193-.561 3.06-1.173.799-2.159.612-2.958-.561l-8.874-12.495-8.466 12.546c-.782 1.105-1.785 1.275-3.009.51z" fill="#fff"/><path d="m144.408 225c-1.428 0-2.142-.714-2.142-2.142v-30.294c0-1.428.714-2.142 2.142-2.142h18.309c1.428 0 2.142.714 2.142 2.142s-.714 2.142-2.142 2.142h-16.167v10.71h10.149c1.428 0 2.142.714 2.142 2.142s-.714 2.142-2.142 2.142h-10.149v11.016h16.167c1.428 0 2.142.714 2.142 2.142s-.714 2.142-2.142 2.142z" fill="#fff"/><g fill="#0072ff"><path d="m82.5 147.71c-1.1404 0-2.2341-.453-3.0405-1.259-.8064-.807-1.2595-1.901-1.2595-3.041v-6.61c-.0001-.564.1112-1.123.3275-1.644.2162-.521.5332-.995.9326-1.393.3994-.399.8735-.714 1.3951-.929.5217-.215 1.0806-.325 1.6448-.324 1.1378 0 2.2289.452 3.0334 1.256.8046.805 1.2566 1.896 1.2566 3.034v6.61c0 1.139-.4517 2.231-1.2559 3.037-.8043.806-1.8954 1.26-3.0341 1.263z"/><path d="m82.5 94.42c-1.1404 0-2.2341-.4531-3.0405-1.2595s-1.2595-1.9001-1.2595-3.0405v-7.6899c0-1.1405.4531-2.2343 1.2595-3.0407s1.9001-1.2594 3.0405-1.2594c1.1387.0027 2.2298.4568 3.0341 1.2629.8042.8062 1.2559 1.8985 1.2559 3.0372v7.6899c0 1.1387-.4517 2.2309-1.2559 3.037-.8043.8061-1.8954 1.2604-3.0341 1.263z"/><path d="m97.7499 143.63c-.7558.001-1.4986-.197-2.1534-.575-.6548-.377-1.1986-.92-1.5765-1.575l-3.2001-5.56c-.5688-.985-.7229-2.156-.4285-3.255s1.0133-2.036 1.9986-2.605c.4882-.283 1.0277-.467 1.5872-.542.5596-.074 1.1283-.037 1.6736.109.5453.145 1.0564.398 1.5042.741.4477.344.8232.773 1.105 1.262l3.2 5.55c.569.987.724 2.159.429 3.26-.294 1.1-1.013 2.039-1.999 2.61-.6506.377-1.3884.577-2.1401.58z"/><path d="m71.1999 97.63c-.7558.0011-1.4986-.1971-2.1534-.5746-.6549-.3774-1.1987-.9208-1.5766-1.5754l-3.9399-6.8099c-.5685-.9881-.7215-2.1614-.4252-3.2621.2963-1.1008 1.0175-2.0388 2.0051-2.6079.9868-.5693 2.1592-.7238 3.2598-.4295 1.1006.2944 2.0394 1.0135 2.6102 1.9994l3.9301 6.8199c.5693.9869.7237 2.1594.4293 3.2599-.2944 1.1006-1.0135 2.0394-1.9994 2.6103-.6511.374-1.3891.5705-2.14.5699z"/><path d="m108.9 132.46c-.751.001-1.489-.196-2.14-.57l-5.56-3.21c-.986-.571-1.7049-1.51-1.9993-2.61-.2943-1.101-.14-2.273.4293-3.26.569-.988 1.507-1.709 2.608-2.005s2.274-.144 3.262.425l5.56 3.21c.986.571 1.705 1.51 1.999 2.61.295 1.101.14 2.273-.429 3.26-.378.655-.922 1.198-1.576 1.575-.655.378-1.398.576-2.154.575z"/><path d="m62.9001 105.91c-.7519-.002-1.49-.202-2.1401-.58l-6.82-3.93c-.9859-.571-1.7049-1.5096-1.9993-2.6102-.2943-1.1005-.14-2.2729.4293-3.2597.2817-.4892.6573-.918 1.105-1.2617.4477-.3438.9588-.5959 1.5042-.7417.5453-.1459 1.114-.1827 1.6735-.1083.5596.0743 1.099.2584 1.5873.5416l6.8201 3.9301c.9839.5727 1.7012 1.5114 1.9954 2.6109.2941 1.1.1412 2.272-.4255 3.259-.3779.655-.9216 1.198-1.5765 1.575-.6548.378-1.3976.576-2.1534.575z"/><path d="m113 117.22h-6.62c-1.14 0-2.234-.453-3.041-1.259-.806-.807-1.259-1.901-1.259-3.041.003-1.139.457-2.23 1.263-3.034s1.898-1.256 3.037-1.256h6.62c1.139 0 2.231.452 3.037 1.256s1.26 1.895 1.263 3.034c0 1.14-.453 2.234-1.259 3.041-.807.806-1.901 1.259-3.041 1.259z"/><path d="m59.6801 117.22h-7.6801c-1.1404 0-2.2341-.453-3.0405-1.259-.8064-.807-1.2595-1.901-1.2595-3.041.0026-1.139.4569-2.23 1.263-3.034s1.8983-1.256 3.037-1.256h7.67c.5643-.001 1.1232.109 1.6448.324.5217.215.9957.53 1.3952.929.3994.398.7162.872.9325 1.393.2162.521.3275 1.08.3275 1.644.0013.564-.1086 1.123-.3236 1.645-.215.521-.5309.996-.9294 1.395s-.8719.716-1.393.932c-.5212.217-1.0797.328-1.6439.328z"/><path d="m102.88 105.45c-.755.001-1.496-.196-2.151-.572-.655-.375-1.1991-.916-1.579-1.568-.5685-.988-.7215-2.161-.4252-3.262.2963-1.1007 1.0175-2.0388 2.0052-2.608l6-3.48c.987-.5693 2.159-.7237 3.26-.4293 1.1.2943 2.039 1.0134 2.61 1.9994.569.9868.724 2.1592.429 3.2597-.294 1.1006-1.013 2.0392-1.999 2.6102l-6 3.48c-.654.377-1.396.573-2.15.57z"/><path d="m56.09 132.46c-.7545.001-1.496-.197-2.1493-.574-.6533-.378-1.1952-.921-1.5707-1.576-.5693-.987-.7236-2.159-.4293-3.26.2944-1.1 1.0134-2.039 1.9993-2.61l6.3601-3.67c.9874-.567 2.1589-.72 3.2587-.425 1.0997.294 2.0386 1.011 2.6113 1.995.5685.988.7213 2.161.425 3.262-.2962 1.101-1.0175 2.039-2.0051 2.608l-6.35 3.67c-.6516.383-1.3943.583-2.15.58z"/><path d="m83 141.11h-.6899c-4.9149-.115-9.7087-1.548-13.88-4.15-4.1224-2.556-7.5017-6.149-9.8001-10.42-2.1483-4.022-3.2747-8.51-3.28-13.07 0-.23 0-.46 0-.69.1182-4.699 1.4331-9.291 3.82-13.34 2.3839-4.0441 5.7559-7.4161 9.8-9.8 4.0664-2.3887 8.6752-3.7002 13.39-3.81h.63c4.5653-.0049 9.0602 1.1258 13.0799 3.29 4.2681 2.2905 7.8581 5.6634 10.4101 9.78 2.605 4.191 4.035 9.006 4.14 13.94v.63c.001 4.774-1.236 9.467-3.59 13.62-2.461 4.359-6.063 7.965-10.42 10.43-4.1507 2.352-8.8395 3.588-13.61 3.59zm-.11-46.7h-.27c-3.267.071-6.4616.9764-9.28 2.6301-2.7869 1.6435-5.1124 3.9659-6.76 6.7499-1.6313 2.8-2.5194 5.97-2.58 9.21v.44c-.0021 3.141.7744 6.233 2.26 9 1.5824 2.952 3.9138 5.435 6.76 7.2 2.8876 1.791 6.2027 2.776 9.6 2.85h.4401c3.2911.004 6.5266-.847 9.3899-2.47 3.0066-1.702 5.4925-4.191 7.19-7.2 1.621-2.86 2.472-6.092 2.47-9.38v-.38c-.074-3.417-1.062-6.753-2.86-9.66-1.7594-2.839-4.236-5.1633-7.1801-6.74-2.814-1.5027-5.9598-2.2763-9.1499-2.25z"/><path d="m94.0601 97.1801c-.7512.0029-1.4898-.1938-2.14-.5701-.4892-.2817-.918-.6571-1.2617-1.1048-.3438-.4478-.5959-.959-.7417-1.5043-.1459-.5453-.1827-1.114-.1083-1.6736s.2584-1.099.5416-1.5873l3.6701-6.37c.2817-.4891.6571-.9179 1.1048-1.2617s.959-.5958 1.5043-.7417c.5453-.1458 1.114-.1826 1.6736-.1083.5595.0744 1.099.2586 1.5873.5418.4889.2817.9179.6571 1.2619 1.1048.344.4478.595.959.741 1.5043s.183 1.114.109 1.6736c-.075.5596-.259 1.099-.542 1.5873l-3.6699 6.36c-.3779.6545-.9217 1.198-1.5766 1.5754-.6548.3775-1.3976.5757-2.1534.5746z"/><path d="m67.2499 143.63c-.752-.001-1.4905-.201-2.14-.58-.9876-.569-1.7088-1.507-2.0051-2.608s-.1433-2.274.4252-3.262l3.48-6c.5708-.986 1.5096-1.705 2.6102-1.999 1.1006-.295 2.2729-.14 3.2598.429.9859.571 1.705 1.51 1.9993 2.61.2944 1.101.1399 2.273-.4294 3.26l-3.47 6c-.3779.655-.9217 1.198-1.5765 1.575-.6549.378-1.3976.576-2.1535.575z"/></g></svg>