<svg fill="none" height="512" viewBox="0 0 201 240" width="512" xmlns="http://www.w3.org/2000/svg"><g fill="#ff3e4c"><path d="m120.3 131.91v-47.71c-.003-.2316-.026-.4626-.07-.69.006-.0665.006-.1335 0-.2 0-.16-.09-.31-.14-.46l-.09-.2c-.065-.1463-.142-.2868-.23-.42l-.09-.16c-.129-.1788-.269-.3491-.42-.51l-.07-.06c-.136-.1283-.28-.2484-.43-.36l-.18-.11c-.13-.08-.27-.15-.41-.22l-.2-.09c-.16-.0605-.324-.1105-.49-.15h-.16c-.223-.0485-.452-.072-.68-.07h-67.3601c-.9257.0847-1.7864.5121-2.4135 1.1984-.6271.6862-.9755 1.582-.9766 2.5116v.17 47.68c-.0198.613.1747 1.214.5501 1.7.3304.554.7989 1.013 1.3598 1.332s1.1949.487 1.8401.488h67.0002c.966-.02 1.886-.414 2.569-1.098.682-.684 1.073-1.606 1.091-2.572zm-68.49-42.43c-1.1046 0-2-.8955-2-2v-3.24c0-1.1046.8954-2 2-2h1.8899c1.1045 0 2 .8954 2 2v3.24c0 1.1045-.8955 2-2 2zm9.9399 0c-1.1046 0-2-.8955-2-2v-3.24c0-1.1046.8954-2 2-2h1.8899c1.1046 0 2 .8954 2 2v3.24c0 1.1045-.8954 2-2 2zm9.94 0c-1.1046 0-2-.8955-2-2v-3.24c0-1.1046.8954-2 2-2h1.8901c1.1046 0 2 .8954 2 2v3.24c0 1.1045-.8954 2-2 2zm9.9399 0c-1.1046 0-2-.8955-2-2v-3.24c0-1.1046.8954-2 2-2h1.8901c1.1046 0 2 .8954 2 2v3.24c0 1.1045-.8954 2-2 2zm9.9402 0c-1.1046 0-2-.8955-2-2v-3.24c0-1.1046.8954-2 2-2h1.8899c1.1045 0 2 .8954 2 2v3.24c0 1.1045-.8955 2-2 2zm9.94 0c-1.105 0-2.0001-.8955-2.0001-2v-3.24c0-1.1046.8951-2 2.0001-2h1.89c1.104 0 2 .8954 2 2v3.24c0 1.1045-.896 2-2 2zm9.94 0c-1.105 0-2-.8955-2-2v-3.24c0-1.1046.895-2 2-2h1.89c1.105 0 2 .8954 2 2v3.24c0 1.1045-.895 2-2 2zm-61.0001 35.11c-1.1046 0-2-.895-2-2v-29.15c0-1.1046.8954-2 2-2h65.2201c1.104 0 2 .8954 2 2v29.15c0 1.105-.896 2-2 2zm1.3501 9.19c-1.1046 0-2-.895-2-2v-3.24c0-1.105.8954-2 2-2h1.8899c1.1045 0 2 .895 2 2v3.24c0 1.105-.8955 2-2 2zm9.9399 0c-1.1046 0-2-.895-2-2v-3.24c0-1.105.8954-2 2-2h1.8899c1.1046 0 2 .895 2 2v3.24c0 1.105-.8954 2-2 2zm9.9399 0c-1.1045 0-2-.895-2-2v-3.24c0-1.105.8955-2 2-2h1.8902c1.1046 0 2 .895 2 2v3.24c0 1.105-.8954 2-2 2zm9.9402 0c-1.1045 0-2-.895-2-2v-3.24c0-1.105.8955-2 2-2h1.8899c1.1046 0 2 .895 2 2v3.24c0 1.105-.8954 2-2 2zm9.94 0c-1.1046 0-2-.895-2-2v-3.24c0-1.105.8954-2 2-2h1.8899c1.1045 0 2 .895 2 2v3.24c0 1.105-.8955 2-2 2zm9.94 0c-1.105 0-2.0001-.895-2.0001-2v-3.24c0-1.105.8951-2 2.0001-2h1.89c1.104 0 2 .895 2 2v3.24c0 1.105-.896 2-2 2zm9.94 0c-1.105 0-2-.895-2-2v-3.24c0-1.105.895-2 2-2h1.89c1.105 0 2 .895 2 2v3.24c0 1.105-.895 2-2 2z"/><path d="m140.38 49.24c-5.467-.0053-10.709-2.1794-14.575-6.0453s-6.04-9.1076-6.045-14.5747v-28.61999814h-92.13c-3.5347-.00131353-7.0351.69376614-10.3011 2.04552814-3.2661 1.35177-6.2337 3.33375-8.73356 5.83271-2.49989 2.49896-4.48296 5.46596-5.83594 8.73146s-2.049439 6.7656-2.049439 10.3003v162.22c.0106 7.132 2.851799 13.968 7.899419 19.006s11.88882 7.867 19.02062 7.864h110.6c3.534 0 7.033-.696 10.298-2.048 3.265-1.353 6.231-3.335 8.73-5.834s4.481-5.465 5.834-8.73c1.352-3.265 2.048-6.764 2.048-10.298v-139.85z" opacity=".15"/><path d="m165.14 49.24h-24.76c-5.467-.0053-10.709-2.1794-14.575-6.0453s-6.04-9.1076-6.045-14.5747v-28.62z"/><path d="m184.66 170.6h-125.04c-8.8697 0-16.0599 7.19-16.0599 16.06v37.28c0 8.87 7.1902 16.06 16.0599 16.06h125.04c8.87 0 16.06-7.19 16.06-16.06v-37.28c0-8.87-7.19-16.06-16.06-16.06z"/></g><path d="m86.8879 225c-1.4281 0-2.1421-.714-2.1421-2.142v-30.294c0-1.428.714-2.142 2.1421-2.142h18.7681c.663 0 1.181.196 1.555.587.391.374.587.892.587 1.555 0 1.428-.714 2.142-2.142 2.142h-16.6261v10.71h10.251c1.4281 0 2.1421.714 2.1421 2.142s-.714 2.142-2.1421 2.142h-10.251v13.158c0 1.428-.7141 2.142-2.142 2.142z" fill="#fff"/><path d="m115.227 225c-1.428 0-2.142-.714-2.142-2.142v-30.294c0-1.428.714-2.142 2.142-2.142s2.142.714 2.142 2.142v28.152h14.127c1.428 0 2.142.714 2.142 2.142s-.714 2.142-2.142 2.142z" fill="#fff"/><path d="m147.954 225c-.884 0-1.581-.561-2.091-1.683l-12.597-29.835c-.255-.595-.323-1.122-.204-1.581.119-.476.51-.867 1.173-1.173 1.394-.697 2.38-.34 2.958 1.071l11.908 28.203h-1.479l11.603-28.203c.561-1.394 1.547-1.751 2.958-1.071.595.306.96.697 1.096 1.173.153.459.111.986-.127 1.581l-12.699 29.835c-.527 1.122-1.292 1.683-2.295 1.683z" fill="#fff"/><path d="m90.9399 105.56-9.5699-5.53c-.4953-.286-1.0572-.4366-1.6292-.4367-.5719-.0002-1.1339.1501-1.6293.4357-.4955.286-.9072.697-1.1935 1.192-.2864.495-.4375 1.057-.438 1.629v11.06c.0005.572.1516 1.134.438 1.629.2863.495.698.906 1.1935 1.192.4954.286 1.0574.436 1.6293.436.572 0 1.1339-.151 1.6292-.437l9.5699-5.53c.4941-.287.9043-.698 1.1894-1.193s.4352-1.056.4352-1.627-.1501-1.132-.4352-1.627-.6953-.906-1.1894-1.193z" fill="#ff3e4c"/></svg>