<svg fill="none" height="512" viewBox="0 0 201 241" width="512" xmlns="http://www.w3.org/2000/svg"><path d="m139.81 49.24c-5.467-.0053-10.709-2.1794-14.575-6.0453s-6.04-9.1076-6.045-14.5747v-28.61999814h-92.1299c-3.5348-.00131353-7.0352.69376614-10.3012 2.04552814-3.266 1.35177-6.2337 3.33375-8.73363 5.83271-2.49989 2.49896-4.48296 5.46596-5.83594 8.73146-1.352978 3.2655-2.049316 6.7656-2.049315 10.3003v162.22c.0106 7.132 2.851795 13.968 7.899415 19.006 5.04757 5.038 11.88887 7.867 19.02067 7.864h110.5999c7.137 0 13.982-2.835 19.028-7.882 5.047-5.046 7.882-11.891 7.882-19.028v-139.85z" fill="#ff9908" opacity=".15"/><path d="m164.57 49.24h-24.76c-5.467-.0053-10.709-2.1794-14.575-6.0453s-6.04-9.1076-6.045-14.5747v-28.62z" fill="#ff9908"/><path d="m184.09 171h-125.04c-8.8697 0-16.06 7.19-16.06 16.06v37.28c0 8.87 7.1903 16.06 16.06 16.06h125.04c8.87 0 16.06-7.19 16.06-16.06v-37.28c0-8.87-7.19-16.06-16.06-16.06z" fill="#ff9908"/><path d="m97.5836 225c-3.893 0-6.7745-.926-8.6445-2.779-1.853-1.87-2.7795-4.752-2.7795-8.645v-11.73c0-3.927.9265-6.817 2.7795-8.67 1.853-1.87 4.7175-2.788 8.5935-2.754h6.1714c3.196 0 5.635.663 7.318 1.989 1.683 1.309 2.661 3.383 2.933 6.222.102.714-.034 1.258-.408 1.632s-.918.561-1.632.561c-1.292 0-2.04-.714-2.244-2.142-.17-1.564-.714-2.618-1.632-3.162-.901-.544-2.346-.816-4.335-.816h-6.1714c-1.802-.017-3.2215.187-4.2585.612-1.02.425-1.751 1.165-2.193 2.219-.425 1.037-.6375 2.473-.6375 4.309v11.73c0 1.819.2125 3.247.6375 4.284.442 1.037 1.1815 1.777 2.2185 2.219 1.037.425 2.465.637 4.284.637h6.1204c1.581 0 2.813-.17 3.697-.51.901-.357 1.53-.977 1.887-1.861s.536-2.134.536-3.749v-2.397l-3.978-.051c-1.428 0-2.142-.714-2.142-2.142s.714-2.142 2.142-2.142l6.12.051c1.428 0 2.142.714 2.142 2.142v4.539c0 3.621-.842 6.265-2.525 7.931-1.683 1.649-4.309 2.473-7.879 2.473z" fill="#fff"/><path d="m125.136 225c-.731 0-1.275-.17-1.632-.51-.34-.357-.51-.901-.51-1.632v-30.243c0-.748.17-1.292.51-1.632.357-.34.901-.51 1.632-.51.748 0 1.292.17 1.632.51s.51.884.51 1.632v30.243c0 .731-.17 1.275-.51 1.632-.34.34-.884.51-1.632.51z" fill="#fff"/><path d="m140.028 225c-1.428 0-2.142-.714-2.142-2.142v-30.294c0-1.428.714-2.142 2.142-2.142h18.768c.663 0 1.181.196 1.555.587.391.374.587.892.587 1.555 0 1.428-.714 2.142-2.142 2.142h-16.626v10.71h10.251c1.428 0 2.142.714 2.142 2.142s-.714 2.142-2.142 2.142h-10.251v13.158c0 1.428-.714 2.142-2.142 2.142z" fill="#fff"/><g fill="#ff9908"><path d="m77.78 154.43c-10.9096-.013-21.3686-4.353-29.0829-12.067-7.7142-7.714-12.0539-18.173-12.0671-29.083.0132-10.91 4.3529-21.3686 12.0671-29.0829 7.7143-7.7142 18.1733-12.0539 29.0829-12.0671 10.9096.0132 21.3685 4.3529 29.083 12.0671 7.714 7.7143 12.054 18.1729 12.067 29.0829-.013 10.91-4.353 21.369-12.067 29.083-7.7145 7.714-18.1734 12.054-29.083 12.067zm0-75.09c-8.9965.0159-17.6201 3.5968-23.9817 9.9583-6.3615 6.3616-9.9425 14.9847-9.9583 23.9817.0158 8.997 3.5968 17.62 9.9583 23.982 6.3616 6.361 14.9852 9.942 23.9817 9.958 8.9966-.016 17.6202-3.597 23.982-9.958 6.361-6.362 9.942-14.985 9.958-23.982-.016-8.997-3.597-17.6201-9.958-23.9817-6.3618-6.3615-14.9854-9.9424-23.982-9.9583z"/><path d="m77.78 136.34c-4.7022.007-9.3333-1.148-13.4818-3.362-3.0837-1.646-5.8298-3.838-8.1092-6.462-1.307-1.504-.8441-3.763.8139-4.868 1.6557-1.104 3.8731-.631 5.2407.815 1.5747 1.664 3.4126 3.07 5.4473 4.157 3.098 1.656 6.5566 2.521 10.0691 2.52 3.5138.002 6.9736-.864 10.0719-2.522 2.0345-1.088 3.8717-2.495 5.4453-4.161 1.3671-1.447 3.5858-1.922 5.2424-.817 1.6574 1.104 2.1204 3.361.8151 4.865-2.2746 2.622-5.0151 4.814-8.093 6.46-4.1412 2.216-8.7651 3.375-13.4617 3.375z"/><path d="m66.3701 106.97c2.6454 0 4.7899-2.145 4.7899-4.79 0-2.6454-2.1445-4.79-4.7899-4.79-2.6455 0-4.79 2.1446-4.79 4.79 0 2.645 2.1445 4.79 4.79 4.79z"/><path d="m89.19 106.97c2.6454 0 4.79-2.145 4.79-4.79 0-2.6454-2.1446-4.79-4.79-4.79s-4.79 2.1446-4.79 4.79c0 2.645 2.1446 4.79 4.79 4.79z"/></g></svg>