<svg fill="none" height="512" viewBox="0 0 201 241" width="512" xmlns="http://www.w3.org/2000/svg"><path d="m140.38 49.25c-5.468-.0079-10.71-2.1843-14.575-6.0518-3.866-3.8674-6.04-9.1101-6.045-14.5782v-28.61999814h-92.13c-3.5347-.00131353-7.0351.69376614-10.3011 2.04552814-3.2661 1.35177-6.2337 3.33369-8.73356 5.83265-2.49989 2.49892-4.48296 5.46592-5.83594 8.73142s-2.049439 6.7657-2.049439 10.3004v162.22c0 3.535.696459 7.035 2.049439 10.3 1.35298 3.266 3.33605 6.233 5.83594 8.732 2.49986 2.499 5.46746 4.481 8.73356 5.833 3.266 1.351 6.7664 2.046 10.3011 2.045h110.6c3.534 0 7.033-.696 10.298-2.048 3.265-1.353 6.231-3.335 8.73-5.834s4.481-5.465 5.834-8.73c1.352-3.265 2.048-6.764 2.048-10.298v-139.88z" fill="#0072ff" opacity=".15"/><path d="m165.14 49.25h-24.76c-5.468-.0079-10.71-2.1843-14.575-6.0518-3.866-3.8674-6.04-9.1101-6.045-14.5782v-28.62z" fill="#0072ff"/><path d="m184.66 170.61h-125.04c-8.8697 0-16.0599 7.19-16.0599 16.06v37.28c0 8.87 7.1902 16.06 16.0599 16.06h125.04c8.87 0 16.06-7.19 16.06-16.06v-37.28c0-8.87-7.19-16.06-16.06-16.06z" fill="#0072ff"/><path d="m85.7921 225c-.731 0-1.275-.17-1.632-.51-.34-.357-.51-.901-.51-1.632v-30.243c0-.748.17-1.292.51-1.632.357-.34.901-.51 1.632-.51.748 0 1.292.17 1.632.51s.51.884.51 1.632v30.243c0 .731-.17 1.275-.51 1.632-.34.34-.884.51-1.632.51z" fill="#fff"/><path d="m107.186 225c-2.907 0-5.176-.586-6.808-1.759-1.6153-1.173-2.6268-2.984-3.0348-5.432-.068-.748.085-1.309.459-1.683s.918-.561 1.632-.561c.7138 0 1.2328.17 1.5558.51.34.34.569.867.688 1.581.255 1.173.799 1.981 1.632 2.423.85.425 2.142.637 3.876.637h7.344c2.193 0 3.681-.391 4.463-1.173.799-.799 1.198-2.278 1.198-4.437 0-2.193-.408-3.689-1.224-4.488-.816-.816-2.295-1.224-4.437-1.224h-6.324c-3.213 0-5.601-.782-7.165-2.346-1.5473-1.581-2.3208-3.978-2.3208-7.191 0-3.196.765-5.567 2.2948-7.115 1.547-1.546 3.927-2.32 7.14-2.32h6.069c2.703 0 4.82.553 6.35 1.658 1.547 1.105 2.524 2.796 2.932 5.074.102.731-.034 1.292-.408 1.683-.374.374-.935.561-1.683.561-.68 0-1.19-.179-1.53-.536-.34-.356-.561-.875-.663-1.555-.272-1.003-.79-1.683-1.555-2.04-.765-.374-1.913-.561-3.443-.561h-6.069c-2.04 0-3.408.366-4.105 1.096-.697.715-1.046 2.066-1.046 4.055 0 2.006.357 3.383 1.071 4.131s2.091 1.122 4.131 1.122h6.324c3.349 0 5.84.816 7.472 2.448 1.649 1.632 2.473 4.148 2.473 7.548 0 3.383-.816 5.882-2.448 7.497-1.632 1.598-4.131 2.397-7.497 2.397z" fill="#fff"/><path d="m144.053 225c-3.893 0-6.774-.926-8.644-2.779-1.853-1.87-2.78-4.752-2.78-8.645v-11.781c0-3.927.935-6.808 2.805-8.644 1.87-1.853 4.743-2.763 8.619-2.729h6.12c3.91 0 6.792.927 8.645 2.779 1.853 1.854 2.779 4.735 2.779 8.645v11.73c0 3.893-.926 6.775-2.779 8.645-1.853 1.853-4.735 2.779-8.645 2.779zm0-4.284h6.12c1.819 0 3.247-.212 4.284-.637 1.037-.442 1.768-1.182 2.193-2.219.442-1.037.663-2.465.663-4.284v-11.73c0-1.802-.221-3.221-.663-4.258-.425-1.037-1.156-1.777-2.193-2.219s-2.465-.663-4.284-.663h-6.12c-1.802-.017-3.221.187-4.258.612s-1.777 1.156-2.219 2.193-.663 2.465-.663 4.284v11.781c0 1.819.213 3.247.638 4.284.442 1.037 1.181 1.777 2.218 2.219 1.037.425 2.465.637 4.284.637z" fill="#fff"/><g fill="#0072ff"><path d="m79.21 145.6c-9.4279-.011-18.4665-3.761-25.133-10.427-6.6665-6.667-10.4164-15.705-10.427-25.133.0106-9.428 3.7605-18.4665 10.427-25.133s15.7051-10.4164 25.133-10.427c9.4278.0106 18.4665 3.7605 25.133 10.427 6.667 6.6665 10.416 15.705 10.427 25.133-.011 9.428-3.76 18.466-10.427 25.133-6.6665 6.666-15.7052 10.416-25.133 10.427zm0-69c-8.8558.0079-17.3466 3.5294-23.6086 9.7914s-9.7834 14.7526-9.7913 23.6086c.0105 8.855 3.5328 17.344 9.7943 23.606 6.2614 6.261 14.7506 9.783 23.6056 9.794 8.8549-.011 17.3443-3.533 23.606-9.794 6.261-6.262 9.783-14.751 9.794-23.606-.019-8.849-3.545-17.3294-9.806-23.5828-6.2604-6.2533-14.7452-9.7693-23.594-9.7772z"/><path d="m79.26 75.37v28.28c-1.693.003-3.3158.677-4.5119 1.875-1.1962 1.198-1.8681 2.822-1.8681 4.515.0004 1.112.2898 2.204.84 3.17l-24.37 14.07-.5399-1c-2.6952-5.024-4.1039-10.638-4.1001-16.34 0-.28 0-.54 0-.8.1221-5.907 1.765-11.6829 4.77-16.77 2.99-5.0565 7.2111-9.2741 12.27-12.26 5.0859-2.9992 10.857-4.6417 16.76-4.77z"/><path d="m113.86 110c.004 5.959-1.539 11.817-4.48 17-3.084 5.463-7.6 9.981-13.0601 13.07-4.9077 2.797-10.4256 4.336-16.0622 4.488-.5512.014-.9977-.434-.9977-.986v-26.161c0-.549.4448-.987.986-1.077 1.3157-.218 2.5392-.845 3.4902-1.803 1.1851-1.195 1.8512-2.808 1.8538-4.491.0036-.791-.1428-1.572-.4282-2.303-.2024-.518-.0488-1.134.4328-1.412l22.7694-13.1549c.479-.2762 1.091-.1133 1.354.3725 2.596 4.8066 4.015 10.1664 4.132 15.6374.01.26.01.52.01.82z"/><path d="m79.21 114.4c-1.1564 0-2.2653-.459-3.0829-1.277-.8177-.818-1.2771-1.927-1.2771-3.083 0-1.157.4591-2.267 1.2765-3.087.8173-.819 1.9262-1.28 3.0835-1.283 1.1572.003 2.2662.464 3.0836 1.283.8174.82 1.2763 1.93 1.2763 3.087 0 1.156-.4593 2.265-1.2769 3.083-.8177.818-1.9267 1.277-3.083 1.277zm0-6.56c-.5835 0-1.143.232-1.5556.644-.4126.413-.6444.973-.6444 1.556.0026.583.2352 1.141.6472 1.553s.9701.644 1.5528.647c.5826-.003 1.1407-.235 1.5527-.647s.6447-.97.6473-1.553c0-.289-.0569-.575-.1674-.842-.1106-.267-.2727-.509-.477-.714-.2043-.204-.4468-.366-.7137-.477-.2669-.11-.553-.167-.8419-.167z"/></g></svg>