<svg fill="none" height="512" viewBox="0 0 201 240" width="512" xmlns="http://www.w3.org/2000/svg"><path d="m140 49.24c-5.468-.0053-10.711-2.1791-14.578-6.0447-3.868-3.8656-6.044-9.1072-6.052-14.5753v-28.62h-92.17c-7.137 0-13.9816 2.83514-19.02825 7.88174-5.0466 5.04656-7.881711 11.89126-7.881711 19.02826v162.22c.010598 7.13 2.850421 13.964 7.895871 19.002 5.04549 5.038 11.88399 7.868 19.01409 7.868h110.6c7.137 0 13.982-2.835 19.028-7.882 5.047-5.046 7.882-11.891 7.882-19.028v-139.85z" fill="#ff3e4c" opacity=".15"/><path d="m164.71 49.24h-24.71c-5.468-.0053-10.711-2.1791-14.578-6.0447-3.868-3.8656-6.044-9.1072-6.052-14.5753v-28.62z" fill="#ff3e4c"/><path d="m184.23 170.6h-125.0401c-8.8697 0-16.0599 7.19-16.0599 16.06v37.28c0 8.87 7.1902 16.06 16.0599 16.06h125.0401c8.87 0 16.06-7.19 16.06-16.06v-37.28c0-8.87-7.19-16.06-16.06-16.06z" fill="#ff3e4c"/><path d="m68.3646 225c-3.179 0-5.6185-.654-7.3185-1.963-1.683-1.326-2.6775-3.392-2.9835-6.197-.068-.714.085-1.266.459-1.657s.918-.587 1.632-.587c1.309 0 2.04.714 2.193 2.142.204 1.547.7565 2.601 1.6575 3.162.901.544 2.3545.816 4.3605.816h4.233c1.581 0 2.8135-.178 3.6975-.535.901-.357 1.53-.978 1.887-1.862s.5355-2.125.5355-3.723v-22.032c0-1.428.714-2.142 2.142-2.142s2.142.714 2.142 2.142v22.032c0 3.587-.8415 6.222-2.5245 7.905-1.683 1.666-4.3095 2.499-7.8795 2.499z" fill="#fff"/><path d="m91.7262 224.796c-1.36-.527-1.768-1.462-1.224-2.805l12.1378-29.886c.51-1.122 1.309-1.683 2.397-1.683h.102c1.105.051 1.853.612 2.244 1.683l12.342 29.886c.544 1.343.153 2.278-1.173 2.805-1.343.527-2.278.136-2.805-1.173l-2.754-6.681h-15.8863l-2.6265 6.681c-.527 1.326-1.445 1.717-2.754 1.173zm7.0635-12.138h12.4443l-6.35-15.453z" fill="#fff"/><path d="m136.644 225c-.884 0-1.581-.561-2.091-1.683l-12.597-29.835c-.255-.595-.323-1.122-.204-1.581.119-.476.51-.867 1.173-1.173 1.394-.697 2.38-.34 2.958 1.071l11.909 28.203h-1.479l11.602-28.203c.561-1.394 1.547-1.751 2.958-1.071.595.306.961.697 1.097 1.173.153.459.11.986-.128 1.581l-12.699 29.835c-.527 1.122-1.292 1.683-2.295 1.683z" fill="#fff"/><path d="m155.377 224.796c-1.36-.527-1.768-1.462-1.224-2.805l12.138-29.886c.51-1.122 1.309-1.683 2.397-1.683h.102c1.105.051 1.853.612 2.244 1.683l12.342 29.886c.544 1.343.153 2.278-1.173 2.805-1.343.527-2.278.136-2.805-1.173l-2.754-6.681h-15.887l-2.626 6.681c-.527 1.326-1.445 1.717-2.754 1.173zm7.063-12.138h12.444l-6.349-15.453z" fill="#fff"/><g fill="#ff3e4c"><path d="m67.4 151.93c0 1.22-.9895 2.21-2.2101 2.21-5.1 0-9.1632-1.497-12.1899-4.49s-4.5367-7.037-4.53-12.13v-16.32c0-4.421-1.2466-7.276-3.7397-8.565-1.8791-.971-3.7103-2.51-3.7103-4.625 0-2.115 1.8312-3.654 3.7103-4.625 2.4931-1.289 3.7397-4.144 3.7397-8.5651v-16.32c0-5.1 1.51-9.1467 4.53-12.14s7.0833-4.4867 12.1899-4.48c1.2206 0 2.2101.9895 2.2101 2.2101v3.9399c0 .834-.676 1.51-1.51 1.51-6 0-9 3.39-9 10.17v16.72c-.0723 5.9171-2.343 9.6891-6.812 11.3131-.1116.041-.188.147-.188.265 0 .121.0783.227.1919.267 4.3745 1.521 6.6438 5.193 6.8081 11.015v17c0 6.78 3 10.17 9 10.17.834 0 1.51.676 1.51 1.51z"/><path d="m99.8101 154.16c-1.2294-.011-2.2201-1.011-2.2201-2.24v-3.93c0-.834.676-1.51 1.51-1.51 6 0 9-3.39 9-10.17v-17c.131-5.829 2.4-9.501 6.807-11.016.114-.039.193-.146.193-.267 0-.118-.076-.223-.187-.265-4.45-1.65-6.721-5.421-6.813-11.3121v-16.72c0-6.78-3-10.17-9-10.17-.834 0-1.51-.676-1.51-1.51v-3.9299c0-1.2261.9939-2.2201 2.2201-2.2201 5.0999 0 9.1599 1.4933 12.1799 4.48s4.533 7.0333 4.54 12.14v16.32c0 4.4211 1.247 7.2761 3.74 8.5651 1.879.971 3.71 2.51 3.71 4.625 0 2.115-1.831 3.654-3.71 4.625-2.493 1.289-3.74 4.144-3.74 8.565v16.32c0 5.1-1.513 9.143-4.54 12.13s-7.087 4.483-12.1799 4.49z"/><path d="m81.67 86.1699c3.6617 0 6.63-2.9682 6.63-6.6299 0-3.6616-2.9683-6.6301-6.63-6.6301-3.6616 0-6.63 2.9685-6.63 6.6301 0 3.6617 2.9684 6.6299 6.63 6.6299z"/><path d="m81.67 114.64c3.6617 0 6.63-2.968 6.63-6.63s-2.9683-6.63-6.63-6.63c-3.6616 0-6.63 2.968-6.63 6.63s2.9684 6.63 6.63 6.63z"/><path d="m81.67 143.11c3.6617 0 6.63-2.968 6.63-6.63s-2.9683-6.63-6.63-6.63c-3.6616 0-6.63 2.968-6.63 6.63s2.9684 6.63 6.63 6.63z"/></g></svg>