<svg fill="none" height="512" viewBox="0 0 201 240" width="512" xmlns="http://www.w3.org/2000/svg"><g fill="#00c650"><path d="m140.1 49.24c-5.468-.0027-10.711-2.1759-14.578-6.0424-3.866-3.8664-6.039-9.1097-6.042-14.5776v-28.62h-92.1399c-3.5347-.00000024-7.0348.696337-10.3003 2.04932-3.2655 1.35298-6.2327 3.33605-8.73169 5.83593-2.49896 2.49985-4.48076 5.46765-5.83252 8.73365-1.35177 3.266-2.04697 6.7664-2.045657 10.3011v162.21c-.001313 3.535.693887 7.035 2.045657 10.301 1.35176 3.266 3.33356 6.234 5.83252 8.734 2.49899 2.5 5.46619 4.483 8.73169 5.836s6.7656 2.049 10.3003 2.049h110.5999c3.535 0 7.035-.696 10.3-2.049 3.266-1.353 6.233-3.336 8.732-5.836s4.481-5.468 5.832-8.734c1.352-3.266 2.047-6.766 2.046-10.301v-139.88z" opacity=".15"/><path d="m164.85 49.24h-24.75c-5.468-.0027-10.711-2.1759-14.578-6.0424-3.866-3.8664-6.039-9.1097-6.042-14.5776v-28.62z"/><path d="m184.37 170.6h-125.0399c-8.8697 0-16.0601 7.19-16.0601 16.06v37.28c0 8.87 7.1904 16.06 16.0601 16.06h125.0399c8.87 0 16.06-7.19 16.06-16.06v-37.28c0-8.87-7.19-16.06-16.06-16.06z"/></g><path d="m85.2293 225c-3.179 0-5.6185-.654-7.3185-1.963-1.683-1.326-2.6775-3.392-2.9835-6.197-.068-.714.085-1.266.459-1.657s.918-.587 1.632-.587c1.309 0 2.04.714 2.193 2.142.204 1.547.7565 2.601 1.6575 3.162.901.544 2.3545.816 4.3605.816h4.233c1.581 0 2.8135-.178 3.6975-.535.901-.357 1.53-.978 1.887-1.862s.5355-2.125.5355-3.723v-22.032c0-1.428.714-2.142 2.142-2.142s2.142.714 2.142 2.142v22.032c0 3.587-.8415 6.222-2.5245 7.905-1.683 1.666-4.3095 2.499-7.8795 2.499z" fill="#fff"/><path d="m112.365 225c-1.428 0-2.142-.714-2.142-2.142v-30.294c0-1.428.714-2.142 2.142-2.142h11.934c3.111 0 5.491.833 7.14 2.499 1.666 1.649 2.499 4.029 2.499 7.14v1.53c0 3.111-.833 5.5-2.499 7.166-1.649 1.649-4.029 2.473-7.14 2.473h-9.792v11.628c0 1.428-.714 2.142-2.142 2.142zm2.142-18.054h9.792c1.938 0 3.315-.408 4.131-1.224s1.224-2.193 1.224-4.131v-1.53c0-1.921-.408-3.289-1.224-4.105-.816-.833-2.193-1.25-4.131-1.25h-9.792z" fill="#fff"/><path d="m151.7 225c-3.893 0-6.774-.926-8.644-2.779-1.853-1.87-2.78-4.752-2.78-8.645v-11.73c0-3.927.927-6.817 2.78-8.67 1.853-1.87 4.717-2.788 8.593-2.754h6.171c3.196 0 5.636.663 7.319 1.989 1.683 1.309 2.66 3.383 2.932 6.222.102.714-.034 1.258-.408 1.632s-.918.561-1.632.561c-1.292 0-2.04-.714-2.244-2.142-.17-1.564-.714-2.618-1.632-3.162-.901-.544-2.346-.816-4.335-.816h-6.171c-1.802-.017-3.221.187-4.258.612-1.02.425-1.751 1.165-2.193 2.219-.425 1.037-.638 2.473-.638 4.309v11.73c0 1.819.213 3.247.638 4.284.442 1.037 1.181 1.777 2.218 2.219 1.037.425 2.465.637 4.284.637h6.12c1.581 0 2.814-.17 3.698-.51.901-.357 1.53-.977 1.887-1.861s.535-2.134.535-3.749v-2.397l-3.978-.051c-1.428 0-2.142-.714-2.142-2.142s.714-2.142 2.142-2.142l6.12.051c1.428 0 2.142.714 2.142 2.142v4.539c0 3.621-.841 6.265-2.524 7.931-1.683 1.649-4.31 2.473-7.88 2.473z" fill="#fff"/><path clip-rule="evenodd" d="m60.5601 146.41h44.1699c4.323-.005 8.467-1.726 11.523-4.784 3.056-3.057 4.774-7.203 4.777-11.526v-44.1699c-.003-4.3232-1.721-8.4687-4.777-11.5265-3.056-3.0579-7.2-4.7783-11.523-4.7836h-44.1699c-4.3241.0053-8.4696 1.7254-11.5271 4.783-3.0576 3.0575-4.7777 7.203-4.783 11.5271v44.1699c.0053 4.324 1.7254 8.47 4.783 11.527 3.0575 3.058 7.203 4.778 11.5271 4.783zm-6.4319-66.9117c1.706-1.706 4.0192-2.6657 6.4319-2.6683h44.1699c2.412.0026 4.724.9626 6.428 2.6689 1.705 1.7063 2.662 4.0194 2.662 6.4312v35.2979c0 .799-.475 1.542-1.261 1.686-2.716.496-6.585-.334-10.034-1.074-1.395-.299-2.7213-.584-3.8751-.76-.9555-.146-1.7791-.057-2.4854.179-1.8117.605-5.2319.545-5.9325-1.232l-2.2721-5.763c-.5207-1.321-2.2129-1.694-3.2405-.714l-5.02 4.784c-.5663.54-1.3954.697-2.1273.421-9.3516-3.526-17.4771-4.144-23.8465-3.618-1.204.099-2.2656-.83-2.2656-2.039v-27.1679c.0026-2.4127.9622-4.7258 2.6682-6.4318z" fill="#00c650" fill-rule="evenodd"/><path d="m101.96 94.95c2.712 0 4.91-2.1982 4.91-4.91 0-2.7117-2.198-4.91-4.91-4.91-2.7118 0-4.91 2.1983-4.91 4.91 0 2.7118 2.1982 4.91 4.91 4.91z" fill="#00c650"/></svg>