<svg fill="none" height="512" viewBox="0 0 200 241" width="512" xmlns="http://www.w3.org/2000/svg"><g fill="#a140ff"><path d="m139.67 49.25c-5.468-.0079-10.71-2.1843-14.575-6.0518-3.866-3.8674-6.04-9.1101-6.045-14.5782v-28.62h-92.14c-7.137 0-13.9816 2.83511-19.02824 7.88171-5.0466 5.04659-7.88176 11.89139-7.88176 19.02829v162.22c.0105984 7.13 2.85043 13.964 7.89589 19.002 5.04541 5.038 11.88411 7.868 19.01411 7.868h110.6c3.535.001 7.035-.694 10.301-2.046 3.266-1.351 6.234-3.333 8.734-5.832s4.483-5.466 5.836-8.732c1.353-3.265 2.049-6.765 2.049-10.3v-139.88z" opacity=".15"/><path d="m164.43 49.25h-24.76c-5.468-.0079-10.71-2.1843-14.575-6.0518-3.866-3.8674-6.04-9.1101-6.045-14.5782v-28.62z"/><path d="m183.94 170.61h-125.04c-8.8697 0-16.06 7.19-16.06 16.06v37.28c0 8.87 7.1903 16.06 16.06 16.06h125.04c8.87 0 16.06-7.19 16.06-16.06v-37.28c0-8.87-7.19-16.06-16.06-16.06z"/></g><path d="m71.569 225c-1.428 0-2.142-.714-2.142-2.142v-30.294c0-1.428.714-2.142 2.142-2.142.935 0 1.717.459 2.346 1.377l12.036 18.105-.918.153 12.138-18.258c.578-.918 1.445-1.377 2.6011-1.377 1.1559 0 1.7339.714 1.7339 2.142v30.294c0 1.428-.714 2.142-2.142 2.142-1.4279 0-2.142-.714-2.142-2.142v-26.01l1.326.459-10.71 15.759c-.629.918-1.496 1.377-2.601 1.377-.765 0-1.462-.459-2.091-1.377l-10.71-15.759 1.275.357v25.194c0 1.428-.714 2.142-2.142 2.142z" fill="#fff"/><path d="m114.252 225c-1.428 0-2.142-.714-2.142-2.142v-30.294c0-1.428.714-2.142 2.142-2.142h12.291c4.437 0 7.701 1.054 9.792 3.162 2.108 2.091 3.162 5.355 3.162 9.792v8.67c0 4.437-1.046 7.709-3.137 9.817-2.074 2.091-5.346 3.137-9.817 3.137zm2.142-4.284h10.149c2.176 0 3.893-.264 5.151-.791 1.275-.544 2.176-1.445 2.703-2.703.544-1.275.816-3 .816-5.176v-8.67c0-2.159-.272-3.868-.816-5.126-.527-1.275-1.428-2.184-2.703-2.728-1.258-.544-2.975-.816-5.151-.816h-10.149z" fill="#fff"/><path d="m151.008 225c-1.428 0-2.142-.714-2.142-2.142v-30.294c0-1.428.714-2.142 2.142-2.142h13.311c2.703 0 4.777.714 6.222 2.142 1.462 1.428 2.193 3.468 2.193 6.12v1.377c0 2.295-.723 4.071-2.168 5.329 2.703 1.513 4.055 4.276 4.055 8.288v1.734c0 3.128-.833 5.508-2.499 7.14-1.649 1.632-4.029 2.448-7.14 2.448zm2.142-4.284h11.832c1.921 0 3.289-.408 4.105-1.224.833-.833 1.25-2.193 1.25-4.08v-1.734c0-1.887-.4-3.23-1.199-4.029-.799-.816-2.184-1.224-4.156-1.224h-11.832zm0-16.575h12.087c1.241 0 2.082-.383 2.524-1.148.459-.765.689-1.742.689-2.932v-1.377c0-1.479-.306-2.508-.918-3.086-.612-.595-1.683-.892-3.213-.892h-11.169z" fill="#fff"/><path d="m82.21 67.9301c-2.425 0-4.8263.4778-7.0667 1.4061-2.2403.9283-4.2757 2.2889-5.99 4.0041-1.7143 1.7153-3.0739 3.7515-4.001 5.9923-.9271 2.2409-1.4036 4.6424-1.4023 7.0674-.0008 3.7616 1.1481 7.4336 3.2929 10.5238 1.6144 2.3262 3.735 4.2392 6.1881 5.6032 1.4592.812 2.519 2.27 2.519 3.94v1.719c0 .905.3597 1.774 1 2.414.6403.64 1 1.509 1 2.414v3.893c0 .677-.3599 1.302-.945 1.643-.5851.341-.945.966-.945 1.643v2.544c0 .677.3599 1.302.945 1.643.5851.341.945.967.945 1.643v.808c0 .804-.4288 1.547-1.125 1.949-.6962.402-1.125 1.145-1.125 1.949v1.299c0 .806.4285 1.551 1.125 1.957.6965.406 1.125 1.151 1.125 1.957v1.942c0 .74-.3944 1.425-1.035 1.796-.6406.371-1.035 1.056-1.035 1.796v.682c0 .999.4578 1.943 1.2423 2.561l3.1886 2.513c.7055.556 1.5776.858 2.4758.858h2.4461c1.352 0 2.6124-.683 3.3508-1.815l.8272-1.269c.4236-.65.6492-1.409.6492-2.185v-37.055c0-1.569.9394-2.96 2.2637-3.802 2.248-1.428 4.1696-3.3307 5.6229-5.5866 1.9205-2.9808 2.9424-6.4515 2.9434-9.9974-.005-4.8968-1.955-9.5911-5.4203-13.0509-3.4654-3.4598-8.1629-5.4017-13.0597-5.399zm.47 14.975c0 .0138-.0112.025-.025.0249-1.2322-.0066-2.4125-.499-3.2843-1.3708-.8776-.8777-1.3707-2.068-1.3707-3.3092.0027-1.2395.4969-2.4273 1.3743-3.3029.8774-.8755 2.0662-1.3671 3.3057-1.3671.6141-.0014 1.2225.1185 1.7902.3526.5678.2341 1.0837.5778 1.5184 1.0116.4348.4338.7797.9491 1.015 1.5164.2353.5672.3564 1.1753.3564 1.7894-.0106 1.2334-.5086 2.4125-1.3854 3.2799-.8709.8616-2.0452 1.3462-3.2695 1.3501-.0139 0-.0251.0112-.0251.0251z" fill="#a140ff"/></svg>