<svg fill="none" height="512" viewBox="0 0 201 240" width="512" xmlns="http://www.w3.org/2000/svg"><g fill="#0072ff"><path d="m140.1 49.24c-5.467-.0053-10.709-2.1794-14.575-6.0453-3.865-3.8659-6.04-9.1076-6.045-14.5747v-28.62h-92.1399c-7.137 0-13.9817 2.83517-19.02833 7.88177-5.04661 5.04663-7.881838 11.89123-7.881838 19.02823v162.22c.010598 7.13 2.850538 13.964 7.895998 19.002 5.04547 5.038 11.88407 7.868 19.01417 7.868h110.5999c3.534.001 7.034-.694 10.3-2.046 3.265-1.352 6.232-3.334 8.731-5.833s4.481-5.466 5.833-8.731c1.352-3.266 2.047-6.766 2.046-10.3v-139.85z" opacity=".15"/><path d="m164.85 49.24h-24.75c-5.467-.0053-10.709-2.1794-14.575-6.0453-3.865-3.8659-6.04-9.1076-6.045-14.5747v-28.62z"/><path d="m184.37 170.6h-125.0399c-8.8697 0-16.0601 7.19-16.0601 16.06v37.28c0 8.87 7.1904 16.06 16.0601 16.06h125.0399c8.87 0 16.06-7.19 16.06-16.06v-37.28c0-8.87-7.19-16.06-16.06-16.06z"/></g><path d="m73.6647 225c-1.428 0-2.142-.714-2.142-2.142v-30.294c0-1.428.714-2.142 2.142-2.142.935 0 1.717.459 2.346 1.377l12.036 18.105-.918.153 12.138-18.258c.578-.918 1.4453-1.377 2.6013-1.377s1.734.714 1.734 2.142v30.294c0 1.428-.714 2.142-2.142 2.142s-2.1423-.714-2.1423-2.142v-26.01l1.3263.459-10.7103 15.759c-.629.918-1.496 1.377-2.601 1.377-.765 0-1.462-.459-2.091-1.377l-10.71-15.759 1.275.357v25.194c0 1.428-.714 2.142-2.142 2.142z" fill="#fff"/><path d="m124.405 225c-3.893 0-6.774-.926-8.644-2.779-1.853-1.87-2.78-4.752-2.78-8.645v-11.781c0-3.927.935-6.808 2.805-8.644 1.87-1.853 4.743-2.763 8.619-2.729h6.12c3.91 0 6.792.927 8.645 2.78s2.779 4.734 2.779 8.644v11.73c0 3.893-.926 6.775-2.779 8.645-1.853 1.853-4.735 2.779-8.645 2.779zm0-4.284h6.12c1.819 0 3.247-.212 4.284-.637 1.037-.442 1.768-1.182 2.193-2.219.442-1.037.663-2.465.663-4.284v-11.73c0-1.802-.221-3.221-.663-4.258-.425-1.037-1.156-1.777-2.193-2.219s-2.465-.663-4.284-.663h-6.12c-1.802-.017-3.221.187-4.258.612s-1.777 1.156-2.219 2.193-.663 2.465-.663 4.284v11.781c0 1.819.213 3.247.638 4.284.442 1.037 1.181 1.777 2.218 2.219 1.037.425 2.465.637 4.284.637z" fill="#fff"/><path d="m161.177 225c-.884 0-1.581-.561-2.091-1.683l-12.597-29.835c-.255-.595-.323-1.122-.204-1.581.119-.476.51-.867 1.173-1.173 1.394-.697 2.38-.34 2.958 1.071l11.908 28.203h-1.479l11.603-28.203c.561-1.394 1.547-1.751 2.958-1.071.595.306.96.697 1.096 1.173.153.459.111.986-.127 1.581l-12.699 29.835c-.527 1.122-1.292 1.683-2.295 1.683z" fill="#fff"/><path d="m78.6101 69.61c-10.1843 0-19.9517 4.0457-27.1531 11.2471s-11.247 16.9686-11.247 27.1529c0 10.184 4.0456 19.952 11.247 27.153s16.9688 11.247 27.1531 11.247c10.1835-.005 19.948-4.054 27.1469-11.257 7.199-7.203 11.243-16.969 11.243-27.153-.005-10.18-4.052-19.9416-11.25-27.14-7.1984-7.1983-16.9599-11.2447-27.1399-11.25zm0 7.48c2.0369 0 3.9901.8091 5.4304 2.2494s2.2495 3.3938 2.2495 5.4306c0 2.0369-.8092 3.9903-2.2495 5.4306-1.4403 1.4402-3.3935 2.2494-5.4304 2.2494s-3.9904-.8092-5.4307-2.2494c-1.4402-1.4403-2.2495-3.3937-2.2495-5.4306 0-2.0368.8093-3.9903 2.2495-5.4306 1.4403-1.4403 3.3938-2.2494 5.4307-2.2494zm-26.78 15.46c1.0186-1.7635 2.6959-3.0502 4.6631-3.5772 1.9671-.5269 4.0631-.251 5.8269.7672.874.5035 1.6403 1.1743 2.2551 1.9741.6148.7997 1.0658 1.7127 1.3276 2.6868.2619.9741.3294 1.9902.1985 2.9904s-.4577 1.9648-.9614 2.8387c-1.0205 1.764-2.6997 3.051-4.6685 3.578s-4.0662.251-5.8315-.768c-1.7635-1.019-3.0502-2.696-3.5772-4.6631-.5269-1.9672-.2508-4.0632.7674-5.8269zm10.49 33.74c-.8739.504-1.8387.83-2.8389.961s-2.0161.064-2.9902-.198c-.9742-.262-1.8873-.713-2.687-1.328-.7998-.615-1.4704-1.381-1.9739-2.255-1.0182-1.764-1.2943-3.86-.7674-5.827.527-1.967 1.8137-3.644 3.5772-4.663 1.7653-1.019 3.8627-1.295 5.8315-.768s3.648 1.814 4.6685 3.578c1.0178 1.766 1.2927 3.865.7639 5.834s-1.8179 3.647-3.5837 4.666zm16.29 12.65c-2.0369 0-3.9904-.809-5.4307-2.249-1.4402-1.441-2.2495-3.394-2.2495-5.431s.8093-3.99 2.2495-5.431c1.4403-1.44 3.3938-2.249 5.4307-2.249 1.0089-.001 2.0081.196 2.9404.582.9324.385 1.7795.951 2.493 1.664.7134.714 1.279 1.561 1.6645 2.493.3855.933.5834 1.932.582 2.941 0 2.037-.8092 3.99-2.2495 5.431-1.4403 1.44-3.3935 2.249-5.4304 2.249zm26.7799-15.47c-.503.875-1.173 1.642-1.973 2.258-.799.615-1.712 1.067-2.687 1.329-.9743.262-1.9908.329-2.9912.197-1.0005-.131-1.9653-.459-2.8389-.964-1.7642-1.021-3.051-2.7-3.5779-4.668-.5269-1.969-.2506-4.067.7681-5.832 1.0186-1.764 2.6959-3.05 4.6631-3.577s4.0628-.251 5.8268.767c.874.503 1.64 1.174 2.255 1.974.614.8 1.065 1.714 1.326 2.688s.328 1.991.195 2.991c-.132 1-.461 1.964-.966 2.837zm-2.81-20.47c-1.764 1.018-3.8596 1.294-5.8268.767s-3.6445-1.813-4.6631-3.577c-1.0182-1.7637-1.2943-3.8597-.7673-5.8268.5269-1.9672 1.8136-3.6446 3.5771-4.6632 1.7637-1.0182 3.8597-1.2942 5.8271-.7672 1.967.527 3.644 1.8137 4.663 3.5772.505.873.834 1.8371.966 2.8372.133 1 .066 2.0163-.195 2.9908-.261.9744-.712 1.888-1.326 2.688-.615.8-1.381 1.471-2.255 1.974z" fill="#0072ff"/><path d="m114.74 138.48c-.528-.002-1.054-.059-1.57-.17-4.27-1-6-5.54-6-5.73-.06-.163-.087-.337-.079-.511s.05-.344.124-.502c.075-.157.18-.298.31-.414.129-.117.281-.206.445-.263.162-.059.334-.085.507-.077.172.008.341.05.497.123s.296.177.412.305c.116.127.206.277.264.439 0 .06 1.29 3.43 4.13 4.06 2.42.53 5.55-1 9.06-4.54.123-.123.268-.221.429-.287.16-.067.332-.101.506-.101s.346.034.506.101c.161.066.306.164.429.287.246.247.383.582.383.93s-.137.683-.383.93c-3.63 3.61-6.96 5.42-9.97 5.42z" fill="#0072ff"/></svg>