<svg fill="none" height="512" viewBox="0 0 201 240" width="512" xmlns="http://www.w3.org/2000/svg"><g fill="#ff3e4c"><path d="m140.24 49.24c-5.467-.0053-10.709-2.1794-14.575-6.0453s-6.04-9.1076-6.045-14.5747v-28.62h-92.14c-7.137 0-13.9816 2.83514-19.02822 7.88174-5.0466 5.04656-7.881773 11.89126-7.881773 19.02826v162.22c.010599 7.13 2.850423 13.964 7.895873 19.002 5.04542 5.038 11.88402 7.868 19.01412 7.868h110.61c7.132 0 13.972-2.831 19.018-7.871 5.045-5.04 7.884-11.877 7.892-19.009v-139.88z" opacity=".15"/><path d="m165 49.24h-24.76c-5.467-.0053-10.709-2.1794-14.575-6.0453s-6.04-9.1076-6.045-14.5747v-28.62z"/><path d="m184.51 170.6h-125.04c-8.8697 0-16.06 7.19-16.06 16.06v37.28c0 8.87 7.1903 16.06 16.06 16.06h125.04c8.87 0 16.06-7.19 16.06-16.06v-37.28c0-8.87-7.19-16.06-16.06-16.06z"/></g><path d="m76.5534 225c-1.428 0-2.142-.714-2.142-2.142v-30.294c0-1.428.714-2.142 2.142-2.142.935 0 1.717.459 2.346 1.377l12.036 18.105-.918.153 12.1376-18.258c.578-.918 1.445-1.377 2.601-1.377s1.734.714 1.734 2.142v30.294c0 1.428-.714 2.142-2.142 2.142s-2.142-.714-2.142-2.142v-26.01l1.326.459-10.7096 15.759c-.629.918-1.496 1.377-2.601 1.377-.765 0-1.462-.459-2.091-1.377l-10.71-15.759 1.275.357v25.194c0 1.428-.714 2.142-2.142 2.142z" fill="#fff"/><path d="m119.236 225c-1.428 0-2.142-.714-2.142-2.142v-30.294c0-1.428.714-2.142 2.142-2.142h11.934c3.111 0 5.491.833 7.14 2.499 1.666 1.649 2.499 4.029 2.499 7.14v1.53c0 3.111-.833 5.499-2.499 7.165-1.649 1.649-4.029 2.474-7.14 2.474h-9.792v11.628c0 1.428-.714 2.142-2.142 2.142zm2.142-18.054h9.792c1.938 0 3.315-.408 4.131-1.224s1.224-2.193 1.224-4.131v-1.53c0-1.921-.408-3.29-1.224-4.106-.816-.833-2.193-1.249-4.131-1.249h-9.792z" fill="#fff"/><path d="m154.63 225c-2.975 0-5.278-.621-6.91-1.862-1.615-1.258-2.593-3.187-2.933-5.788-.068-.714.085-1.267.459-1.658s.918-.586 1.632-.586c1.309 0 2.04.714 2.193 2.142.238 1.326.774 2.235 1.607 2.728s2.15.74 3.952.74h5.814c2.193 0 3.681-.391 4.463-1.173.799-.799 1.198-2.278 1.198-4.437 0-2.142-.399-3.613-1.198-4.412-.782-.799-2.27-1.198-4.463-1.198h-3.927c-1.428 0-2.142-.714-2.142-2.142s.714-2.142 2.142-2.142h5.865c1.071 0 1.819-.476 2.244-1.428.442-.969.663-2.278.663-3.927 0-2.023-.365-3.383-1.096-4.08-.714-.714-2.066-1.071-4.055-1.071h-4.947c-1.598 0-2.779.212-3.544.637s-1.25 1.216-1.454 2.372c-.204 1.394-.952 2.091-2.244 2.091-.714 0-1.258-.187-1.632-.561-.374-.391-.51-.952-.408-1.683.34-2.397 1.275-4.182 2.805-5.355 1.547-1.19 3.706-1.785 6.477-1.785h4.947c3.196 0 5.568.773 7.115 2.32s2.32 3.919 2.32 7.115c0 3.145-.884 5.372-2.652 6.681 1.173.765 2.04 1.853 2.601 3.264.578 1.411.867 3.179.867 5.304 0 3.366-.807 5.856-2.422 7.471s-4.123 2.423-7.523 2.423z" fill="#fff"/><path d="m120.8 131.92h-10.95v-44.2599c0-1.4826-.589-2.9044-1.637-3.9527-1.049-1.0484-2.47-1.6373-3.953-1.6373h-28c-.7341 0-1.461.1446-2.1392.4255s-1.2945.6927-1.8135 1.2118c-.5191.5191-.9309 1.1353-1.2118 1.8135s-.4255 1.4051-.4255 2.1392v44.2599h-11v-47.9999c0-1.6844.332-3.3523.9769-4.9083.6448-1.5561 1.59-2.9698 2.7815-4.1604 1.1915-1.1905 2.606-2.1346 4.1625-2.7783 1.5566-.6437 3.2247-.9743 4.9091-.973h35.5c3.4 0 6.661 1.3507 9.065 3.7549s3.755 5.665 3.755 9.0651z" fill="#ff3e4c"/><path d="m107.82 144.9c7.169 0 12.98-5.811 12.98-12.98s-5.811-12.98-12.98-12.98-12.98 5.811-12.98 12.98 5.811 12.98 12.98 12.98z" fill="#ff3e4c"/><path d="m57.75 144.9c7.1687 0 12.98-5.811 12.98-12.98s-5.8113-12.98-12.98-12.98c-7.1686 0-12.98 5.811-12.98 12.98s5.8114 12.98 12.98 12.98z" fill="#ff3e4c"/></svg>