<svg fill="none" height="512" viewBox="0 0 200 240" width="512" xmlns="http://www.w3.org/2000/svg"><g fill="#a140ff"><path d="m139.67 49.24c-5.467-.0053-10.709-2.1794-14.575-6.0453s-6.04-9.1076-6.045-14.5747v-28.62h-92.1401c-7.1352-.00000049-13.9783 2.83379-19.02465 7.87823-5.04631 5.04447-7.88259848 11.88657-7.88525 19.02177v162.22c.0079507 7.132 2.84659 13.969 7.89233 19.009 5.04577 5.04 11.88577 7.871 19.01757 7.871h110.6001c3.535.001 7.035-.694 10.301-2.046 3.266-1.351 6.234-3.333 8.734-5.832s4.483-5.466 5.836-8.732c1.353-3.265 2.049-6.765 2.049-10.3v-139.85z" opacity=".15"/><path d="m164.43 49.24h-24.76c-5.467-.0053-10.709-2.1794-14.575-6.0453s-6.04-9.1076-6.045-14.5747v-28.62z"/><path d="m183.94 170.6h-125.0401c-8.8697 0-16.0598 7.19-16.0598 16.06v37.28c0 8.87 7.1901 16.06 16.0598 16.06h125.0401c8.87 0 16.06-7.19 16.06-16.06v-37.28c0-8.87-7.19-16.06-16.06-16.06z"/></g><path d="m77.6203 225c-1.428 0-2.142-.714-2.142-2.142v-30.294c0-1.428.714-2.142 2.142-2.142.935 0 1.717.459 2.346 1.377l12.036 18.105-.918.153 12.1377-18.258c.578-.918 1.445-1.377 2.601-1.377s1.734.714 1.734 2.142v30.294c0 1.428-.714 2.142-2.142 2.142s-2.142-.714-2.142-2.142v-26.01l1.326.459-10.7097 15.759c-.629.918-1.496 1.377-2.601 1.377-.765 0-1.462-.459-2.091-1.377l-10.71-15.759 1.275.357v25.194c0 1.428-.714 2.142-2.142 2.142z" fill="#fff"/><path d="m120.303 225c-1.428 0-2.142-.714-2.142-2.142v-30.294c0-1.428.714-2.142 2.142-2.142h11.934c3.111 0 5.491.833 7.14 2.499 1.666 1.649 2.499 4.029 2.499 7.14v1.53c0 3.111-.833 5.499-2.499 7.165-1.649 1.649-4.029 2.474-7.14 2.474h-9.792v11.628c0 1.428-.714 2.142-2.142 2.142zm2.142-18.054h9.792c1.938 0 3.315-.408 4.131-1.224s1.224-2.193 1.224-4.131v-1.53c0-1.921-.408-3.29-1.224-4.106-.816-.833-2.193-1.249-4.131-1.249h-9.792z" fill="#fff"/><path d="m162.337 225c-1.428 0-2.142-.714-2.142-2.142l.051-27.438 1.683-1.224-15.096 20.451-.357-1.071 20.961-.102c.697 0 1.224.204 1.581.612.374.408.561.918.561 1.53 0 1.428-.714 2.142-2.142 2.142h-23.001c-1.428 0-2.142-.714-2.142-2.142 0-.68.289-1.428.867-2.244l16.014-21.624c.442-.595.893-.961 1.352-1.097.476-.153 1.028-.229 1.657-.229 1.564 0 2.346.714 2.346 2.142l-.051 30.294c0 1.428-.714 2.142-2.142 2.142z" fill="#fff"/><path d="m90.22 105.56-9.5701-5.53c-.4951-.2835-1.0557-.4321-1.6262-.431s-1.1308.1519-1.6248.437c-.4939.286-.9043.696-1.1902 1.19-.2858.493-.4371 1.053-.4387 1.624v11.06c.0016.57.1529 1.131.4387 1.624.2859.494.6963.904 1.1902 1.19.494.285 1.0543.436 1.6248.437s1.1311-.148 1.6262-.431l9.5701-5.53c.494-.287.9041-.698 1.1892-1.193s.4353-1.056.4353-1.627-.1502-1.132-.4353-1.627-.6952-.906-1.1892-1.193z" fill="#a140ff"/><path d="m119.3 131.91v-47.71c-.003-.2316-.026-.4626-.07-.69.006-.0665.006-.1335 0-.2 0-.16-.09-.31-.14-.46l-.09-.2c-.065-.1463-.142-.2868-.23-.42l-.09-.16c-.129-.1788-.269-.3491-.42-.51l-.07-.06c-.136-.1283-.28-.2484-.43-.36l-.18-.11c-.13-.08-.27-.15-.41-.22l-.2-.09c-.16-.0605-.324-.1105-.49-.15h-.16c-.223-.0485-.452-.072-.68-.07h-67.3601c-.9257.0847-1.7864.5121-2.4135 1.1984-.6271.6862-.9755 1.582-.9766 2.5116v.17 47.68c-.0198.613.1747 1.214.5501 1.7.3304.554.7989 1.013 1.3598 1.332s1.1949.487 1.8401.488h67.0002c.966-.02 1.886-.414 2.569-1.098.682-.684 1.073-1.606 1.091-2.572zm-68.49-42.43c-1.1046 0-2-.8955-2-2v-3.24c0-1.1046.8954-2 2-2h1.8899c1.1045 0 2 .8954 2 2v3.24c0 1.1045-.8955 2-2 2zm9.9399 0c-1.1046 0-2-.8955-2-2v-3.24c0-1.1046.8954-2 2-2h1.8899c1.1046 0 2 .8954 2 2v3.24c0 1.1045-.8954 2-2 2zm9.94 0c-1.1046 0-2-.8955-2-2v-3.24c0-1.1046.8954-2 2-2h1.8901c1.1046 0 2 .8954 2 2v3.24c0 1.1045-.8954 2-2 2zm9.9399 0c-1.1046 0-2-.8955-2-2v-3.24c0-1.1046.8954-2 2-2h1.8901c1.1046 0 2 .8954 2 2v3.24c0 1.1045-.8954 2-2 2zm9.9402 0c-1.1046 0-2-.8955-2-2v-3.24c0-1.1046.8954-2 2-2h1.8899c1.1045 0 2 .8954 2 2v3.24c0 1.1045-.8955 2-2 2zm9.94 0c-1.1046 0-2.0001-.8955-2.0001-2v-3.24c0-1.1046.8955-2 2.0001-2h1.89c1.104 0 2 .8954 2 2v3.24c0 1.1045-.896 2-2 2zm9.94 0c-1.105 0-2-.8955-2-2v-3.24c0-1.1046.895-2 2-2h1.89c1.105 0 2 .8954 2 2v3.24c0 1.1045-.895 2-2 2zm-61.0001 35.11c-1.1046 0-2-.895-2-2v-29.15c0-1.1046.8954-2 2-2h65.2201c1.104 0 2 .8954 2 2v29.15c0 1.105-.896 2-2 2zm1.3501 9.19c-1.1046 0-2-.895-2-2v-3.24c0-1.105.8954-2 2-2h1.8899c1.1045 0 2 .895 2 2v3.24c0 1.105-.8955 2-2 2zm9.9399 0c-1.1046 0-2-.895-2-2v-3.24c0-1.105.8954-2 2-2h1.8899c1.1046 0 2 .895 2 2v3.24c0 1.105-.8954 2-2 2zm9.9399 0c-1.1045 0-2-.895-2-2v-3.24c0-1.105.8955-2 2-2h1.8902c1.1046 0 2 .895 2 2v3.24c0 1.105-.8954 2-2 2zm9.9402 0c-1.1045 0-2-.895-2-2v-3.24c0-1.105.8955-2 2-2h1.8899c1.1046 0 2 .895 2 2v3.24c0 1.105-.8954 2-2 2zm9.94 0c-1.1046 0-2-.895-2-2v-3.24c0-1.105.8954-2 2-2h1.8899c1.1045 0 2 .895 2 2v3.24c0 1.105-.8955 2-2 2zm9.94 0c-1.1047 0-2.0001-.895-2.0001-2v-3.24c0-1.105.8954-2 2.0001-2h1.89c1.104 0 2 .895 2 2v3.24c0 1.105-.896 2-2 2zm9.94 0c-1.105 0-2-.895-2-2v-3.24c0-1.105.895-2 2-2h1.89c1.105 0 2 .895 2 2v3.24c0 1.105-.895 2-2 2z" fill="#a140ff"/></svg>