<svg fill="none" height="512" viewBox="0 0 200 241" width="512" xmlns="http://www.w3.org/2000/svg"><path d="m139.67 49.25c-5.467-.0053-10.709-2.1796-14.575-6.0454-3.866-3.8659-6.04-9.1076-6.045-14.5747v-28.6299h-92.1401c-7.137 0-13.9815 2.83523-19.02806 7.88184-5.04661 5.04656-7.88184 11.89106-7.88184 19.02806v162.2201c0 7.137 2.83523 13.982 7.88184 19.028 5.04656 5.047 11.89106 7.882 19.02806 7.882h110.6001c3.535.001 7.035-.694 10.301-2.046 3.266-1.351 6.234-3.333 8.734-5.832s4.483-5.466 5.836-8.732c1.353-3.265 2.049-6.765 2.049-10.3v-139.88z" fill="#ff3e4c" opacity=".15"/><path d="m164.43 49.25h-24.76c-5.467-.0053-10.709-2.1796-14.575-6.0454-3.866-3.8659-6.04-9.1076-6.045-14.5747v-28.6299z" fill="#ff3e4c"/><path d="m183.94 170.61h-125.0401c-8.8697 0-16.0598 7.19-16.0598 16.06v37.28c0 8.87 7.1901 16.06 16.0598 16.06h125.0401c8.87 0 16.06-7.19 16.06-16.06v-37.28c0-8.87-7.19-16.06-16.06-16.06z" fill="#ff3e4c"/><path d="m81.505 225c-1.428 0-2.142-.714-2.142-2.142v-30.294c0-1.428.714-2.142 2.142-2.142h11.934c3.111 0 5.491.833 7.14 2.499 1.666 1.649 2.499 4.029 2.499 7.14v1.53c0 3.111-.833 5.499-2.499 7.165-1.649 1.649-4.029 2.474-7.14 2.474h-9.792v11.628c0 1.428-.714 2.142-2.142 2.142zm2.142-18.054h9.792c1.938 0 3.315-.408 4.131-1.224s1.224-2.193 1.224-4.131v-1.53c0-1.921-.408-3.29-1.224-4.106-.816-.833-2.193-1.249-4.131-1.249h-9.792z" fill="#fff"/><path d="m112.782 225c-1.428 0-2.142-.714-2.142-2.142v-30.294c0-1.428.714-2.142 2.142-2.142h11.934c3.111 0 5.491.833 7.14 2.499 1.666 1.649 2.499 4.029 2.499 7.14v1.53c0 3.111-.833 5.499-2.499 7.165-1.649 1.649-4.029 2.474-7.14 2.474h-9.792v11.628c0 1.428-.714 2.142-2.142 2.142zm2.142-18.054h9.792c1.938 0 3.315-.408 4.131-1.224s1.224-2.193 1.224-4.131v-1.53c0-1.921-.408-3.29-1.224-4.106-.816-.833-2.193-1.249-4.131-1.249h-9.792z" fill="#fff"/><path d="m152.271 225c-.714 0-1.25-.178-1.607-.535s-.535-.893-.535-1.607v-28.101h-9.894c-.714 0-1.25-.179-1.607-.536s-.535-.892-.535-1.606.178-1.25.535-1.607.893-.535 1.607-.535h24.072c.714 0 1.249.178 1.606.535s.536.893.536 1.607-.179 1.249-.536 1.606-.892.536-1.606.536h-9.894v28.101c0 .68-.187 1.207-.561 1.581-.357.374-.884.561-1.581.561z" fill="#fff"/><g fill="#ff3e4c"><path d="m74.6899 83.73h-43.6899c-.9928 0-1.9452-.3936-2.6482-1.0947s-1.0992-1.6525-1.1018-2.6453c0-.9946.3951-1.9484 1.0984-2.6516.7033-.7033 1.657-1.0984 2.6516-1.0984h43.6499c.9946 0 1.9486.3951 2.6519 1.0984.7032.7032 1.0981 1.657 1.0981 2.6516-.0026.9859-.3933 1.9311-1.0876 2.6311-.6944.7-1.6365 1.0984-2.6224 1.1089z"/><path d="m74.6899 106.1h-43.6899c-.9928 0-1.9452-.394-2.6482-1.095s-1.0992-1.652-1.1018-2.645c0-.994.3951-1.948 1.0984-2.6517.7033-.7033 1.657-1.0982 2.6516-1.0982h43.6499c.9946 0 1.9486.3949 2.6519 1.0982.7032.7037 1.0981 1.6577 1.0981 2.6517-.0026.986-.3933 1.931-1.0876 2.631-.6944.7-1.6365 1.099-2.6224 1.109z"/><path d="m74.6899 128.47h-43.6899c-.9946 0-1.9483-.395-2.6516-1.098-.7033-.704-1.0984-1.657-1.0984-2.652.0079-.989.4065-1.936 1.1089-2.632.7024-.697 1.6517-1.088 2.6411-1.088h43.6499c.9928 0 1.9452.394 2.6482 1.095s1.0992 1.652 1.1018 2.645c-.0052.984-.397 1.927-1.0911 2.625-.694.698-1.6347 1.094-2.6189 1.105z"/><path d="m74.6899 150.84h-43.6899c-.9946 0-1.9483-.395-2.6516-1.098-.7033-.704-1.0984-1.657-1.0984-2.652.0026-.993.3988-1.944 1.1018-2.645s1.6554-1.095 2.6482-1.095h43.6499c.9928 0 1.9452.394 2.6482 1.095s1.0992 1.652 1.1018 2.645c.0001.988-.3893 1.935-1.084 2.638-.6946.702-1.6383 1.102-2.626 1.112z"/><path d="m120.246 118.004c-1.655-.002-2.996-1.345-2.996-3v-27.0814c0-1.719-1.446-3.0999-3.145-2.8386-6.91 1.0627-13.307 4.3895-18.1599 9.5041-5.5815 5.8829-8.6936 13.6829-8.6951 21.7919-.0013 4.158.8166 8.276 2.4072 12.117 1.5906 3.842 3.9227 7.333 6.8628 10.273 2.9402 2.94 6.431 5.272 10.273 6.863 3.841 1.59 7.959 2.408 12.117 2.407 8.109.001 15.909-3.111 21.791-8.693 5.115-4.855 8.44-11.255 9.498-18.168.259-1.697-1.119-3.141-2.836-3.143z"/><path d="m126.45 82.5482c-1.697-.2581-3.14 1.1222-3.14 2.8393v23.8425c0 1.657 1.343 3 3 3h23.843c1.717 0 3.097-1.443 2.839-3.14-1.011-6.649-4.119-12.8342-8.914-17.6283-4.794-4.7942-10.979-7.9027-17.628-8.9135z"/></g></svg>