<svg fill="none" height="512" viewBox="0 0 192 240" width="512" xmlns="http://www.w3.org/2000/svg"><g fill="#005fad"><path d="m139.67 49.24c-5.467-.0053-10.709-2.1794-14.575-6.0453s-6.04-9.1076-6.045-14.5747v-28.62h-92.14c-7.137 0-13.9816 2.83511-19.02824 7.88171-5.0466 5.04659-7.88176 11.89139-7.88176 19.02829v162.21c.0079507 7.132 2.84661 13.969 7.89235 19.009 5.04575 5.04 11.88585 7.871 19.01765 7.871h110.6c3.535 0 7.036-.696 10.302-2.049s6.234-3.336 8.733-5.836c2.5-2.499 4.483-5.467 5.836-8.733s2.049-6.767 2.049-10.302v-139.88z" opacity=".15"/><path d="m164.38 49.24h-24.76c-5.467-.0053-10.709-2.1794-14.575-6.0453s-6.04-9.1076-6.045-14.5747v-28.62z"/><path d="m175.1 170.6h-125.04c-8.8697 0-16.06 7.19-16.06 16.06v37.28c0 8.87 7.1903 16.06 16.06 16.06h125.04c8.87 0 16.06-7.19 16.06-16.06v-37.28c0-8.87-7.19-16.06-16.06-16.06z"/></g><path d="m86.6516 225c-1.428 0-2.142-.714-2.142-2.142v-30.294c0-1.428.714-2.142 2.142-2.142h11.934c3.1114 0 5.4914.833 7.1404 2.499 1.666 1.649 2.499 4.029 2.499 7.14v1.53c0 3.111-.833 5.499-2.499 7.165-1.649 1.649-4.029 2.474-7.1404 2.474h-9.792v11.628c0 1.428-.714 2.142-2.142 2.142zm2.142-18.054h9.792c1.9384 0 3.3154-.408 4.1314-1.224s1.224-2.193 1.224-4.131v-1.53c0-1.921-.408-3.29-1.224-4.106-.816-.833-2.193-1.249-4.1314-1.249h-9.792z" fill="#fff"/><path d="m124.431 225c-2.907 0-5.176-.587-6.808-1.76-1.615-1.173-2.627-2.983-3.035-5.431-.068-.748.085-1.309.459-1.683s.918-.561 1.632-.561 1.233.17 1.556.51c.34.34.569.867.688 1.581.255 1.173.799 1.98 1.632 2.422.85.425 2.142.638 3.876.638h7.344c2.193 0 3.681-.391 4.463-1.173.799-.799 1.198-2.278 1.198-4.437 0-2.193-.408-3.689-1.224-4.488-.816-.816-2.295-1.224-4.437-1.224h-6.324c-3.213 0-5.601-.782-7.165-2.346-1.547-1.581-2.321-3.978-2.321-7.191 0-3.196.765-5.568 2.295-7.115 1.547-1.547 3.927-2.32 7.14-2.32h6.069c2.703 0 4.82.552 6.35 1.657 1.547 1.105 2.524 2.797 2.932 5.075.102.731-.034 1.292-.408 1.683-.374.374-.935.561-1.683.561-.68 0-1.19-.179-1.53-.536s-.561-.875-.663-1.555c-.272-1.003-.79-1.683-1.555-2.04-.765-.374-1.913-.561-3.443-.561h-6.069c-2.04 0-3.408.365-4.105 1.096-.697.714-1.046 2.066-1.046 4.055 0 2.006.357 3.383 1.071 4.131s2.091 1.122 4.131 1.122h6.324c3.349 0 5.84.816 7.472 2.448 1.649 1.632 2.473 4.148 2.473 7.548 0 3.383-.816 5.882-2.448 7.497-1.632 1.598-4.131 2.397-7.497 2.397z" fill="#fff"/><path d="m42.9481 127.182c-.7822 1.468-2.7811 1.381-3.2062-.227-1.1537-4.364-2.1643-11.897 1.2685-19.761.6737-1.544 2.8323-1.348 3.609.147.3752.721.7909 1.415 1.221 1.947.7019.869 1.4523.086 1.2286-1.008-.6451-3.154-1.6303-9.1965-.2753-11.4668.0178-.0298.0345-.0549.0545-.0832.4755-.6747 6.9122-9.7225 14.579-16.0997 1.2163-1.0118 3.031-.1499 3.3212 1.4054.1156.6196.2617 1.2467.4457 1.817.424 1.3137 1.5692.7675 1.767-.5986.267-1.8444.8913-4.5088 2.3251-7.7338.1313-.2955.3361-.5523.6004-.7386 2.3718-1.6717 15.266-10.0489 35.6004-10.138 1.547-.0068 2.453 1.7006 1.625 3.0069-3.105 4.8972-9.3608 14.9179-13.352 22.3394-2.7295 5.1834-5.7161 10.227-8.9485 15.112-.368.556-.9367 1.09-1.526 1.402-1.275.675-3.6919 1.865-6.2227 2.633-1.3986.424-3.1389 1.827-1.7469 2.273 1.2931.414 3.9046 2.172 3.1114 3.274-4.0636 5.646-13.9045 16.851-29.2673 19.121-.6742.1-1.268.512-1.5463 1.134-1.0115 2.262-3.4157 8.034-4.217 13.464-.0907.615-.4367 1.166-.9854 1.459-.7545.401-1.8983.96-2.9839 1.29-1.0829.33-1.7962-.661-1.4604-1.742 2.5843-8.317 14.3213-41.28 44.5883-66.2647.3554-.2934.3258-.3914-.1064-.2315-3.5426 1.3113-20.8145 9.1969-39.5008 44.2682z" fill="#005fad"/></svg>