<svg fill="none" height="512" viewBox="0 0 201 241" width="512" xmlns="http://www.w3.org/2000/svg"><path d="m140 49.25c-5.468-.0053-10.711-2.1791-14.578-6.0447-3.868-3.8655-6.044-9.1074-6.052-14.5754v-28.6299h-92.17c-7.137 0-13.9816 2.83523-19.02825 7.88184-5.0466 5.04656-7.881711 11.89106-7.881711 19.02806v162.2201c.010598 7.13 2.850421 13.964 7.895871 19.002 5.04549 5.038 11.88399 7.868 19.01409 7.868h110.6c7.137 0 13.982-2.835 19.028-7.882 5.047-5.046 7.882-11.891 7.882-19.028v-139.88z" fill="#ff3e4c" opacity=".15"/><path d="m164.71 49.25h-24.71c-5.468-.0053-10.711-2.1791-14.578-6.0447-3.868-3.8655-6.044-9.1074-6.052-14.5754v-28.6299z" fill="#ff3e4c"/><path d="m184.23 170.61h-125.0401c-8.8697 0-16.0599 7.19-16.0599 16.06v37.28c0 8.87 7.1902 16.06 16.0599 16.06h125.0401c8.87 0 16.06-7.19 16.06-16.06v-37.28c0-8.87-7.19-16.06-16.06-16.06z" fill="#ff3e4c"/><path d="m76.6261 225c-1.428 0-2.142-.714-2.142-2.142v-30.294c0-1.428.714-2.142 2.142-2.142h11.934c3.111 0 5.491.833 7.14 2.499 1.666 1.649 2.499 4.029 2.499 7.14v1.53c0 3.111-.833 5.499-2.499 7.165-1.649 1.649-4.029 2.474-7.14 2.474h-9.792v11.628c0 1.428-.714 2.142-2.142 2.142zm2.142-18.054h9.792c1.938 0 3.315-.408 4.131-1.224s1.224-2.193 1.224-4.131v-1.53c0-1.921-.408-3.29-1.224-4.106-.816-.833-2.193-1.249-4.131-1.249h-9.792z" fill="#fff"/><path d="m116.93 225c-3.893 0-6.774-.927-8.644-2.78-1.853-1.87-2.78-4.751-2.78-8.644v-21.012c0-.714.179-1.25.536-1.607s.892-.535 1.606-.535 1.25.178 1.607.535.535.893.535 1.607v21.012c0 1.819.213 3.247.638 4.284.442 1.037 1.181 1.776 2.218 2.218 1.037.425 2.465.638 4.284.638h6.12c1.819 0 3.247-.213 4.284-.638 1.037-.442 1.768-1.181 2.193-2.218.442-1.037.663-2.465.663-4.284v-21.012c0-.714.179-1.25.536-1.607s.892-.535 1.606-.535 1.25.178 1.607.535.535.893.535 1.607v21.012c0 3.893-.926 6.774-2.779 8.644-1.853 1.853-4.735 2.78-8.645 2.78z" fill="#fff"/><path d="m146.95 225c-1.428 0-2.142-.714-2.142-2.142v-30.294c0-1.428.714-2.142 2.142-2.142h13.311c2.703 0 4.777.714 6.222 2.142 1.462 1.428 2.193 3.468 2.193 6.12v1.377c0 2.295-.722 4.071-2.167 5.329 2.703 1.513 4.054 4.276 4.054 8.288v1.734c0 3.128-.833 5.508-2.499 7.14-1.649 1.632-4.029 2.448-7.14 2.448zm2.142-4.284h11.832c1.921 0 3.29-.408 4.106-1.224.833-.833 1.249-2.193 1.249-4.08v-1.734c0-1.887-.399-3.23-1.198-4.029-.799-.816-2.185-1.224-4.157-1.224h-11.832zm0-16.575h12.087c1.241 0 2.083-.383 2.525-1.148.459-.765.688-1.742.688-2.932v-1.377c0-1.479-.306-2.508-.918-3.086-.612-.595-1.683-.892-3.213-.892h-11.169z" fill="#fff"/><g fill="#ff3e4c"><path d="m71.3001 83.73h-43.6601c-.9919 0-1.9432-.3941-2.6446-1.0955s-1.0954-1.6526-1.0954-2.6445c-.0013-.492.0944-.9794.2818-1.4343.1873-.4549.4626-.8685.81-1.2168.3475-.3484.7602-.6247 1.2146-.8133.4544-.1885.9416-.2856 1.4336-.2856h43.6601c.9876.0132 1.93.4154 2.6228 1.1194.6927.704 1.0798 1.6529 1.0771 2.6406-.0051.9825-.3957 1.9238-1.0876 2.6213-.692.6976-1.6299 1.0956-2.6123 1.1087z"/><path d="m71.3001 106.1h-43.6601c-.9919 0-1.9432-.394-2.6446-1.095-.7014-.702-1.0954-1.653-1.0954-2.645-.0013-.492.0944-.979.2818-1.434.1873-.455.4626-.869.81-1.217.3475-.3484.7602-.6247 1.2146-.8132.4544-.1886.9416-.2857 1.4336-.2857h43.6601c.9928.0027 1.944.3988 2.6451 1.1018.7011.7031 1.0949 1.6551 1.0949 2.6481-.0027.991-.3976 1.941-1.0984 2.642s-1.6505 1.095-2.6416 1.098z"/><path d="m71.3001 128.47h-43.6601c-.492 0-.9792-.097-1.4336-.286-.4544-.188-.8671-.465-1.2146-.813-.3474-.348-.6227-.762-.81-1.217-.1874-.455-.2831-.942-.2818-1.434 0-.992.394-1.943 1.0954-2.645.7014-.701 1.6527-1.095 2.6446-1.095h43.6601c.9911.003 1.9408.398 2.6416 1.098.7008.701 1.0957 1.651 1.0984 2.642 0 .993-.3938 1.945-1.0949 2.648s-1.6523 1.099-2.6451 1.102z"/><path d="m71.3001 150.84h-43.6601c-.492 0-.9792-.097-1.4336-.286-.4544-.188-.8671-.465-1.2146-.813-.3474-.348-.6227-.762-.81-1.217-.1874-.454-.2831-.942-.2818-1.434 0-.992.394-1.943 1.0954-2.645.7014-.701 1.6527-1.095 2.6446-1.095h43.6601c.9911.003 1.9408.397 2.6416 1.098s1.0957 1.651 1.0984 2.642c0 .993-.3938 1.945-1.0949 2.648s-1.6523 1.099-2.6451 1.102z"/><path d="m130.88 83.73h-42.56c-.992 0-1.9432-.3941-2.6446-1.0955s-1.0954-1.6526-1.0954-2.6445c-.0013-.492.0945-.9794.2818-1.4343.1874-.4549.4627-.8685.8101-1.2168.3474-.3484.7602-.6247 1.2146-.8133.4544-.1885.9415-.2856 1.4335-.2856h42.56c.995 0 1.948.3951 2.652 1.0984.703.7032 1.098 1.657 1.098 2.6516-.003.9928-.399 1.9442-1.102 2.6453s-1.655 1.0947-2.648 1.0947z"/><path d="m130.88 106.1h-42.56c-.992 0-1.9432-.394-2.6446-1.095-.7014-.702-1.0954-1.653-1.0954-2.645-.0013-.492.0945-.979.2818-1.434.1874-.455.4627-.869.8101-1.217.3474-.3484.7602-.6247 1.2146-.8132.4544-.1886.9415-.2857 1.4335-.2857h42.56c.995 0 1.948.3949 2.652 1.0982.703.7037 1.098 1.6577 1.098 2.6517-.003.993-.399 1.944-1.102 2.645s-1.655 1.095-2.648 1.095z"/><path d="m130.88 128.47h-42.56c-.492 0-.9791-.097-1.4335-.286-.4544-.188-.8672-.465-1.2146-.813s-.6227-.762-.8101-1.217c-.1873-.455-.2831-.942-.2818-1.434 0-.992.394-1.943 1.0954-2.645.7014-.701 1.6526-1.095 2.6446-1.095h42.56c.993 0 1.945.394 2.648 1.095s1.099 1.652 1.102 2.645c0 .995-.395 1.948-1.098 2.652-.704.703-1.657 1.098-2.652 1.098z"/><path d="m130.88 150.84h-42.56c-.492 0-.9791-.097-1.4335-.286-.4544-.188-.8672-.465-1.2146-.813s-.6227-.762-.8101-1.217c-.1873-.454-.2831-.942-.2818-1.434 0-.992.394-1.943 1.0954-2.645.7014-.701 1.6526-1.095 2.6446-1.095h42.56c.993 0 1.945.394 2.648 1.095s1.099 1.652 1.102 2.645c0 .995-.395 1.948-1.098 2.652-.704.703-1.657 1.098-2.652 1.098z"/></g></svg>