<svg fill="none" height="512" viewBox="0 0 201 241" width="512" xmlns="http://www.w3.org/2000/svg"><path d="m139.81 49.25c-5.468-.0079-10.71-2.1843-14.575-6.0518-3.866-3.8674-6.04-9.1101-6.045-14.5782v-28.61999814h-92.1299c-3.5348-.00131353-7.0352.69376614-10.3012 2.04552814-3.266 1.35177-6.2337 3.33369-8.73363 5.83265-2.49989 2.49892-4.48296 5.46592-5.83594 8.73142-1.352978 3.2655-2.049316 6.7657-2.049315 10.3004v162.22c-.000001 3.535.696337 7.035 2.049315 10.3 1.35298 3.266 3.33605 6.233 5.83594 8.732 2.49993 2.499 5.46763 4.481 8.73363 5.833 3.266 1.351 6.7664 2.046 10.3012 2.045h110.5999c7.137 0 13.982-2.835 19.028-7.882 5.047-5.046 7.882-11.891 7.882-19.028v-139.88z" fill="#a140ff" opacity=".15"/><path d="m164.57 49.25h-24.76c-5.468-.0079-10.71-2.1843-14.575-6.0518-3.866-3.8674-6.04-9.1101-6.045-14.5782v-28.62z" fill="#a140ff"/><path d="m184.09 170.61h-125.04c-8.8697 0-16.06 7.19-16.06 16.06v37.28c0 8.87 7.1903 16.06 16.06 16.06h125.04c8.87 0 16.06-7.19 16.06-16.06v-37.28c0-8.87-7.19-16.06-16.06-16.06z" fill="#a140ff"/><path d="m99.6816 225.102c-.561.357-1.0965.467-1.6065.331s-.9435-.484-1.3005-1.045l-7.905-13.158h-7.14v11.628c0 1.428-.714 2.142-2.142 2.142s-2.142-.714-2.142-2.142v-30.294c0-1.428.714-2.142 2.142-2.142h11.934c3.111 0 5.491.833 7.14 2.499 1.6664 1.649 2.4994 4.029 2.4994 7.14v1.53c0 2.703-.629 4.862-1.8874 6.477-1.258 1.598-3.077 2.592-5.457 2.983l6.6814 11.144c.646 1.19.374 2.159-.8164 2.907zm-17.952-18.156h9.792c1.938 0 3.315-.408 4.131-1.224s1.224-2.193 1.224-4.131v-1.53c0-1.921-.408-3.29-1.224-4.106-.816-.833-2.193-1.249-4.131-1.249h-9.792z" fill="#fff"/><path d="m107.689 224.796c-1.36-.527-1.768-1.462-1.224-2.805l12.138-29.886c.51-1.122 1.309-1.683 2.397-1.683h.102c1.105.051 1.853.612 2.244 1.683l12.342 29.886c.544 1.343.153 2.278-1.173 2.805-1.343.527-2.278.136-2.805-1.173l-2.754-6.681h-15.887l-2.626 6.681c-.527 1.326-1.445 1.717-2.754 1.173zm7.063-12.138h12.444l-6.349-15.453z" fill="#fff"/><path d="m165.523 225.102c-.561.357-1.096.467-1.606.331s-.944-.484-1.301-1.045l-7.905-13.158h-7.14v11.628c0 1.428-.714 2.142-2.142 2.142s-2.142-.714-2.142-2.142v-30.294c0-1.428.714-2.142 2.142-2.142h11.934c3.111 0 5.491.833 7.14 2.499 1.666 1.649 2.499 4.029 2.499 7.14v1.53c0 2.703-.629 4.862-1.887 6.477-1.258 1.598-3.077 2.592-5.457 2.983l6.681 11.144c.646 1.19.374 2.159-.816 2.907zm-17.952-18.156h9.792c1.938 0 3.315-.408 4.131-1.224s1.224-2.193 1.224-4.131v-1.53c0-1.921-.408-3.29-1.224-4.106-.816-.833-2.193-1.249-4.131-1.249h-9.792z" fill="#fff"/><g fill="#a140ff"><path d="m95.11 150.84h-62.52c-.9929-.003-1.9441-.399-2.6452-1.102s-1.0948-1.655-1.0948-2.648c0-.992.394-1.943 1.0954-2.645.7014-.701 1.6527-1.095 2.6446-1.095h62.52c.492-.001.9794.094 1.4343.282.4549.187.8683.462 1.2167.81.3483.347.6248.76.8133 1.215.1886.454.2857.941.2857 1.433 0 .995-.3951 1.948-1.0984 2.652-.7033.703-1.6571 1.098-2.6516 1.098z"/><path d="m95.11 128.75h-62.52c-.9929-.003-1.9441-.399-2.6452-1.102s-1.0948-1.655-1.0948-2.648c.0026-.991.3975-1.941 1.0984-2.642.7008-.701 1.6505-1.095 2.6416-1.098h62.52c.9928 0 1.9452.394 2.6482 1.095s1.0991 1.652 1.1018 2.645c0 .995-.3951 1.948-1.0984 2.652-.7033.703-1.6571 1.098-2.6516 1.098z"/><path d="m95.11 106.66h-62.52c-.9919 0-1.9432-.394-2.6446-1.095-.7014-.702-1.0954-1.653-1.0954-2.645 0-.993.3937-1.945 1.0948-2.648.7011-.7031 1.6523-1.0993 2.6452-1.102h62.52c.9945 0 1.9483.395 2.6516 1.098.7033.704 1.0984 1.657 1.0984 2.652 0 .492-.0971.979-.2857 1.434-.1885.454-.465.867-.8133 1.214-.3484.348-.7618.623-1.2167.81-.4549.188-.9423.283-1.4343.282z"/><path d="m95.11 84.57h-62.52c-.9919 0-1.9432-.394-2.6446-1.0954s-1.0954-1.6527-1.0954-2.6446.394-1.9432 1.0954-2.6446c.7014-.7013 1.6527-1.0954 2.6446-1.0954h62.52c.492-.0013.9794.0945 1.4343.2818.4549.1874.8683.4627 1.2167.8101.3483.3474.6248.7602.8133 1.2146.1886.4544.2857.9415.2857 1.4335s-.0971.9792-.2857 1.4336c-.1885.4544-.465.8671-.8133 1.2146-.3484.3474-.7618.6227-1.2167.81-.4549.1874-.9423.2831-1.4343.2818z"/><path d="m123.15 152.52c-3.365-.003-6.591-1.34-8.97-3.72-2.38-2.379-3.717-5.605-3.72-8.97v-10.69c0-1.105.895-2 2-2h21.37c1.105 0 2 .895 2 2v10.69c-.003 3.363-1.339 6.588-3.716 8.967s-5.601 3.718-8.964 3.723zm-4.2-18.89c-1.105 0-2 .895-2 2v4.2c.003 1.643.657 3.219 1.819 4.381s2.737 1.816 4.381 1.819c1.644-.003 3.219-.657 4.381-1.819s1.816-2.738 1.819-4.381v-4.2c0-1.105-.895-2-2-2z"/><path d="m113.46 124.85h6.72c1.657 0 3-1.343 3-3v-6.72c0-1.657-1.343-3-3-3h-6.72c-1.657 0-3 1.343-3 3v6.72c0 1.657 1.343 3 3 3z"/><path d="m126.14 112.14h6.72c1.657 0 3-1.343 3-3v-6.72c0-1.657-1.343-3-3-3h-6.72c-1.657 0-3 1.343-3 3v6.72c0 1.657 1.343 3 3 3z"/><path d="m113.46 99.43h6.72c1.657 0 3-1.3432 3-3v-6.72c0-1.6568-1.343-3-3-3h-6.72c-1.657 0-3 1.3432-3 3v6.72c0 1.6568 1.343 3 3 3z"/><path d="m126.14 86.72h6.72c1.657 0 3-1.3432 3-3v-6.72c0-1.6569-1.343-3-3-3h-6.72c-1.657 0-3 1.3431-3 3v6.72c0 1.6568 1.343 3 3 3z"/></g></svg>