<svg fill="none" height="512" viewBox="0 0 201 240" width="512" xmlns="http://www.w3.org/2000/svg"><g fill="#ff9908"><path d="m140.53 49.24c-5.468-.0053-10.711-2.1791-14.578-6.0447-3.868-3.8656-6.044-9.1072-6.052-14.5753v-28.62h-92.13c-7.137 0-13.9817 2.83514-19.0283 7.88174-5.0466 5.04656-7.881593 11.89126-7.881593 19.02826v162.22c.010599 7.13 2.850293 13.964 7.895753 19.002 5.04544 5.038 11.88414 7.868 19.01414 7.868h110.6c7.137 0 13.982-2.835 19.028-7.882 5.047-5.046 7.882-11.891 7.882-19.028v-139.85z" opacity=".15"/><path d="m165.28 49.24h-24.75c-5.468-.0053-10.711-2.1791-14.578-6.0447-3.868-3.8656-6.044-9.1072-6.052-14.5753v-28.62z"/><path d="m184.8 170.6h-125.04c-8.8697 0-16.06 7.19-16.06 16.06v37.28c0 8.87 7.1903 16.06 16.06 16.06h125.04c8.87 0 16.06-7.19 16.06-16.06v-37.28c0-8.87-7.19-16.06-16.06-16.06z"/></g><path d="m98.7909 225.102c-.561.357-1.0965.467-1.6065.331s-.9435-.484-1.3005-1.045l-7.905-13.158h-7.14v11.628c0 1.428-.714 2.142-2.142 2.142s-2.142-.714-2.142-2.142v-30.294c0-1.428.714-2.142 2.142-2.142h11.934c3.111 0 5.491.833 7.14 2.499 1.666 1.649 2.4991 4.029 2.4991 7.14v1.53c0 2.703-.6291 4.862-1.8871 6.477-1.258 1.598-3.077 2.592-5.457 2.983l6.681 11.144c.6461 1.19.374 2.159-.816 2.907zm-17.952-18.156h9.792c1.938 0 3.315-.408 4.131-1.224s1.224-2.193 1.224-4.131v-1.53c0-1.921-.408-3.29-1.224-4.106-.816-.833-2.193-1.249-4.131-1.249h-9.792z" fill="#fff"/><path d="m117.074 225c-2.907 0-5.176-.587-6.808-1.76-1.615-1.173-2.627-2.983-3.035-5.431-.068-.748.085-1.309.459-1.683s.918-.561 1.632-.561 1.233.17 1.556.51c.34.34.569.867.688 1.581.255 1.173.799 1.98 1.632 2.422.85.425 2.142.638 3.876.638h7.344c2.193 0 3.681-.391 4.463-1.173.799-.799 1.198-2.278 1.198-4.437 0-2.193-.408-3.689-1.224-4.488-.816-.816-2.295-1.224-4.437-1.224h-6.324c-3.213 0-5.601-.782-7.165-2.346-1.547-1.581-2.321-3.978-2.321-7.191 0-3.196.765-5.568 2.295-7.115 1.547-1.547 3.927-2.32 7.14-2.32h6.069c2.703 0 4.82.552 6.35 1.657 1.547 1.105 2.524 2.797 2.932 5.075.102.731-.034 1.292-.408 1.683-.374.374-.935.561-1.683.561-.68 0-1.19-.179-1.53-.536s-.561-.875-.663-1.555c-.272-1.003-.79-1.683-1.555-2.04-.765-.374-1.913-.561-3.443-.561h-6.069c-2.04 0-3.408.365-4.105 1.096-.697.714-1.046 2.066-1.046 4.055 0 2.006.357 3.383 1.071 4.131s2.091 1.122 4.131 1.122h6.324c3.349 0 5.84.816 7.472 2.448 1.649 1.632 2.473 4.148 2.473 7.548 0 3.383-.816 5.882-2.448 7.497-1.632 1.598-4.131 2.397-7.497 2.397z" fill="#fff"/><path d="m152.386 225c-2.907 0-5.177-.587-6.809-1.76-1.615-1.173-2.626-2.983-3.034-5.431-.068-.748.085-1.309.459-1.683s.918-.561 1.632-.561 1.232.17 1.555.51c.34.34.57.867.689 1.581.255 1.173.799 1.98 1.632 2.422.85.425 2.142.638 3.876.638h7.344c2.193 0 3.68-.391 4.462-1.173.799-.799 1.199-2.278 1.199-4.437 0-2.193-.408-3.689-1.224-4.488-.816-.816-2.295-1.224-4.437-1.224h-6.324c-3.213 0-5.602-.782-7.166-2.346-1.547-1.581-2.32-3.978-2.32-7.191 0-3.196.765-5.568 2.295-7.115 1.547-1.547 3.927-2.32 7.14-2.32h6.069c2.703 0 4.819.552 6.349 1.657 1.547 1.105 2.525 2.797 2.933 5.075.102.731-.034 1.292-.408 1.683-.374.374-.935.561-1.683.561-.68 0-1.19-.179-1.53-.536s-.561-.875-.663-1.555c-.272-1.003-.791-1.683-1.556-2.04-.765-.374-1.912-.561-3.442-.561h-6.069c-2.04 0-3.409.365-4.106 1.096-.697.714-1.045 2.066-1.045 4.055 0 2.006.357 3.383 1.071 4.131s2.091 1.122 4.131 1.122h6.324c3.349 0 5.839.816 7.471 2.448 1.649 1.632 2.474 4.148 2.474 7.548 0 3.383-.816 5.882-2.448 7.497-1.632 1.598-4.131 2.397-7.497 2.397z" fill="#fff"/><path d="m58.72 139.61c4.004 0 7.25-3.246 7.25-7.25s-3.246-7.25-7.25-7.25c-4.0041 0-7.25 3.246-7.25 7.25s3.2459 7.25 7.25 7.25z" fill="#ff9908"/><path clip-rule="evenodd" d="m105.067 135.618c.166 2.201 1.941 3.992 4.149 3.992h1.449c2.211 0 4.016-1.796 3.874-4.002-.986-15.295-7.499-29.765-18.4003-40.6668-10.9015-10.9014-25.3721-17.4145-40.6666-18.4003-2.2063-.1422-4.0021 1.6626-4.0021 3.8734v1.45c0 2.2074 1.7906 3.9821 3.9918 4.1482 12.79.9653 24.8662 6.4764 33.9977 15.6075 9.1315 9.132 14.6425 21.208 15.6075 33.998zm-49.6116-28.923c-2.191-.268-3.9854-2.033-3.9854-4.24v-1.45c0-2.2113 1.7978-4.0223 3.9988-3.8126 9.8316.9367 19.0817 5.2636 26.1235 12.3056s11.3686 16.292 12.3054 26.123c.2097 2.201-1.6013 3.999-3.8123 3.999h-1.4503c-2.2073 0-3.9724-1.794-4.2399-3.985-.8942-7.325-4.2107-14.187-9.4821-19.458s-12.1329-8.588-19.4577-9.482z" fill="#ff9908" fill-rule="evenodd"/></svg>