<svg fill="none" height="512" viewBox="0 0 200 240" width="512" xmlns="http://www.w3.org/2000/svg"><path d="m139.67 49.24c-5.467-.0053-10.709-2.1794-14.575-6.0453s-6.04-9.1076-6.045-14.5747v-28.62h-92.1401c-3.5347-.00000024-7.0348.696337-10.3003 2.04932-3.2655 1.35298-6.2325 3.33605-8.73142 5.83593-2.49896 2.49985-4.481 5.46765-5.83277 8.73365-1.351764 3.266-2.04672167 6.7664-2.04540814 10.3011v162.21c-.00131353 3.535.69364414 7.035 2.04540814 10.301 1.35177 3.266 3.33381 6.234 5.83277 8.734 2.49892 2.5 5.46592 4.483 8.73142 5.836s6.7656 2.049 10.3003 2.049h110.6001c7.14 0 13.987-2.836 19.035-7.885 5.049-5.048 7.885-11.895 7.885-19.035v-139.88z" fill="#a140ff" opacity=".15"/><path d="m164.43 49.24h-24.76c-5.467-.0053-10.709-2.1794-14.575-6.0453s-6.04-9.1076-6.045-14.5747v-28.62z" fill="#a140ff"/><path d="m183.94 170.6h-125.0401c-8.8697 0-16.0598 7.19-16.0598 16.06v37.28c0 8.87 7.1901 16.06 16.0598 16.06h125.0401c8.87 0 16.06-7.19 16.06-16.06v-37.28c0-8.87-7.19-16.06-16.06-16.06z" fill="#a140ff"/><g fill="#fff"><path d="m85.7088 225c-.714 0-1.2495-.178-1.6065-.535s-.5355-.893-.5355-1.607v-28.101h-9.894c-.714 0-1.2495-.179-1.6065-.536s-.5355-.892-.5355-1.606.1785-1.25.5355-1.607.8925-.535 1.6065-.535h24.072c.714 0 1.2495.178 1.6065.535s.5355.893.5355 1.607-.1785 1.249-.5355 1.606-.8925.536-1.6065.536h-9.894v28.101c0 .68-.187 1.207-.561 1.581-.357.374-.884.561-1.581.561z"/><path d="m108.825 225c-.731 0-1.275-.17-1.632-.51-.34-.357-.51-.901-.51-1.632v-30.243c0-.748.17-1.292.51-1.632.357-.34.901-.51 1.632-.51.748 0 1.292.17 1.632.51s.51.884.51 1.632v30.243c0 .731-.17 1.275-.51 1.632-.34.34-.884.51-1.632.51z"/><path d="m123.717 225c-1.428 0-2.142-.714-2.142-2.142v-30.294c0-1.428.714-2.142 2.142-2.142h18.768c.663 0 1.181.195 1.555.586.391.374.587.893.587 1.556 0 1.428-.714 2.142-2.142 2.142h-16.626v10.71h10.251c1.428 0 2.142.714 2.142 2.142s-.714 2.142-2.142 2.142h-10.251v13.158c0 1.428-.714 2.142-2.142 2.142z"/><path d="m152.055 225c-1.428 0-2.142-.714-2.142-2.142v-30.294c0-1.428.714-2.142 2.142-2.142h18.768c.663 0 1.182.195 1.556.586.391.374.586.893.586 1.556 0 1.428-.714 2.142-2.142 2.142h-16.626v10.71h10.251c1.428 0 2.142.714 2.142 2.142s-.714 2.142-2.142 2.142h-10.251v13.158c0 1.428-.714 2.142-2.142 2.142z"/></g><path d="m104.31 146.41h-44.1801c-4.3241-.005-8.4693-1.725-11.5269-4.783-3.0575-3.057-4.7776-7.203-4.7829-11.527v-44.1699c.0053-4.3241 1.7254-8.4696 4.7829-11.5271 3.0576-3.0576 7.2028-4.7777 11.5269-4.783h44.1801c4.321.0079 8.463 1.7295 11.517 4.7871s4.77 7.2015 4.773 11.523v44.1699c-.003 4.321-1.719 8.465-4.773 11.523-3.054 3.057-7.196 4.779-11.517 4.787zm-44.1801-69.58c-2.4127.0026-4.7257.9623-6.4317 2.6683s-2.6655 4.0191-2.6682 6.4318v44.1699c.0027 2.413.9622 4.726 2.6682 6.432s4.019 2.665 6.4317 2.668h44.1801c2.411-.005 4.722-.966 6.425-2.672 1.704-1.706 2.662-4.017 2.665-6.428v-44.1699c-.003-2.411-.961-4.7225-2.665-6.4283-1.703-1.7057-4.014-2.6666-6.425-2.6718z" fill="#a140ff"/><path d="m117 121.7v8.4c0 3.366-1.337 6.595-3.716 8.977-2.38 2.381-5.607 3.72-8.974 3.723h-44.1801c-3.3683 0-6.5985-1.338-8.9802-3.72-2.3818-2.382-3.7198-5.612-3.7198-8.98v-14.1c7.07-1.52 17.8402-2 30.9202 3.22l8.0898-7.72 5.5201 14s1.48-5.15 6.26-4.42 12.52 3.32 15.83 1.11c.892-.515 1.94-.689 2.95-.49z" fill="#a140ff"/><path d="m101.54 94.95c2.712 0 4.91-2.1982 4.91-4.91 0-2.7117-2.198-4.91-4.91-4.91-2.7117 0-4.9101 2.1983-4.9101 4.91 0 2.7118 2.1984 4.91 4.9101 4.91z" fill="#a140ff"/></svg>