<svg fill="none" height="512" viewBox="0 0 201 241" width="512" xmlns="http://www.w3.org/2000/svg"><g fill="#0072ff"><path d="m140.53 49.25c-5.468-.0053-10.711-2.1791-14.578-6.0447-3.868-3.8655-6.044-9.1074-6.052-14.5754v-28.6299h-92.13c-7.137 0-13.9817 2.83523-19.0283 7.88184-5.0466 5.04656-7.881593 11.89106-7.881593 19.02806v162.2201c0 7.137 2.834993 13.982 7.881593 19.028 5.0466 5.047 11.8913 7.882 19.0283 7.882h110.6c7.137 0 13.982-2.835 19.028-7.882 5.047-5.046 7.882-11.891 7.882-19.028v-139.88z" opacity=".15"/><path d="m165.28 49.25h-24.75c-5.468-.0053-10.711-2.1791-14.578-6.0447-3.868-3.8655-6.044-9.1074-6.052-14.5754v-28.6299z"/><path d="m131.46 83.73h-103.25c-.9911-.0027-1.9408-.3976-2.6416-1.0984-.7009-.7008-1.0958-1.6505-1.0984-2.6416 0-.9928.3936-1.9452 1.0947-2.6482s1.6524-1.0992 2.6453-1.1018h103.25c.993.0026 1.944.3988 2.645 1.1018s1.095 1.6554 1.095 2.6482c-.003.9911-.398 1.9408-1.098 2.6416-.701.7008-1.651 1.0957-2.642 1.0984z"/><path d="m131.46 106.1h-103.25c-.9911-.003-1.9408-.397-2.6416-1.098-.7009-.701-1.0958-1.651-1.0984-2.642 0-.993.3936-1.945 1.0947-2.6481.7011-.703 1.6524-1.0991 2.6453-1.1018h103.25c.993.0027 1.944.3988 2.645 1.1018.701.7031 1.095 1.6551 1.095 2.6481-.003.991-.398 1.941-1.098 2.642-.701.701-1.651 1.095-2.642 1.098z"/><path d="m131.46 128.47h-103.25c-.9929-.003-1.9442-.399-2.6453-1.102s-1.0947-1.655-1.0947-2.648c.0026-.991.3975-1.941 1.0984-2.642.7008-.7 1.6505-1.095 2.6416-1.098h103.25c.991.003 1.941.398 2.642 1.098.7.701 1.095 1.651 1.098 2.642 0 .993-.394 1.945-1.095 2.648s-1.652 1.099-2.645 1.102z"/><path d="m131.46 150.83h-103.25c-.9919 0-1.9432-.394-2.6446-1.095-.7014-.702-1.0954-1.653-1.0954-2.645 0-.993.3936-1.945 1.0947-2.648s1.6524-1.099 2.6453-1.102h103.25c.993.003 1.944.399 2.645 1.102s1.095 1.655 1.095 2.648c0 .992-.394 1.943-1.096 2.645-.701.701-1.652 1.095-2.644 1.095z"/><path d="m184.8 170.61h-125.04c-8.8697 0-16.06 7.19-16.06 16.06v37.28c0 8.87 7.1903 16.06 16.06 16.06h125.04c8.87 0 16.06-7.19 16.06-16.06v-37.28c0-8.87-7.19-16.06-16.06-16.06z"/></g><path d="m90.8675 225c-.714 0-1.2495-.178-1.6065-.535s-.5355-.893-.5355-1.607v-28.101h-9.894c-.714 0-1.2495-.178-1.6065-.535s-.5355-.893-.5355-1.607.1785-1.249.5355-1.606.8925-.536 1.6065-.536h24.0715c.714 0 1.25.179 1.607.536s.535.892.535 1.606-.178 1.25-.535 1.607-.893.535-1.607.535h-9.8935v28.101c0 .68-.187 1.207-.561 1.581-.357.374-.884.561-1.581.561z" fill="#fff"/><path d="m110.924 224.541c-1.139-.782-1.309-1.785-.51-3.009l9.333-13.77-9.843-13.872c-.765-1.122-.578-2.125.561-3.009 1.173-.799 2.159-.612 2.958.561l9.129 12.801 9.18-12.801c.884-1.139 1.87-1.292 2.958-.459 1.156.85 1.326 1.836.51 2.958l-10.047 13.974 9.639 13.566c.799 1.173.612 2.193-.561 3.06-1.173.799-2.159.612-2.958-.561l-8.874-12.495-8.466 12.546c-.782 1.105-1.785 1.275-3.009.51z" fill="#fff"/><path d="m154.119 225c-.714 0-1.249-.178-1.606-.535s-.536-.893-.536-1.607v-28.101h-9.894c-.714 0-1.249-.178-1.606-.535s-.536-.893-.536-1.607.179-1.249.536-1.606.892-.536 1.606-.536h24.072c.714 0 1.25.179 1.607.536s.535.892.535 1.606-.178 1.25-.535 1.607-.893.535-1.607.535h-9.894v28.101c0 .68-.187 1.207-.561 1.581-.357.374-.884.561-1.581.561z" fill="#fff"/></svg>