<svg fill="none" height="512" viewBox="0 0 201 240" width="512" xmlns="http://www.w3.org/2000/svg"><g fill="#00c650"><path d="m140.38 49.24c-5.467-.0053-10.709-2.1794-14.575-6.0453s-6.04-9.1076-6.045-14.5747v-28.61999814h-92.13c-3.5347-.00131353-7.0351.69376614-10.3011 2.04552814-3.2661 1.35177-6.2337 3.33375-8.73356 5.83271-2.49989 2.49896-4.48296 5.46596-5.83594 8.73146s-2.049439 6.7656-2.049439 10.3003v162.22c.0106 7.132 2.851799 13.968 7.899419 19.006s11.88882 7.867 19.02062 7.864h110.6c3.534 0 7.033-.696 10.298-2.048 3.265-1.353 6.231-3.335 8.73-5.834s4.481-5.465 5.834-8.73c1.352-3.265 2.048-6.764 2.048-10.298v-139.85z" opacity=".15"/><path d="m165.14 49.24h-24.76c-5.467-.0053-10.709-2.1794-14.575-6.0453s-6.04-9.1076-6.045-14.5747v-28.62z"/><path d="m184.66 170.6h-125.04c-8.8697 0-16.0599 7.19-16.0599 16.06v37.28c0 8.87 7.1902 16.06 16.0599 16.06h125.04c8.87 0 16.06-7.19 16.06-16.06v-37.28c0-8.87-7.19-16.06-16.06-16.06z"/></g><path d="m80.0638 225c-.935 0-1.598-.612-1.989-1.836l-9.435-29.886c-.204-.646-.1105-1.292.2805-1.938.408-.646.9945-.969 1.7595-.969.408 0 .799.136 1.173.408.374.255.646.663.816 1.224l8.313 26.469h-1.122l7.905-26.214c.187-.612.5015-1.071.9435-1.377.459-.306.9265-.459 1.4025-.459.51 0 1.003.153 1.479.459s.799.765.969 1.377l7.9052 26.214h-1.1222l8.3132-26.469c.187-.561.45-.96.79-1.198.357-.255.74-.383 1.148-.383.748 0 1.343.289 1.785.867s.544 1.241.306 1.989l-9.435 29.886c-.408 1.224-1.156 1.836-2.244 1.836h-.1022c-1.139 0-1.887-.612-2.244-1.836l-8.211-26.571h1.122l-8.262 26.571c-.17.612-.425 1.071-.765 1.377-.323.306-.816.459-1.479.459z" fill="#fff"/><path d="m115.138 224.796c-1.36-.527-1.768-1.462-1.224-2.805l12.138-29.886c.51-1.122 1.309-1.683 2.397-1.683h.102c1.105.051 1.853.612 2.244 1.683l12.342 29.886c.544 1.343.153 2.278-1.173 2.805-1.343.527-2.278.136-2.805-1.173l-2.754-6.681h-15.886l-2.627 6.681c-.527 1.326-1.445 1.717-2.754 1.173zm7.064-12.138h12.444l-6.35-15.453z" fill="#fff"/><path d="m160.056 225c-.884 0-1.581-.561-2.091-1.683l-12.597-29.835c-.255-.595-.323-1.122-.204-1.581.119-.476.51-.867 1.173-1.173 1.394-.697 2.38-.34 2.958 1.071l11.909 28.203h-1.479l11.602-28.203c.561-1.394 1.547-1.751 2.958-1.071.595.306.961.697 1.097 1.173.153.459.11.986-.128 1.581l-12.699 29.835c-.527 1.122-1.292 1.683-2.295 1.683z" fill="#fff"/><path d="m120.94 131.92h-11v-44.2599c0-1.4826-.589-2.9044-1.637-3.9527-1.049-1.0484-2.47-1.6373-3.953-1.6373h-28c-1.4826 0-2.9045.5889-3.9528 1.6373-1.0483 1.0483-1.6372 2.4701-1.6372 3.9527v44.2599h-10.9499v-47.9999c0-3.4001 1.3506-6.6609 3.7548-9.0651 2.4043-2.4042 5.665-3.7549 9.0651-3.7549h35.41c3.4 0 6.661 1.3507 9.065 3.7549s3.755 5.665 3.755 9.0651z" fill="#00c650"/><path d="m107.96 144.9c7.169 0 12.98-5.811 12.98-12.98s-5.811-12.98-12.98-12.98-12.98 5.811-12.98 12.98 5.811 12.98 12.98 12.98z" fill="#00c650"/><path d="m57.9 144.9c7.1687 0 12.98-5.811 12.98-12.98s-5.8113-12.98-12.98-12.98c-7.1686 0-12.98 5.811-12.98 12.98s5.8114 12.98 12.98 12.98z" fill="#00c650"/></svg>