<svg fill="none" height="512" viewBox="0 0 201 241" width="512" xmlns="http://www.w3.org/2000/svg"><g fill="#00c650"><path d="m140.1 49.25c-5.467-.0053-10.709-2.1796-14.575-6.0454-3.865-3.8659-6.04-9.1076-6.045-14.5747v-28.6299h-92.1399c-7.137 0-13.9817 2.83523-19.02833 7.88184-5.04661 5.04656-7.881838 11.89106-7.881838 19.02806v162.2201c0 7.137 2.835228 13.982 7.881838 19.028 5.04663 5.047 11.89133 7.882 19.02833 7.882h110.5999c7.137 0 13.982-2.835 19.028-7.882 5.047-5.046 7.882-11.891 7.882-19.028v-139.88z" opacity=".15"/><path d="m164.85 49.25h-24.75c-5.467-.0053-10.709-2.1796-14.575-6.0454-3.865-3.8659-6.04-9.1076-6.045-14.5747v-28.6299z"/><path d="m184.37 170.61h-125.0399c-8.8697 0-16.0601 7.19-16.0601 16.06v37.28c0 8.87 7.1904 16.06 16.0601 16.06h125.0399c8.87 0 16.06-7.19 16.06-16.06v-37.28c0-8.87-7.19-16.06-16.06-16.06z"/></g><path d="m78.472 224.541c-1.139-.782-1.309-1.785-.51-3.009l9.333-13.77-9.843-13.872c-.765-1.122-.578-2.125.561-3.009 1.173-.799 2.159-.612 2.958.561l9.129 12.801 9.18-12.801c.884-1.139 1.87-1.292 2.958-.459 1.156.85 1.326 1.836.51 2.958l-10.047 13.974 9.639 13.566c.799 1.173.612 2.193-.561 3.06-1.173.799-2.159.612-2.958-.561l-8.874-12.495-8.466 12.546c-.782 1.105-1.785 1.275-3.009.51z" fill="#fff"/><path d="m113.457 225c-1.428 0-2.142-.714-2.142-2.142v-30.294c0-1.428.714-2.142 2.142-2.142s2.142.714 2.142 2.142v28.152h14.127c1.428 0 2.142.714 2.142 2.142s-.714 2.142-2.142 2.142z" fill="#fff"/><path d="m147.551 225c-2.907 0-5.176-.586-6.808-1.759-1.615-1.173-2.627-2.984-3.035-5.432-.068-.748.085-1.309.459-1.683s.918-.561 1.632-.561 1.233.17 1.556.51c.34.34.569.867.688 1.581.255 1.173.799 1.981 1.632 2.423.85.425 2.142.637 3.876.637h7.344c2.193 0 3.681-.391 4.463-1.173.799-.799 1.198-2.278 1.198-4.437 0-2.193-.408-3.689-1.224-4.488-.816-.816-2.295-1.224-4.437-1.224h-6.324c-3.213 0-5.601-.782-7.165-2.346-1.547-1.581-2.321-3.978-2.321-7.191 0-3.196.765-5.567 2.295-7.115 1.547-1.546 3.927-2.32 7.14-2.32h6.069c2.703 0 4.82.553 6.35 1.658 1.547 1.105 2.524 2.796 2.932 5.074.102.731-.034 1.292-.408 1.683-.374.374-.935.561-1.683.561-.68 0-1.19-.178-1.53-.535s-.561-.876-.663-1.556c-.272-1.003-.79-1.683-1.555-2.04-.765-.374-1.913-.561-3.443-.561h-6.069c-2.04 0-3.408.366-4.105 1.096-.697.715-1.046 2.066-1.046 4.055 0 2.006.357 3.383 1.071 4.131s2.091 1.122 4.131 1.122h6.324c3.349 0 5.84.816 7.472 2.448 1.649 1.632 2.473 4.148 2.473 7.548 0 3.383-.816 5.882-2.448 7.497-1.632 1.598-4.131 2.397-7.497 2.397z" fill="#fff"/><path clip-rule="evenodd" d="m119.32 150.84h-73.32c-6.35 0-11.52-6.32-11.52-14.1v-53.19c0-7.77 5.17-14.09 11.52-14.09h73.35c6.34 0 11.51 6.32 11.51 14.09v53.19c-.03 7.78-5.2 14.1-11.54 14.1zm-73.32-74.1801c-3.11 0-5.6299 3.0901-5.6299 6.8901v7.54c0 1.6569 1.3432 3 3 3h14.2c1.6568 0 3-1.3431 3-3v-11.4301c0-1.6568-1.3432-3-3-3zm21.78 3c0-1.6568 1.3432-3 3-3h23.72c1.6569 0 3 1.3432 3 3v11.4301c0 1.6569-1.3431 3-3 3h-23.72c-1.6568 0-3-1.3431-3-3zm0 24.6401c0-1.657 1.3432-3 3-3h23.72c1.6569 0 3 1.343 3 3v11.51c0 1.657-1.3431 3-3 3h-23.72c-1.6568 0-3-1.343-3-3zm-7.2099 0c0-1.657-1.3432-3-3-3h-14.2c-1.6568 0-3 1.343-3 3v11.51c0 1.657 1.3432 3 3 3h14.2c1.6568 0 3-1.343 3-3zm0 24.72c0-1.657-1.3432-3-3-3h-14.2c-1.6568 0-3 1.343-3 3v7.72c0 3.8 2.5199 6.89 5.6299 6.89h11.5701c1.6568 0 3-1.343 3-3zm7.2099 11.61c0 1.657 1.3432 3 3 3h23.72c1.6569 0 3-1.343 3-3v-11.61c0-1.657-1.3431-3-3-3h-23.72c-1.6568 0-3 1.343-3 3zm39.93-39.33c-1.657 0-3 1.343-3 3v11.51c0 1.657 1.343 3 3 3h14.26c1.657 0 3-1.343 3-3v-11.51c0-1.657-1.343-3-3-3zm0 24.72c-1.657 0-3 1.343-3 3v11.61c0 1.657 1.343 3 3 3h11.64c3.1 0 5.62-3.09 5.62-6.89v-7.72c0-1.657-1.343-3-3-3zm0-49.3601c-1.657 0-3 1.3432-3 3v11.4301c0 1.6569 1.343 3 3 3h14.26c1.657 0 3-1.3431 3-3v-7.54c0-3.8-2.52-6.8901-5.62-6.8901z" fill="#00c650" fill-rule="evenodd"/></svg>