<svg fill="none" height="512" viewBox="0 0 201 241" width="512" xmlns="http://www.w3.org/2000/svg"><path d="m140.24 49.25c-5.468-.0079-10.71-2.1843-14.575-6.0518-3.866-3.8674-6.04-9.1101-6.045-14.5782v-28.62h-92.14c-7.137 0-13.9816 2.83511-19.02822 7.88171-5.0466 5.04659-7.881773 11.89139-7.881773 19.02829v162.22c.010599 7.13 2.850423 13.964 7.895873 19.002 5.04542 5.038 11.88402 7.868 19.01412 7.868h110.61c7.13 0 13.969-2.83 19.014-7.868 5.046-5.038 7.885-11.872 7.896-19.002v-139.88z" fill="#ff3e4c" opacity=".15"/><path d="m165 49.25h-24.76c-5.468-.0079-10.71-2.1843-14.575-6.0518-3.866-3.8674-6.04-9.1101-6.045-14.5782v-28.62z" fill="#ff3e4c"/><path d="m184.51 170.61h-125.04c-8.8697 0-16.06 7.19-16.06 16.06v37.28c0 8.87 7.1903 16.06 16.06 16.06h125.04c8.87 0 16.06-7.19 16.06-16.06v-37.28c0-8.87-7.19-16.06-16.06-16.06z" fill="#ff3e4c"/><path d="m85.6385 225c-1.394 0-2.091-.714-2.091-2.142 0-.238.068-.502.204-.791s.34-.637.612-1.045l20.5015-26.826v.51h-13.6165c-1.088 0-1.938.161-2.55.484s-1.037.859-1.275 1.607c-.153.629-.391 1.122-.714 1.479-.323.34-.833.51-1.53.51-.714 0-1.275-.196-1.683-.587-.391-.391-.527-.943-.408-1.657.408-1.972 1.292-3.485 2.652-4.539 1.377-1.054 3.213-1.581 5.508-1.581h17.0335c1.428 0 2.142.714 2.142 2.142 0 .272-.059.561-.178.867s-.332.663-.638 1.071l-20.2465 26.418v-.204h15.0955c1.156 0 2.04-.153 2.652-.459.612-.323 1.02-.867 1.224-1.632.187-.646.442-1.139.765-1.479.34-.34.85-.51 1.53-.51.714 0 1.267.195 1.658.586s.535.944.433 1.658c-.833 4.08-3.587 6.12-8.262 6.12z" fill="#fff"/><path d="m122.943 225c-.731 0-1.275-.17-1.632-.51-.34-.357-.51-.901-.51-1.632v-30.243c0-.748.17-1.292.51-1.632.357-.34.901-.51 1.632-.51.748 0 1.292.17 1.632.51s.51.884.51 1.632v30.243c0 .731-.17 1.275-.51 1.632-.34.34-.884.51-1.632.51z" fill="#fff"/><path d="m137.834 225c-1.428 0-2.142-.714-2.142-2.142v-30.294c0-1.428.714-2.142 2.142-2.142h11.934c3.111 0 5.491.833 7.14 2.499 1.666 1.649 2.499 4.029 2.499 7.14v1.53c0 3.111-.833 5.499-2.499 7.165-1.649 1.649-4.029 2.474-7.14 2.474h-9.792v11.628c0 1.428-.714 2.142-2.142 2.142zm2.142-18.054h9.792c1.938 0 3.315-.408 4.131-1.224s1.224-2.193 1.224-4.131v-1.53c0-1.921-.408-3.29-1.224-4.106-.816-.833-2.193-1.249-4.131-1.249h-9.792z" fill="#fff"/><g fill="#ff3e4c"><path d="m82.77 152.52c-3.363-.005-6.5867-1.344-8.9638-3.723s-3.7135-5.604-3.7162-8.967v-10.69c0-1.105.8955-2 2-2h21.37c1.1046 0 2 .895 2 2v10.69c-.0026 3.365-1.3405 6.591-3.7198 8.97-2.3792 2.38-5.6054 3.717-8.9702 3.72zm-4.19-18.89c-1.1046 0-2 .895-2 2v4.2c0 1.643.6518 3.218 1.8124 4.381 1.1606 1.162 2.735 1.816 4.3776 1.819 1.6435-.003 3.219-.657 4.3811-1.819 1.1622-1.162 1.8162-2.738 1.8189-4.381v-4.2c0-1.105-.8955-2-2-2z"/><path d="m73.08 125.15h6.72c1.6568 0 3-1.343 3-3v-6.72c0-1.657-1.3432-3-3-3h-6.72c-1.6568 0-3 1.343-3 3v6.72c0 1.657 1.3432 3 3 3z"/><path d="m85.77 112.44h6.72c1.6568 0 3-1.343 3-3v-6.72c0-1.657-1.3432-3-3-3h-6.72c-1.6568 0-3 1.343-3 3v6.72c0 1.657 1.3432 3 3 3z"/><path d="m73.08 99.73h6.72c1.6568 0 3-1.3432 3-3v-6.72c0-1.6568-1.3432-3-3-3h-6.72c-1.6568 0-3 1.3432-3 3v6.72c0 1.6568 1.3432 3 3 3z"/><path d="m85.77 87.02h6.72c1.6568 0 3-1.3432 3-3v-6.72c0-1.6569-1.3432-3-3-3h-6.72c-1.6568 0-3 1.3431-3 3v6.72c0 1.6568 1.3432 3 3 3z"/></g></svg>