<?xml version="1.0" encoding="UTF-8"?>
<svg id="Layer_1" data-name="Layer 1" xmlns="http://www.w3.org/2000/svg" viewBox="0 0 900 700">
  <defs>
    <style>
      .cls-1 {
        fill: #4c5357;
        stroke-width: 0px;
      }

      .cls-2 {
        fill: none;
        stroke: #4c5357;
        stroke-miterlimit: 10;
        stroke-width: 8px;
      }
    </style>
  </defs>
  <g>
    <g>
      <ellipse class="cls-1" cx="411.18" cy="254.35" rx="28.63" ry="20.16" transform="translate(-54.73 383.53) rotate(-47.24)"/>
      <ellipse class="cls-1" cx="220.38" cy="272.28" rx="20.16" ry="28.63" transform="translate(-129.58 287.47) rotate(-53.5)"/>
    </g>
    <path class="cls-1" d="M506.52,89.53c-33.56-8.2-51.12-8.04-66.87-6.88-3.32.25-16.31,30.46-12.13,44.34,5.1,16.95-4.75,21.18-19.86,18.44-20-3.64-40.15-5.19-56.54,9.69-13.56,12.31-20.33,28.74-10.45,45.51,11.08,18.81,25.61,7.23,38.6.36,59.21-31.3,124.45,6.34,142.36,82.33,1.82,7.71,2.5,15.69,3.08,19.46,7.36,79.66-47.08,125.1-118.42,98.43-59.99-22.42-113.88-19.38-167.24,15.69-31.52,20.72-65.47,24.85-97.75,1.71-31.95-22.91-42.28-55.85-38.87-94.27,2.52-28.43,11.16-54.32,27.49-77.72,26.37-37.76,50.71-45.98,94.85-32.24,14.7,4.57,32.71,14.91,39.65-8.23,5.84-19.47-4.54-34.96-22.92-43.32-12-5.46-24.9-6.57-37.79-2.01-5.62,1.99-11.34,3.71-16.94,5.76-8.62,3.16-20.82.83-18.37-7.03,7.86-25.25-.07-43.36-19.07-61.71-27.57-.29-126.95,112.91-100.48,268.2,26.83,157.37,95.68,186.88,117.74,249.37,17.28,1.46,79.79,0,79.79,0,2.56-16.28,26.01-103.75,79.79-103.75,46.63,0,58.81,75.56,63.37,103.75h79.79c20.05-113.45,55.1-111.42,73.1-99.15,41.59,28.35,43.67,99.16,43.67,99.16h80.02l26.17-110.72c-9.87-27.95-60.35,17.8-60.35,17.8,81.27,20.73,75.05,92.92,75.05,92.92h79.79c42.94-393.33-205.22-507.53-280.28-525.88ZM375.55,453.17c-16.29,3.62-81.74,4.41-97.5,3.08-5.84-.49-12.04-3.16-13.18-10.08-1.14-6.9,4.32-10.35,9.15-13.9,24.94-18.33,80.84-17.8,104.84.64,12.19,9.37,10.12,17.27-3.31,20.25Z"/>
  </g>
  <line class="cls-2" x1="74.26" y1="616.05" x2="855.56" y2="616.05"/>
</svg>