<svg fill="none" height="512" viewBox="0 0 201 241" width="512" xmlns="http://www.w3.org/2000/svg"><path d="m139.67 49.25c-5.467-.0053-10.709-2.1796-14.575-6.0454-3.866-3.8659-6.04-9.1076-6.045-14.5747v-28.6299h-92.14c-7.137 0-13.9816 2.83523-19.02824 7.88184-5.0466 5.04656-7.88176 11.89106-7.88176 19.02806v162.2201c.0105984 7.13 2.85043 13.964 7.89589 19.002 5.04541 5.038 11.88411 7.868 19.01411 7.868h110.6c3.535.001 7.035-.694 10.301-2.045 3.266-1.352 6.234-3.334 8.734-5.833s4.483-5.466 5.836-8.732c1.353-3.265 2.049-6.765 2.049-10.3v-139.88z" fill="#00c650" opacity=".15"/><path d="m164.43 49.25h-24.76c-5.467-.0053-10.709-2.1796-14.575-6.0454-3.866-3.8659-6.04-9.1076-6.045-14.5747v-28.6299z" fill="#00c650"/><path d="m184.1 171h-125.04c-8.8697 0-16.06 7.19-16.06 16.06v37.28c0 8.87 7.1903 16.06 16.06 16.06h125.04c8.87 0 16.06-7.19 16.06-16.06v-37.28c0-8.87-7.19-16.06-16.06-16.06z" fill="#00c650"/><path d="m83.424 222.618c-3.893 0-6.7745-.927-8.6445-2.78-1.853-1.87-2.7795-4.751-2.7795-8.644v-11.73c0-3.927.9265-6.817 2.7795-8.67 1.853-1.87 4.7175-2.788 8.5935-2.754h6.171c3.196 0 5.6355.663 7.3185 1.989 1.683 1.309 2.6605 3.383 2.9325 6.222.102.714-.034 1.258-.408 1.632s-.918.561-1.632.561c-1.292 0-2.04-.714-2.244-2.142-.17-1.564-.714-2.618-1.632-3.162-.901-.544-2.346-.816-4.335-.816h-6.171c-1.802-.017-3.2215.187-4.2585.612-1.02.425-1.751 1.164-2.193 2.218-.425 1.037-.6375 2.474-.6375 4.31v11.73c0 1.819.2125 3.247.6375 4.284.442 1.037 1.1815 1.776 2.2185 2.218 1.037.425 2.465.638 4.284.638h6.12c1.989 0 3.434-.272 4.335-.816.918-.561 1.462-1.615 1.632-3.162.204-1.428.952-2.142 2.244-2.142.714 0 1.258.187 1.632.561s.51.918.408 1.632c-.272 2.856-1.2495 4.938-2.9325 6.247s-4.1225 1.964-7.3185 1.964z" fill="#fff"/><path d="m117.379 222.618c-2.907 0-5.176-.587-6.808-1.76-1.615-1.173-2.627-2.983-3.035-5.431-.068-.748.085-1.309.459-1.683s.918-.561 1.632-.561 1.233.17 1.556.51c.34.34.569.867.688 1.581.255 1.173.799 1.98 1.632 2.422.85.425 2.142.638 3.876.638h7.344c2.193 0 3.681-.391 4.463-1.173.799-.799 1.198-2.278 1.198-4.437 0-2.193-.408-3.689-1.224-4.488-.816-.816-2.295-1.224-4.437-1.224h-6.324c-3.213 0-5.601-.782-7.165-2.346-1.547-1.581-2.321-3.978-2.321-7.191 0-3.196.765-5.568 2.295-7.115 1.547-1.547 3.927-2.32 7.14-2.32h6.069c2.703 0 4.82.552 6.35 1.657 1.547 1.105 2.524 2.797 2.932 5.075.102.731-.034 1.292-.408 1.683-.374.374-.935.561-1.683.561-.68 0-1.19-.179-1.53-.536s-.561-.875-.663-1.555c-.272-1.003-.79-1.683-1.555-2.04-.765-.374-1.913-.561-3.443-.561h-6.069c-2.04 0-3.408.365-4.105 1.096-.697.714-1.046 2.066-1.046 4.055 0 2.006.357 3.383 1.071 4.131s2.091 1.122 4.131 1.122h6.324c3.349 0 5.84.816 7.472 2.448 1.649 1.632 2.473 4.148 2.473 7.548 0 3.383-.816 5.882-2.448 7.497-1.632 1.598-4.131 2.397-7.497 2.397z" fill="#fff"/><path d="m154.909 222.618c-.884 0-1.581-.561-2.091-1.683l-12.597-29.835c-.255-.595-.323-1.122-.204-1.581.119-.476.51-.867 1.173-1.173 1.394-.697 2.38-.34 2.958 1.071l11.909 28.203h-1.479l11.602-28.203c.561-1.394 1.547-1.751 2.958-1.071.595.306.961.697 1.097 1.173.153.459.11.986-.128 1.581l-12.699 29.835c-.527 1.122-1.292 1.683-2.295 1.683z" fill="#fff"/><g fill="#00c650"><path d="m118.89 150.8h-73.35c-6.35 0-11.51-6.32-11.51-14.1v-53.19c0-7.77 5.16-14.0901 11.51-14.0901h73.35c6.35 0 11.51 6.3201 11.51 14.0901v53.19c0 7.78-5.16 14.1-11.51 14.1zm-73.35-74.1799c-3.1 0-5.63 3.0899-5.63 6.8899v53.19c0 3.8 2.53 6.89 5.63 6.89h73.35c3.1 0 5.62-3.09 5.62-6.89v-53.19c0-3.8-2.52-6.8899-5.62-6.8899z"/><path d="m127.46 118.77h-90.49v7.21h90.49z"/><path d="m127.46 94.05h-90.49v7.21h90.49z"/><path d="m104.29 73.02h-7.21v74.17h7.21z"/><path d="m67.35 73.02h-7.21v74.17h7.21z"/></g></svg>