<svg fill="none" height="512" viewBox="0 0 201 240" width="512" xmlns="http://www.w3.org/2000/svg"><g fill="#005fad"><path d="m140 49.24c-5.469-.0027-10.713-2.1756-14.581-6.0418-3.868-3.8661-6.044-9.1093-6.049-14.5782v-28.62h-92.17c-3.5348-.00000024-7.0348.696337-10.3003 2.04932-3.2656 1.35298-6.2325 3.33605-8.73149 5.83593-2.49895 2.49985-4.48087 5.46765-5.83264 8.73365-1.351763 3.266-2.046843 6.7664-2.045529 10.3011v162.21c.010598 7.13 2.850419 13.964 7.895869 19.002 5.04549 5.038 11.88399 7.868 19.01409 7.868h110.6c3.535 0 7.035-.696 10.3-2.049 3.266-1.353 6.233-3.336 8.732-5.836s4.481-5.468 5.833-8.734c1.351-3.266 2.046-6.766 2.045-10.301v-139.88z" opacity=".15"/><path d="m164.71 49.24h-24.71c-5.469-.0027-10.713-2.1756-14.581-6.0418-3.868-3.8661-6.044-9.1093-6.049-14.5782v-28.62z"/><path d="m123.78 86.34h-89c-.8566 0-1.6782-.3403-2.2839-.9461-.6057-.6057-.9461-1.4273-.9461-2.2839 0-.8567.3404-1.6782.9461-2.284.6057-.6057 1.4273-.946 2.2839-.946h89c.424 0 .843.0837 1.235.2461.391.1624.746.4005 1.045.7006.3.3.537.6561.698 1.0479.161.3919.243.8117.242 1.2354 0 .8549-.339 1.6749-.943 2.2804-.603.6054-1.422.9469-2.277.9496z"/><path d="m184.1 170.6h-125.0401c-8.8697 0-16.0599 7.19-16.0599 16.06v37.28c0 8.87 7.1902 16.06 16.0599 16.06h125.0401c8.87 0 16.06-7.19 16.06-16.06v-37.28c0-8.87-7.19-16.06-16.06-16.06z"/></g><path d="m70.9235 225c-1.428 0-2.142-.714-2.142-2.142v-30.294c0-1.428.714-2.142 2.142-2.142h12.291c4.437 0 7.701 1.054 9.792 3.162 2.108 2.091 3.162 5.355 3.162 9.792v8.67c0 4.437-1.0455 7.709-3.1365 9.817-2.074 2.091-5.3465 3.137-9.8175 3.137zm2.142-4.284h10.149c2.176 0 3.893-.264 5.151-.791 1.275-.544 2.176-1.445 2.703-2.703.544-1.275.816-3 .816-5.176v-8.67c0-2.159-.272-3.868-.816-5.126-.527-1.275-1.428-2.184-2.703-2.728-1.258-.544-2.975-.816-5.151-.816h-10.149z" fill="#fff"/><path d="m111.962 225c-.935 0-1.598-.612-1.989-1.836l-9.435-29.886c-.204-.646-.111-1.292.28-1.938.408-.646.995-.969 1.76-.969.408 0 .799.136 1.173.408.374.255.646.663.816 1.224l8.313 26.469h-1.122l7.905-26.214c.187-.612.501-1.071.943-1.377.459-.306.927-.459 1.403-.459.51 0 1.003.153 1.479.459s.799.765.969 1.377l7.905 26.214h-1.122l8.313-26.469c.187-.561.45-.961.79-1.199.357-.255.74-.382 1.148-.382.748 0 1.343.289 1.785.867s.544 1.241.306 1.989l-9.435 29.886c-.408 1.224-1.156 1.836-2.244 1.836h-.102c-1.139 0-1.887-.612-2.244-1.836l-8.211-26.571h1.122l-8.262 26.571c-.17.612-.425 1.071-.765 1.377-.323.306-.816.459-1.479.459z" fill="#fff"/><path d="m159.416 225c-3.893 0-6.774-.927-8.644-2.78-1.853-1.87-2.78-4.751-2.78-8.644v-11.73c0-3.927.927-6.817 2.78-8.67 1.853-1.87 4.717-2.788 8.593-2.754h6.171c3.196 0 5.636.663 7.319 1.989 1.683 1.309 2.66 3.383 2.932 6.222.102.714-.034 1.258-.408 1.632s-.918.561-1.632.561c-1.292 0-2.04-.714-2.244-2.142-.17-1.564-.714-2.618-1.632-3.162-.901-.544-2.346-.816-4.335-.816h-6.171c-1.802-.017-3.221.187-4.258.612-1.02.425-1.751 1.164-2.193 2.218-.425 1.037-.638 2.474-.638 4.31v11.73c0 1.819.213 3.247.638 4.284.442 1.037 1.181 1.776 2.218 2.218 1.037.425 2.465.638 4.284.638h6.12c1.581 0 2.814-.17 3.698-.51.901-.357 1.53-.978 1.887-1.862s.535-2.133.535-3.748v-2.397l-3.978-.051c-1.428 0-2.142-.714-2.142-2.142s.714-2.142 2.142-2.142l6.12.051c1.428 0 2.142.714 2.142 2.142v4.539c0 3.621-.841 6.264-2.524 7.93-1.683 1.649-4.31 2.474-7.88 2.474z" fill="#fff"/><path d="m100.81 58.17v89c.001.425-.081.845-.243 1.238-.162.392-.4.749-.7 1.049-.3002.3-.6569.538-1.0494.7-.3924.162-.8131.244-1.2376.243-.4237 0-.8432-.084-1.2345-.246-.3913-.163-.7468-.401-1.0459-.701-.2992-.3-.5362-.656-.6974-1.048s-.2435-.811-.2422-1.235v-89c0-.8549.3389-1.675.9425-2.2805.6036-.6054 1.4226-.9469 2.2775-.9496.8566 0 1.6783.3403 2.284.9461.606.6057.946 1.4274.946 2.284z" fill="#005fad"/><path d="m105.1 72.36h-14.61c-1.6569 0-3 1.3431-3 3v14.61c0 1.6568 1.3431 3 3 3h14.61c1.657 0 3-1.3432 3-3v-14.61c0-1.6569-1.343-3-3-3z" fill="#005fad"/></svg>