<svg fill="none" height="512" viewBox="0 0 200 240" width="512" xmlns="http://www.w3.org/2000/svg"><path d="m139.67 49.24c-5.467-.0053-10.709-2.1794-14.575-6.0453s-6.04-9.1076-6.045-14.5747v-28.62h-92.1401c-7.1352-.00000049-13.9783 2.83379-19.02465 7.87823-5.04631 5.04447-7.88259848 11.88657-7.88525 19.02177v162.22c.0079507 7.132 2.84659 13.969 7.89233 19.009 5.04577 5.04 11.88577 7.871 19.01757 7.871h110.6001c3.535.001 7.035-.694 10.301-2.046 3.266-1.351 6.234-3.333 8.734-5.832s4.483-5.466 5.836-8.732c1.353-3.265 2.049-6.765 2.049-10.3v-139.85z" fill="#00c650" opacity=".15"/><path d="m164.43 49.24h-24.76c-5.467-.0053-10.709-2.1794-14.575-6.0453s-6.04-9.1076-6.045-14.5747v-28.62z" fill="#00c650"/><path d="m183.94 170.6h-125.0401c-8.8697 0-16.0598 7.19-16.0598 16.06v37.28c0 8.87 7.1901 16.06 16.0598 16.06h125.0401c8.87 0 16.06-7.19 16.06-16.06v-37.28c0-8.87-7.19-16.06-16.06-16.06z" fill="#00c650"/><g fill="#fff"><path d="m57.6486 225c-.561 0-1.0625-.213-1.5045-.638-.425-.442-.6375-.943-.6375-1.504v-30.294c0-.561.2125-1.054.6375-1.479.442-.442.9435-.663 1.5045-.663s1.054.221 1.479.663c.442.425.663.918.663 1.479v12.801h20.808v-12.801c0-.561.2125-1.054.6375-1.479.425-.442.9265-.663 1.5045-.663.561 0 1.054.221 1.479.663.442.425.663.918.663 1.479v30.294c0 .561-.221 1.062-.663 1.504-.425.425-.918.638-1.479.638-.578 0-1.0795-.213-1.5045-.638-.425-.442-.6375-.943-.6375-1.504v-13.209h-20.808v13.209c0 .561-.221 1.062-.663 1.504-.425.425-.918.638-1.479.638z"/><path d="m105.853 225c-.714 0-1.25-.179-1.607-.536s-.535-.892-.535-1.606v-28.101h-9.8942c-.714 0-1.2495-.179-1.6065-.536s-.5355-.892-.5355-1.606.1785-1.25.5355-1.607.8925-.535 1.6065-.535h24.0722c.714 0 1.249.178 1.606.535s.536.893.536 1.607-.179 1.249-.536 1.606-.892.536-1.606.536h-9.894v28.101c0 .68-.187 1.207-.561 1.581-.357.374-.884.561-1.581.561z"/><path d="m128.969 225c-1.428 0-2.142-.714-2.142-2.142v-30.294c0-1.428.714-2.142 2.142-2.142.935 0 1.717.459 2.346 1.377l12.036 18.105-.918.153 12.138-18.258c.578-.918 1.445-1.377 2.601-1.377s1.734.714 1.734 2.142v30.294c0 1.428-.714 2.142-2.142 2.142s-2.142-.714-2.142-2.142v-26.01l1.326.459-10.71 15.759c-.629.918-1.496 1.377-2.601 1.377-.765 0-1.462-.459-2.091-1.377l-10.71-15.759 1.275.357v25.194c0 1.428-.714 2.142-2.142 2.142z"/><path d="m171.652 225c-1.428 0-2.142-.714-2.142-2.142v-30.294c0-1.428.714-2.142 2.142-2.142s2.142.714 2.142 2.142v28.152h14.127c1.428 0 2.142.714 2.142 2.142s-.714 2.142-2.142 2.142z"/></g><path d="m41.6398 114.19c-.011-.431.1229-.854.3801-1.2.3034-.39.6682-.728 1.0801-1 .623-.325 1.2678-.605 1.9299-.84l1.93-.8 7.7199-3.25c1.0734-.5 3.0734-1.333 6-2.5l3.6702-1.5 1.3198-.47.23-.1c.0625-.014.1276-.014.1902 0 .1478-.066.308-.101.47-.1.3096-.016.6192.03.9111.134.2918.105.56.267.7888.476.1908.184.343.405.4478.649.1047.243.1599.506.1623.771v2.54c-.009.473-.1588.932-.4302 1.32-.2721.437-.6846.768-1.1699.94l-15.77 6.45 15.77 6.45c.4682.191.8734.51 1.1699.92.2818.371.4332.824.4302 1.29v2.54c-.0061.541-.2254 1.059-.6101 1.44-.2249.216-.4919.384-.7844.492s-.6041.155-.9155.138c-.1609-.001-.3202-.031-.47-.09l-.4202-.14-1.3198-.47-3.6702-1.51-6-2.49-7.7199-3.25-1.93-.8c-.63-.25-1.2699-.53-1.9299-.85-.4108-.191-.763-.488-1.0198-.861-.2568-.372-.409-.807-.4404-1.259z" fill="#00c650"/><path d="m73.22 131.7c-.6234.022-1.2327-.189-1.71-.59-.2125-.165-.3849-.375-.5044-.616s-.1829-.505-.1855-.774c0-.38 1.1299-3 3.3899-8l3.3-7.25.7-1.51 5.32-11.81 1.8799-4.09.3801-.94c.1458-.347.3197-.6815.5201-1 .2639-.4331.6381-.7882 1.0844-1.0289.4464-.2407.9488-.3585 1.4556-.3411h2.3499c.6263-.0214 1.2386.1886 1.7199.59.2107.1655.3813.3765.499.6172.1178.2407.1798.5048.1812.7728-.8005 2.3318-1.7424 4.613-2.8201 6.83l-.52 1.13-4 8.75-5.3201 11.81-1.8798 4.1-.3802.94c-.1344.376-.3052.737-.51 1.08-.2833.426-.6685.775-1.1208 1.014-.4524.239-.9573.362-1.469.356z" fill="#00c650"/><path d="m97.93 129c-.3177.02-.6362-.026-.9355-.134-.2994-.108-.5732-.277-.8045-.496-.1931-.187-.3466-.411-.4514-.658s-.1587-.513-.1584-.782v-2.54c-.0046-.461.1352-.912.3999-1.29.2991-.42.717-.74 1.1999-.92l15.81-6.45-15.81-6.45c-.4815-.213-.8912-.56-1.1799-1-.2656-.382-.4117-.835-.4199-1.3v-2.58c.0003-.268.0563-.532.1648-.777.1085-.244.2669-.463.4651-.643.4717-.42 1.089-.639 1.7199-.61.1495-.004.2977.031.4302.1.086-.015.174-.015.26 0l.21.1c-.07 0 .36.12 1.2698.47l3.72 1.5c-.193-.087 1.807.747 6 2.5 2.287.94 4.907 2.053 7.86 3.34.19.06.44.16.76.28l1.08.43c.634.226 1.246.507 1.83.84.422.19.782.493 1.04.877.257.383.403.831.42 1.293v3.1c-.004.426-.144.839-.4 1.18-.277.39-.639.712-1.06.94-.56.28-1.24.58-2 .9l-2 .8-17.42 7.29c-.5.25-.7999.41-.8899.47l-.1899.14z" fill="#00c650"/></svg>