<svg fill="none" height="512" viewBox="0 0 201 240" width="512" xmlns="http://www.w3.org/2000/svg"><g fill="#005fad"><path d="m139.81 49.24c-5.467-.0053-10.709-2.1794-14.575-6.0453s-6.04-9.1076-6.045-14.5747v-28.61999814h-92.1299c-3.5348-.00131353-7.0352.69376614-10.3012 2.04552814-3.266 1.35177-6.2337 3.33375-8.73363 5.83271-2.49989 2.49896-4.48296 5.46596-5.83594 8.73146-1.352978 3.2655-2.049316 6.7656-2.049315 10.3003v162.22c.0106 7.132 2.851795 13.968 7.899415 19.006 5.04757 5.038 11.88887 7.867 19.02067 7.864h110.5999c7.137 0 13.982-2.835 19.028-7.882 5.047-5.046 7.882-11.891 7.882-19.028v-139.85z" opacity=".15"/><path d="m164.57 49.24h-24.76c-5.467-.0053-10.709-2.1794-14.575-6.0453s-6.04-9.1076-6.045-14.5747v-28.62z"/><path d="m184.09 170.6h-125.04c-8.8697 0-16.06 7.19-16.06 16.06v37.28c0 8.87 7.1903 16.06 16.06 16.06h125.04c8.87 0 16.06-7.19 16.06-16.06v-37.28c0-8.87-7.19-16.06-16.06-16.06z"/></g><path d="m81.781 225c-1.428 0-2.142-.714-2.142-2.142v-30.294c0-1.428.714-2.142 2.142-2.142.935 0 1.717.459 2.346 1.377l12.036 18.105-.918.153 12.138-18.258c.578-.918 1.445-1.377 2.601-1.377s1.734.714 1.734 2.142v30.294c0 1.428-.714 2.142-2.142 2.142s-2.142-.714-2.142-2.142v-26.01l1.326.459-10.71 15.759c-.629.918-1.496 1.377-2.601 1.377-.765 0-1.462-.459-2.091-1.377l-10.71-15.759 1.275.357v25.194c0 1.428-.714 2.142-2.142 2.142z" fill="#fff"/><path d="m124.464 225c-.731 0-1.275-.17-1.632-.51-.34-.357-.51-.901-.51-1.632v-30.243c0-.748.17-1.292.51-1.632.357-.34.901-.51 1.632-.51.748 0 1.292.17 1.632.51s.51.884.51 1.632v30.243c0 .731-.17 1.275-.51 1.632-.34.34-.884.51-1.632.51z" fill="#fff"/><path d="m139.355 225c-1.428 0-2.142-.714-2.142-2.142v-30.294c0-1.428.714-2.142 2.142-2.142h12.291c4.437 0 7.701 1.054 9.792 3.162 2.108 2.091 3.162 5.355 3.162 9.792v8.67c0 4.437-1.045 7.709-3.136 9.817-2.074 2.091-5.347 3.137-9.818 3.137zm2.142-4.284h10.149c2.176 0 3.893-.264 5.151-.791 1.275-.544 2.176-1.445 2.703-2.703.544-1.275.816-3 .816-5.176v-8.67c0-2.159-.272-3.868-.816-5.126-.527-1.275-1.428-2.184-2.703-2.728-1.258-.544-2.975-.816-5.151-.816h-10.149z" fill="#fff"/><path d="m120.37 131.92h-10.95v-44.2599c0-1.4826-.589-2.9044-1.637-3.9527-1.049-1.0484-2.47-1.6373-3.953-1.6373h-28c-1.4835 0-2.9063.5886-3.9562 1.6367-1.0499 1.048-1.6412 2.4698-1.6438 3.9533v44.2599h-11v-47.9999c.0026-3.401 1.3555-6.6618 3.7613-9.0657 2.4058-2.404 5.6678-3.7543 9.0688-3.7543h35.4099c3.4 0 6.661 1.3507 9.065 3.7549s3.755 5.665 3.755 9.0651z" fill="#005fad"/><path d="m107.39 144.9c7.169 0 12.98-5.811 12.98-12.98s-5.811-12.98-12.98-12.98-12.9801 5.811-12.9801 12.98 5.8111 12.98 12.9801 12.98z" fill="#005fad"/><path d="m57.3201 144.9c7.1686 0 12.9799-5.811 12.9799-12.98s-5.8113-12.98-12.9799-12.98c-7.1687 0-12.98 5.811-12.98 12.98s5.8113 12.98 12.98 12.98z" fill="#005fad"/></svg>