<svg fill="none" height="512" viewBox="0 0 201 240" width="512" xmlns="http://www.w3.org/2000/svg"><path d="m140.53 49.24c-5.468-.0053-10.711-2.1791-14.578-6.0447-3.868-3.8656-6.044-9.1072-6.052-14.5753v-28.62h-92.13c-7.137 0-13.9817 2.83517-19.0283 7.88177-5.0466 5.04663-7.881593 11.89123-7.881593 19.02823v162.22c.010599 7.13 2.850293 13.964 7.895753 19.002 5.04544 5.038 11.88414 7.868 19.01414 7.868h110.6c7.137 0 13.982-2.835 19.028-7.882 5.047-5.046 7.882-11.891 7.882-19.028v-139.85z" fill="#00c650" opacity=".15"/><path d="m165.28 49.24h-24.75c-5.468-.0053-10.711-2.1791-14.578-6.0447-3.868-3.8656-6.044-9.1072-6.052-14.5753v-28.62z" fill="#00c650"/><path d="m184.8 170.6h-125.04c-8.8697 0-16.06 7.19-16.06 16.06v37.28c0 8.87 7.1903 16.06 16.06 16.06h125.04c8.87 0 16.06-7.19 16.06-16.06v-37.28c0-8.87-7.19-16.06-16.06-16.06z" fill="#00c650"/><g fill="#fff"><path d="m59.7941 225c-1.428 0-2.142-.714-2.142-2.142v-30.294c0-1.428.714-2.142 2.142-2.142.935 0 1.717.459 2.346 1.377l12.036 18.105-.918.153 12.138-18.258c.578-.918 1.445-1.377 2.601-1.377s1.734.714 1.734 2.142v30.294c0 1.428-.714 2.142-2.142 2.142s-2.142-.714-2.142-2.142v-26.01l1.326.459-10.71 15.759c-.629.918-1.496 1.377-2.601 1.377-.765 0-1.462-.459-2.091-1.377l-10.71-15.759 1.275.357v25.194c0 1.428-.714 2.142-2.142 2.142z"/><path d="m102.477 225c-1.428 0-2.142-.714-2.142-2.142v-30.294c0-1.428.714-2.142 2.142-2.142h11.934c3.111 0 5.491.833 7.14 2.499 1.666 1.649 2.499 4.029 2.499 7.14v1.53c0 3.111-.833 5.5-2.499 7.166-1.649 1.649-4.029 2.473-7.14 2.473h-9.792v11.628c0 1.428-.714 2.142-2.142 2.142zm2.142-18.054h9.792c1.938 0 3.315-.408 4.131-1.224s1.224-2.193 1.224-4.131v-1.53c0-1.921-.408-3.289-1.224-4.105-.816-.833-2.193-1.25-4.131-1.25h-9.792z"/><path d="m133.754 225c-1.428 0-2.142-.714-2.142-2.142v-30.294c0-1.428.714-2.142 2.142-2.142h18.309c1.428 0 2.142.714 2.142 2.142s-.714 2.142-2.142 2.142h-16.167v10.71h10.149c1.428 0 2.142.714 2.142 2.142s-.714 2.142-2.142 2.142h-10.149v11.016h16.167c1.428 0 2.142.714 2.142 2.142s-.714 2.142-2.142 2.142z"/><path d="m171.545 225c-3.893 0-6.774-.926-8.644-2.779-1.853-1.87-2.78-4.752-2.78-8.645v-11.73c0-3.927.927-6.817 2.78-8.67 1.853-1.87 4.717-2.788 8.593-2.754h6.171c3.196 0 5.636.663 7.319 1.989 1.683 1.309 2.66 3.383 2.932 6.222.102.714-.034 1.258-.408 1.632s-.918.561-1.632.561c-1.292 0-2.04-.714-2.244-2.142-.17-1.564-.714-2.618-1.632-3.162-.901-.544-2.346-.816-4.335-.816h-6.171c-1.802-.017-3.221.187-4.258.612-1.02.425-1.751 1.165-2.193 2.219-.425 1.037-.638 2.473-.638 4.309v11.73c0 1.819.213 3.247.638 4.284.442 1.037 1.181 1.777 2.218 2.219 1.037.425 2.465.637 4.284.637h6.12c1.581 0 2.814-.17 3.698-.51.901-.357 1.53-.977 1.887-1.861s.535-2.134.535-3.749v-2.397l-3.978-.051c-1.428 0-2.142-.714-2.142-2.142s.714-2.142 2.142-2.142l6.12.051c1.428 0 2.142.714 2.142 2.142v4.539c0 3.621-.841 6.265-2.524 7.931-1.683 1.649-4.31 2.473-7.88 2.473z"/></g><path d="m120.3 131.91v-47.71c-.003-.2316-.026-.4626-.07-.69.006-.0665.006-.1335 0-.2 0-.16-.09-.31-.14-.46l-.09-.2c-.065-.1463-.142-.2868-.23-.42l-.09-.16c-.129-.1788-.269-.3491-.42-.51l-.07-.06c-.136-.1283-.28-.2484-.43-.36l-.18-.11c-.13-.08-.27-.15-.41-.22l-.2-.09c-.16-.0605-.324-.1105-.49-.15h-.16c-.223-.0485-.452-.072-.68-.07h-67.3601c-.9257.0847-1.7864.5121-2.4135 1.1984-.6271.6862-.9755 1.582-.9766 2.5116v.17 47.68c-.0198.613.1747 1.214.5501 1.7.3304.554.7989 1.013 1.3598 1.332s1.1949.487 1.8401.488h67.0002c.966-.02 1.886-.414 2.569-1.098.682-.684 1.073-1.606 1.091-2.572zm-68.49-42.43c-1.1046 0-2-.8955-2-2v-3.24c0-1.1046.8954-2 2-2h1.8899c1.1045 0 2 .8954 2 2v3.24c0 1.1045-.8955 2-2 2zm9.9399 0c-1.1046 0-2-.8955-2-2v-3.24c0-1.1046.8954-2 2-2h1.8899c1.1046 0 2 .8954 2 2v3.24c0 1.1045-.8954 2-2 2zm9.94 0c-1.1046 0-2-.8955-2-2v-3.24c0-1.1046.8954-2 2-2h1.8901c1.1046 0 2 .8954 2 2v3.24c0 1.1045-.8954 2-2 2zm9.9399 0c-1.1046 0-2-.8955-2-2v-3.24c0-1.1046.8954-2 2-2h1.8901c1.1046 0 2 .8954 2 2v3.24c0 1.1045-.8954 2-2 2zm9.9402 0c-1.1046 0-2-.8955-2-2v-3.24c0-1.1046.8954-2 2-2h1.8899c1.1045 0 2 .8954 2 2v3.24c0 1.1045-.8955 2-2 2zm9.94 0c-1.105 0-2.0001-.8955-2.0001-2v-3.24c0-1.1046.8951-2 2.0001-2h1.89c1.104 0 2 .8954 2 2v3.24c0 1.1045-.896 2-2 2zm9.94 0c-1.105 0-2-.8955-2-2v-3.24c0-1.1046.895-2 2-2h1.89c1.105 0 2 .8954 2 2v3.24c0 1.1045-.895 2-2 2zm-61.0001 35.11c-1.1046 0-2-.895-2-2v-29.15c0-1.1046.8954-2 2-2h65.2201c1.104 0 2 .8954 2 2v29.15c0 1.105-.896 2-2 2zm1.3501 9.19c-1.1046 0-2-.895-2-2v-3.24c0-1.105.8954-2 2-2h1.8899c1.1045 0 2 .895 2 2v3.24c0 1.105-.8955 2-2 2zm9.9399 0c-1.1046 0-2-.895-2-2v-3.24c0-1.105.8954-2 2-2h1.8899c1.1046 0 2 .895 2 2v3.24c0 1.105-.8954 2-2 2zm9.9399 0c-1.1045 0-2-.895-2-2v-3.24c0-1.105.8955-2 2-2h1.8902c1.1046 0 2 .895 2 2v3.24c0 1.105-.8954 2-2 2zm9.9402 0c-1.1045 0-2-.895-2-2v-3.24c0-1.105.8955-2 2-2h1.8899c1.1046 0 2 .895 2 2v3.24c0 1.105-.8954 2-2 2zm9.94 0c-1.1046 0-2-.895-2-2v-3.24c0-1.105.8954-2 2-2h1.8899c1.1045 0 2 .895 2 2v3.24c0 1.105-.8955 2-2 2zm9.94 0c-1.105 0-2.0001-.895-2.0001-2v-3.24c0-1.105.8951-2 2.0001-2h1.89c1.104 0 2 .895 2 2v3.24c0 1.105-.896 2-2 2zm9.94 0c-1.105 0-2-.895-2-2v-3.24c0-1.105.895-2 2-2h1.89c1.105 0 2 .895 2 2v3.24c0 1.105-.895 2-2 2z" fill="#00c650"/><path d="m91.0801 105.56-9.5701-5.53c-.4953-.286-1.0572-.4366-1.6291-.4367-.572-.0002-1.1339.1501-1.6294.4357-.4955.286-.9073.697-1.1936 1.192-.2864.495-.4372 1.057-.4378 1.629v11.06c.0006.572.1514 1.134.4378 1.629.2863.495.6981.906 1.1936 1.192s1.0574.436 1.6294.436c.5719 0 1.1338-.151 1.6291-.437l9.5701-5.53c.494-.287.9041-.698 1.1892-1.193s.435-1.056.435-1.627-.1499-1.132-.435-1.627-.6952-.906-1.1892-1.193z" fill="#00c650"/></svg>