<svg fill="none" height="512" viewBox="0 0 201 241" width="512" xmlns="http://www.w3.org/2000/svg"><g fill="#ff3e4c"><path d="m140.24 49.25c-5.467-.0053-10.709-2.1796-14.575-6.0454-3.866-3.8659-6.04-9.1076-6.045-14.5747v-28.6299h-92.14c-7.137 0-13.9816 2.83523-19.02822 7.88184-5.0466 5.04656-7.881773 11.89106-7.881773 19.02806v162.2201c.010599 7.13 2.850423 13.964 7.895873 19.002 5.04542 5.038 11.88402 7.868 19.01412 7.868h110.61c7.13 0 13.969-2.83 19.014-7.868 5.046-5.038 7.885-11.872 7.896-19.002v-139.88z" opacity=".15"/><path d="m165 49.25h-24.76c-5.467-.0053-10.709-2.1796-14.575-6.0454-3.866-3.8659-6.04-9.1076-6.045-14.5747v-28.6299z"/><path d="m131.17 150.84h-103.24c-.9946 0-1.9484-.395-2.6517-1.098-.7032-.704-1.0983-1.657-1.0983-2.652.0026-.993.3989-1.944 1.1019-2.645.7029-.701 1.6553-1.095 2.6481-1.095h103.24c.992 0 1.943.394 2.645 1.095.701.702 1.095 1.653 1.095 2.645.001.492-.094.98-.282 1.434-.187.455-.462.869-.81 1.217-.347.348-.76.625-1.214.813-.455.189-.942.286-1.434.286z"/><path d="m131.17 108.6h-103.24c-.9928 0-1.9452-.394-2.6481-1.095-.703-.701-1.0993-1.652-1.1019-2.645 0-.994.3951-1.948 1.0983-2.652.7033-.703 1.6571-1.098 2.6517-1.098h103.24c.492 0 .979.097 1.434.286.454.188.867.465 1.214.813.348.348.623.762.81 1.217.188.455.283.942.282 1.434 0 .992-.394 1.943-1.095 2.645-.702.701-1.653 1.095-2.645 1.095z"/><path d="m131.17 129.72h-103.24c-.9946 0-1.9484-.395-2.6517-1.098-.7032-.704-1.0983-1.657-1.0983-2.652.0026-.993.3989-1.944 1.1019-2.645.7029-.701 1.6553-1.095 2.6481-1.095h103.24c.992 0 1.943.394 2.645 1.095.701.702 1.095 1.653 1.095 2.645.001.492-.094.979-.282 1.434-.187.455-.462.869-.81 1.217-.347.348-.76.625-1.214.813-.455.189-.942.286-1.434.286z"/><path d="m90.45 87.48h-62.52c-.9928 0-1.9452-.3936-2.6481-1.0947-.703-.7011-1.0993-1.6525-1.1019-2.6453 0-.9946.3951-1.9484 1.0983-2.6516.7033-.7033 1.6571-1.0984 2.6517-1.0984h62.52c.9928.0026 1.9441.3988 2.6452 1.1018s1.0948 1.6554 1.0948 2.6482c-.0026.9911-.3975 1.9408-1.0983 2.6416s-1.6506 1.0957-2.6417 1.0984z"/><path d="m90.45 66.3601h-62.52c-.9928 0-1.9452-.3939-2.6481-1.095-.703-.7011-1.0993-1.6522-1.1019-2.645 0-.9945.3951-1.9486 1.0983-2.6518.7033-.7033 1.6571-1.0982 2.6517-1.0982h62.52c.9928.0027 1.9441.3988 2.6452 1.1018s1.0948 1.6554 1.0948 2.6482c-.0026.9911-.3975 1.9408-1.0983 2.6416s-1.6506 1.0958-2.6417 1.0984z"/><path d="m184.1 171h-125.04c-8.8697 0-16.06 7.19-16.06 16.06v37.28c0 8.87 7.1903 16.06 16.06 16.06h125.04c8.87 0 16.06-7.19 16.06-16.06v-37.28c0-8.87-7.19-16.06-16.06-16.06z"/></g><path d="m80.76 225c-1.428 0-2.142-.714-2.142-2.142v-30.294c0-1.428.714-2.142 2.142-2.142h11.934c3.111 0 5.491.833 7.14 2.499 1.666 1.649 2.499 4.029 2.499 7.14v1.53c0 3.111-.833 5.499-2.499 7.165-1.649 1.649-4.029 2.474-7.14 2.474h-9.792v11.628c0 1.428-.714 2.142-2.142 2.142zm2.142-18.054h9.792c1.938 0 3.315-.408 4.131-1.224s1.224-2.193 1.224-4.131v-1.53c0-1.921-.408-3.29-1.224-4.106-.816-.833-2.193-1.249-4.131-1.249h-9.792z" fill="#fff"/><path d="m112.037 225c-1.428 0-2.142-.714-2.142-2.142v-30.294c0-1.428.714-2.142 2.142-2.142h12.291c4.437 0 7.701 1.054 9.792 3.162 2.108 2.091 3.162 5.355 3.162 9.792v8.67c0 4.437-1.045 7.709-3.136 9.817-2.074 2.091-5.347 3.137-9.818 3.137zm2.142-4.284h10.149c2.176 0 3.893-.264 5.151-.791 1.275-.544 2.176-1.445 2.703-2.703.544-1.275.816-3 .816-5.176v-8.67c0-2.159-.272-3.868-.816-5.126-.527-1.275-1.428-2.184-2.703-2.728-1.258-.544-2.975-.816-5.151-.816h-10.149z" fill="#fff"/><path d="m148.793 225c-1.428 0-2.142-.714-2.142-2.142v-30.294c0-1.428.714-2.142 2.142-2.142h18.768c.663 0 1.182.195 1.556.586.391.374.586.893.586 1.556 0 1.428-.714 2.142-2.142 2.142h-16.626v10.71h10.251c1.428 0 2.142.714 2.142 2.142s-.714 2.142-2.142 2.142h-10.251v13.158c0 1.428-.714 2.142-2.142 2.142z" fill="#fff"/><path d="m129.34 58.87h-17.68c-3.082 0-5.58 2.4982-5.58 5.58v17.68c0 3.0817 2.498 5.58 5.58 5.58h17.68c3.082 0 5.58-2.4983 5.58-5.58v-17.68c0-3.0818-2.498-5.58-5.58-5.58z" fill="#ff3e4c"/></svg>