<svg fill="none" height="512" viewBox="0 0 201 240" width="512" xmlns="http://www.w3.org/2000/svg"><path d="m140.24 49.24c-5.467-.0053-10.709-2.1794-14.575-6.0453s-6.04-9.1076-6.045-14.5747v-28.62h-92.14c-7.137 0-13.9816 2.83517-19.02822 7.88177-5.0466 5.04663-7.881773 11.89123-7.881773 19.02823v162.22c.010599 7.13 2.850423 13.964 7.895873 19.002 5.04542 5.038 11.88402 7.868 19.01412 7.868h110.61c7.132 0 13.972-2.831 19.018-7.871 5.045-5.04 7.884-11.877 7.892-19.009v-139.88z" fill="#005fad" opacity=".15"/><path d="m165 49.24h-24.76c-5.467-.0053-10.709-2.1794-14.575-6.0453s-6.04-9.1076-6.045-14.5747v-28.62z" fill="#005fad"/><path d="m184.51 170.6h-125.04c-8.8697 0-16.06 7.19-16.06 16.06v37.28c0 8.87 7.1903 16.06 16.06 16.06h125.04c8.87 0 16.06-7.19 16.06-16.06v-37.28c0-8.87-7.19-16.06-16.06-16.06z" fill="#005fad"/><path d="m76.7029 225c-1.428 0-2.142-.714-2.142-2.142v-30.294c0-1.428.714-2.142 2.142-2.142h11.934c3.111 0 5.491.833 7.14 2.499 1.666 1.649 2.499 4.029 2.499 7.14v1.53c0 3.111-.833 5.5-2.499 7.166-1.649 1.649-4.029 2.473-7.14 2.473h-9.792v11.628c0 1.428-.714 2.142-2.142 2.142zm2.142-18.054h9.792c1.938 0 3.315-.408 4.131-1.224s1.224-2.193 1.224-4.131v-1.53c0-1.921-.408-3.289-1.224-4.105-.816-.833-2.193-1.25-4.131-1.25h-9.792z" fill="#fff"/><path d="m107.98 225c-1.428 0-2.142-.714-2.142-2.142v-30.294c0-1.428.714-2.142 2.142-2.142.731 0 1.445.425 2.142 1.275l20.502 26.418h-1.071v-25.551c0-1.428.714-2.142 2.142-2.142s2.142.714 2.142 2.142v30.294c0 1.428-.714 2.142-2.142 2.142-.765 0-1.479-.425-2.142-1.275l-20.502-26.418h1.071v25.551c0 1.428-.714 2.142-2.142 2.142z" fill="#fff"/><path d="m154.637 225c-3.893 0-6.775-.926-8.645-2.779-1.853-1.87-2.779-4.752-2.779-8.645v-11.73c0-3.927.926-6.817 2.779-8.67 1.853-1.87 4.718-2.788 8.594-2.754h6.171c3.196 0 5.635.663 7.318 1.989 1.683 1.309 2.661 3.383 2.933 6.222.102.714-.034 1.258-.408 1.632s-.918.561-1.632.561c-1.292 0-2.04-.714-2.244-2.142-.17-1.564-.714-2.618-1.632-3.162-.901-.544-2.346-.816-4.335-.816h-6.171c-1.802-.017-3.222.187-4.259.612-1.02.425-1.751 1.165-2.193 2.219-.425 1.037-.637 2.473-.637 4.309v11.73c0 1.819.212 3.247.637 4.284.442 1.037 1.182 1.777 2.219 2.219 1.037.425 2.465.637 4.284.637h6.12c1.581 0 2.813-.17 3.697-.51.901-.357 1.53-.977 1.887-1.861s.536-2.134.536-3.749v-2.397l-3.978-.051c-1.428 0-2.142-.714-2.142-2.142s.714-2.142 2.142-2.142l6.12.051c1.428 0 2.142.714 2.142 2.142v4.539c0 3.621-.842 6.265-2.525 7.931-1.683 1.649-4.309 2.473-7.879 2.473z" fill="#fff"/><g fill="#005fad"><path d="m53.27 66.72h-9.75c-1.1046 0-2 .8954-2 2v9.75c0 1.1045.8954 2 2 2h9.75c1.1046 0 2-.8955 2-2v-9.75c0-1.1046-.8954-2-2-2z"/><path d="m67.03 80.47h-9.75c-1.1045 0-2 .8954-2 2v9.75c0 1.1045.8955 2 2 2h9.75c1.1046 0 2-.8955 2-2v-9.75c0-1.1046-.8954-2-2-2z"/><path d="m80.78 66.72h-9.75c-1.1045 0-2 .8954-2 2v9.75c0 1.1045.8955 2 2 2h9.75c1.1046 0 2-.8955 2-2v-9.75c0-1.1046-.8954-2-2-2z"/><path d="m94.5301 80.47h-9.7501c-1.1045 0-2 .8954-2 2v9.75c0 1.1045.8955 2 2 2h9.7501c1.1045 0 2-.8955 2-2v-9.75c0-1.1046-.8955-2-2-2z"/><path d="m108.3 66.72h-9.75c-1.1046 0-2 .8954-2 2v9.75c0 1.1045.8954 2 2 2h9.75c1.105 0 2-.8955 2-2v-9.75c0-1.1046-.895-2-2-2z"/><path d="m122.05 80.47h-9.75c-1.105 0-2 .8954-2 2v9.75c0 1.1045.895 2 2 2h9.75c1.105 0 2-.8955 2-2v-9.75c0-1.1046-.895-2-2-2z"/><path d="m53.27 94.2h-9.75c-1.1046 0-2 .8954-2 2v9.75c0 1.105.8954 2 2 2h9.75c1.1046 0 2-.895 2-2v-9.75c0-1.1046-.8954-2-2-2z"/><path d="m67.03 107.95h-9.75c-1.1045 0-2 .895-2 2v9.75c0 1.105.8955 2 2 2h9.75c1.1046 0 2-.895 2-2v-9.75c0-1.105-.8954-2-2-2z"/><path d="m80.78 94.2h-9.75c-1.1045 0-2 .8954-2 2v9.75c0 1.105.8955 2 2 2h9.75c1.1046 0 2-.895 2-2v-9.75c0-1.1046-.8954-2-2-2z"/><path d="m94.5301 107.95h-9.7501c-1.1045 0-2 .895-2 2v9.75c0 1.105.8955 2 2 2h9.7501c1.1045 0 2-.895 2-2v-9.75c0-1.105-.8955-2-2-2z"/><path d="m108.3 94.2h-9.75c-1.1046 0-2 .8954-2 2v9.75c0 1.105.8954 2 2 2h9.75c1.105 0 2-.895 2-2v-9.75c0-1.1046-.895-2-2-2z"/><path d="m122.05 107.95h-9.75c-1.105 0-2 .895-2 2v9.75c0 1.105.895 2 2 2h9.75c1.105 0 2-.895 2-2v-9.75c0-1.105-.895-2-2-2z"/><path d="m53.27 121.81h-9.75c-1.1046 0-2 .895-2 2v9.75c0 1.105.8954 2 2 2h9.75c1.1046 0 2-.895 2-2v-9.75c0-1.105-.8954-2-2-2z"/><path d="m67.03 135.56h-9.75c-1.1045 0-2 .895-2 2v9.75c0 1.105.8955 2 2 2h9.75c1.1046 0 2-.895 2-2v-9.75c0-1.105-.8954-2-2-2z"/><path d="m80.78 121.81h-9.75c-1.1045 0-2 .895-2 2v9.75c0 1.105.8955 2 2 2h9.75c1.1046 0 2-.895 2-2v-9.75c0-1.105-.8954-2-2-2z"/><path d="m94.5301 135.56h-9.7501c-1.1045 0-2 .895-2 2v9.75c0 1.105.8955 2 2 2h9.7501c1.1045 0 2-.895 2-2v-9.75c0-1.105-.8955-2-2-2z"/><path d="m108.3 121.81h-9.75c-1.1046 0-2 .895-2 2v9.75c0 1.105.8954 2 2 2h9.75c1.105 0 2-.895 2-2v-9.75c0-1.105-.895-2-2-2z"/><path d="m122.05 135.56h-9.75c-1.105 0-2 .895-2 2v9.75c0 1.105.895 2 2 2h9.75c1.105 0 2-.895 2-2v-9.75c0-1.105-.895-2-2-2z"/></g></svg>