<svg fill="none" height="512" viewBox="0 0 200 240" width="512" xmlns="http://www.w3.org/2000/svg"><g fill="#ff3e4c"><path d="m139.67 49.24c-5.467-.0053-10.709-2.1794-14.575-6.0453s-6.04-9.1076-6.045-14.5747v-28.62h-92.14c-7.1352-.00000049-13.9784 2.83379-19.02472 7.87823-5.04631 5.04447-7.88262848 11.88657-7.88528 19.02177v162.22c.0079507 7.132 2.84661 13.969 7.89235 19.009 5.04575 5.04 11.88585 7.871 19.01765 7.871h110.6c3.535.001 7.035-.694 10.301-2.046 3.266-1.351 6.234-3.333 8.734-5.832s4.483-5.466 5.836-8.732c1.353-3.265 2.049-6.765 2.049-10.3v-139.85z" opacity=".15"/><path d="m164.43 49.24h-24.76c-5.467-.0053-10.709-2.1794-14.575-6.0453s-6.04-9.1076-6.045-14.5747v-28.62z"/><path d="m183.94 170.6h-125.04c-8.8697 0-16.06 7.19-16.06 16.06v37.28c0 8.87 7.1903 16.06 16.06 16.06h125.04c8.87 0 16.06-7.19 16.06-16.06v-37.28c0-8.87-7.19-16.06-16.06-16.06z"/></g><path d="m93.5556 225.102c-.561.357-1.0965.467-1.6065.331s-.9435-.484-1.3005-1.045l-7.905-13.158h-7.14v11.628c0 1.428-.714 2.142-2.142 2.142s-2.142-.714-2.142-2.142v-30.294c0-1.428.714-2.142 2.142-2.142h11.934c3.111 0 5.491.833 7.14 2.499 1.666 1.649 2.499 4.029 2.499 7.14v1.53c0 2.703-.629 4.862-1.887 6.477-1.258 1.598-3.077 2.592-5.457 2.983l6.681 11.144c.646 1.19.374 2.159-.816 2.907zm-17.952-18.156h9.792c1.938 0 3.315-.408 4.131-1.224s1.224-2.193 1.224-4.131v-1.53c0-1.921-.408-3.29-1.224-4.106-.816-.833-2.193-1.249-4.131-1.249h-9.792z" fill="#fff"/><path d="m101.563 224.796c-1.36-.527-1.7684-1.462-1.224-2.805l12.138-29.886c.51-1.122 1.309-1.683 2.397-1.683h.102c1.105.051 1.853.612 2.244 1.683l12.342 29.886c.544 1.343.153 2.278-1.173 2.805-1.343.527-2.278.136-2.805-1.173l-2.754-6.681h-15.887l-2.626 6.681c-.527 1.326-1.445 1.717-2.754 1.173zm7.063-12.138h12.444l-6.349-15.453z" fill="#fff"/><path d="m143.038 225c-.935 0-1.598-.612-1.989-1.836l-9.435-29.886c-.204-.646-.111-1.292.28-1.938.408-.646.995-.969 1.76-.969.408 0 .799.136 1.173.408.374.255.646.663.816 1.224l8.313 26.469h-1.122l7.905-26.214c.187-.612.501-1.071.943-1.377.459-.306.927-.459 1.403-.459.51 0 1.003.153 1.479.459s.799.765.969 1.377l7.905 26.214h-1.122l8.313-26.469c.187-.561.45-.961.79-1.199.357-.255.74-.382 1.148-.382.748 0 1.343.289 1.785.867s.544 1.241.306 1.989l-9.435 29.886c-.408 1.224-1.156 1.836-2.244 1.836h-.102c-1.139 0-1.887-.612-2.244-1.836l-8.211-26.571h1.122l-8.262 26.571c-.17.612-.425 1.071-.765 1.377-.323.306-.816.459-1.479.459z" fill="#fff"/><path clip-rule="evenodd" d="m76.3099 64.4005c2.3062-.3141 3.7926 2.1596 2.6351 4.1789l-.545.9506-9.09 15.88-4 7-2.4268 4.276c-1.1418 2.0118-4.0346 2.0291-5.2003.0311l-2.5129-4.3071-4-7-1.9635-3.3904c-.6241-1.0775-.5249-2.4352.3047-3.3637 6.7813-7.5899 16.006-12.6075 26.1088-14.1559.2297-.035.4597-.0681.6899-.0995zm3.5849 16.5176c-1.1464 2 .2975 4.4919 2.6027 4.4919h32.2275c2.327 0 3.733-2.5182 2.312-4.3606-.134-.1741-.27-.3472-.407-.5194-6.381-8.0099-15.345-13.5219-25.3247-15.6202-1.2244-.2575-2.4559.3406-3.0755 1.4276l-1.8198 3.1926-4 7zm-39.5237 40.7899c.3869 1.185 1.5128 1.952 2.7588 1.952h16.9695c2.3192 0 3.7613-2.519 2.5869-4.519l-2.3963-4.081-4-6.94-9.19-15.77-.7059-1.2117c-1.1688-2.0061-4.0455-1.9595-4.9283.1879-.1395.3395-.2748.6808-.4058 1.0238-1.8981 4.999-2.8673 10.303-2.86 15.65-.0074 4.66.7268 9.287 2.1711 13.708zm49.1689 29.712c9.8409-1.66 18.804-6.612 25.439-14.012.83-.925.933-2.28.315-3.357l-1.944-3.391-4-7-2.323-4.058c-1.146-2.002-4.03-2.015-5.194-.022l-2.383 4.08-4.08 7-9 15.36-.8272 1.402c-1.1893 2.016.2885 4.517 2.6083 4.206.4639-.062.927-.131 1.3889-.208zm36.69-43.42c.009 5.348-.964 10.653-2.87 15.65-.126.331-.255.66-.389.987-.882 2.163-3.78 2.202-4.939.173l-.662-1.16-8.86-15.47-4-7-2.508-4.379c-1.145-2 .299-4.4909 2.603-4.4909h16.663c1.242 0 2.365.7626 2.755 1.942 1.464 4.431 2.211 9.0729 2.207 13.7479zm-43.91 31.08 2.3248-3.934c1.182-1.999-.2596-4.526-2.5826-4.526h-32.3131c-2.3342 0-3.7396 2.532-2.3087 4.376.281.362.5675.72.8596 1.074 6.3421 7.673 15.0843 12.952 24.7828 15.009 1.2154.258 2.4406-.327 3.0669-1.4l2.1703-3.719z" fill="#ff3e4c" fill-rule="evenodd"/></svg>