<svg fill="none" height="512" viewBox="0 0 192 240" width="512" xmlns="http://www.w3.org/2000/svg"><path d="m139.81 49.24c-5.467-.0053-10.709-2.1794-14.575-6.0453s-6.04-9.1076-6.045-14.5747v-28.62h-92.1299c-7.1397 0-13.987 2.83616-19.03544 7.88464-5.04848 5.04846-7.884645 11.89576-7.884645 19.03536v162.21c0 7.14 2.836165 13.987 7.884645 19.035 5.04844 5.049 11.89574 7.885 19.03544 7.885h110.5999c3.535 0 7.035-.696 10.3-2.049 3.266-1.353 6.233-3.336 8.732-5.836s4.481-5.468 5.832-8.734c1.352-3.266 2.047-6.766 2.046-10.301v-139.88z" fill="#ff9908" opacity=".15"/><path d="m164.52 49.24h-24.76c-5.467-.0053-10.709-2.1794-14.575-6.0453-3.865-3.8659-6.04-9.1076-6.045-14.5747v-28.62z" fill="#ff9908"/><path d="m175.09 170.6h-125.04c-8.8697 0-16.06 7.19-16.06 16.06v37.28c0 8.87 7.1903 16.06 16.06 16.06h125.04c8.87 0 16.06-7.19 16.06-16.06v-37.28c0-8.87-7.19-16.06-16.06-16.06z" fill="#ff9908"/><path d="m75.0998 225c-2.907 0-5.1765-.586-6.8085-1.759-1.615-1.173-2.6265-2.984-3.0345-5.432-.068-.748.085-1.309.459-1.683s.918-.561 1.632-.561 1.2325.17 1.5555.51c.34.34.5695.867.6885 1.581.255 1.173.799 1.981 1.632 2.423.85.425 2.142.637 3.876.637h7.344c2.193 0 3.6805-.391 4.4625-1.173.799-.799 1.1985-2.278 1.1985-4.437 0-2.193-.408-3.689-1.224-4.488-.816-.816-2.295-1.224-4.437-1.224h-6.324c-3.213 0-5.6015-.782-7.1655-2.346-1.547-1.581-2.3205-3.978-2.3205-7.191 0-3.196.765-5.567 2.295-7.114 1.547-1.547 3.927-2.321 7.14-2.321h6.069c2.703 0 4.8195.553 6.3495 1.658 1.547 1.105 2.5245 2.796 2.9325 5.074.102.731-.034 1.292-.408 1.683-.374.374-.935.561-1.683.561-.68 0-1.19-.178-1.53-.535s-.561-.876-.663-1.556c-.272-1.003-.7905-1.683-1.5555-2.04-.765-.374-1.9125-.561-3.4425-.561h-6.069c-2.04 0-3.4085.366-4.1055 1.097-.697.714-1.0455 2.065-1.0455 4.054 0 2.006.357 3.383 1.071 4.131s2.091 1.122 4.131 1.122h6.324c3.349 0 5.8395.816 7.4715 2.448 1.649 1.632 2.4735 4.148 2.4735 7.548 0 3.383-.816 5.882-2.448 7.497-1.632 1.598-4.131 2.397-7.497 2.397z" fill="#fff"/><path d="m112.63 225c-.884 0-1.581-.561-2.091-1.683l-12.5971-29.835c-.255-.595-.323-1.122-.204-1.581.119-.476.51-.867 1.173-1.173 1.3941-.697 2.3801-.34 2.9581 1.071l11.908 28.203h-1.479l11.603-28.203c.561-1.394 1.547-1.751 2.958-1.071.595.306.96.697 1.096 1.173.153.459.111.986-.127 1.581l-12.699 29.835c-.527 1.122-1.292 1.683-2.295 1.683z" fill="#fff"/><path d="m143.742 225c-3.893 0-6.774-.926-8.644-2.779-1.853-1.87-2.78-4.752-2.78-8.645v-11.73c0-3.927.927-6.817 2.78-8.67 1.853-1.87 4.717-2.788 8.593-2.754h6.171c3.196 0 5.636.663 7.319 1.989 1.683 1.309 2.66 3.383 2.932 6.222.102.714-.034 1.258-.408 1.632s-.918.561-1.632.561c-1.292 0-2.04-.714-2.244-2.142-.17-1.564-.714-2.618-1.632-3.162-.901-.544-2.346-.816-4.335-.816h-6.171c-1.802-.017-3.221.187-4.258.612-1.02.425-1.751 1.165-2.193 2.219-.425 1.037-.638 2.473-.638 4.309v11.73c0 1.819.213 3.247.638 4.284.442 1.037 1.181 1.777 2.218 2.219 1.037.425 2.465.637 4.284.637h6.12c1.581 0 2.814-.17 3.698-.51.901-.357 1.53-.977 1.887-1.861s.535-2.134.535-3.749v-2.397l-3.978-.051c-1.428 0-2.142-.714-2.142-2.142s.714-2.142 2.142-2.142l6.12.051c1.428 0 2.142.714 2.142 2.142v4.539c0 3.621-.841 6.265-2.524 7.931-1.683 1.649-4.31 2.473-7.88 2.473z" fill="#fff"/><g fill="#ff9908"><path d="m114.17 127.73h-2.49c-.013-10.092-4.029-19.766-11.166-26.901-7.1366-7.1354-16.8122-11.1484-26.904-11.159-10.0909.0106-19.7654 4.0239-26.9008 11.159-7.1353 7.136-11.1486 16.81-11.1592 26.901h-2.5c.0133-10.752 4.2911-21.06 11.8949-28.6621 7.6039-7.602 17.9129-11.8773 28.6651-11.8878 10.7522.0105 21.0611 4.2858 28.665 11.8878 7.604 7.6021 11.882 17.9101 11.895 28.6621z"/><path d="m131.24 87.1801h-115.26v2.4899h115.26z"/><path d="m36.2801 123.75h-3.97c-1.1046 0-2 .895-2 2v3.97c0 1.105.8954 2 2 2h3.97c1.1046 0 2-.895 2-2v-3.97c0-1.105-.8954-2-2-2z"/><path d="m114.9 123.75h-3.97c-1.105 0-2 .895-2 2v3.97c0 1.105.895 2 2 2h3.97c1.105 0 2-.895 2-2v-3.97c0-1.105-.895-2-2-2z"/><path d="m75.59 84.3101h-3.97c-1.1046 0-2 .8954-2 2v3.9699c0 1.1046.8954 2 2 2h3.97c1.1046 0 2-.8954 2-2v-3.9699c0-1.1046-.8954-2-2-2z"/><path d="m15.85 92.29c2.2036 0 3.99-1.7863 3.99-3.99 0-2.2036-1.7864-3.9899-3.99-3.9899s-3.99 1.7863-3.99 3.9899c0 2.2037 1.7864 3.99 3.99 3.99z"/><path d="m130.86 92.29c2.204 0 3.99-1.7863 3.99-3.99 0-2.2036-1.786-3.9899-3.99-3.9899s-3.99 1.7863-3.99 3.9899c0 2.2037 1.786 3.99 3.99 3.99z"/></g></svg>