<svg fill="none" height="512" viewBox="0 0 200 240" width="512" xmlns="http://www.w3.org/2000/svg"><g fill="#ff9908"><path d="m139.67 49.24c-5.467-.0053-10.709-2.1794-14.575-6.0453s-6.04-9.1076-6.045-14.5747v-28.62h-92.14c-7.1352-.00000049-13.9784 2.83379-19.02472 7.87823-5.04631 5.04447-7.88262848 11.88657-7.88528 19.02177v162.22c.0079507 7.132 2.84661 13.969 7.89235 19.009 5.04575 5.04 11.88585 7.871 19.01765 7.871h110.6c3.535.001 7.035-.694 10.301-2.046 3.266-1.351 6.234-3.333 8.734-5.832s4.483-5.466 5.836-8.732c1.353-3.265 2.049-6.765 2.049-10.3v-139.85z" opacity=".15"/><path d="m164.43 49.24h-24.76c-5.467-.0053-10.709-2.1794-14.575-6.0453s-6.04-9.1076-6.045-14.5747v-28.62z"/><path d="m183.94 170.6h-125.04c-8.8697 0-16.06 7.19-16.06 16.06v37.28c0 8.87 7.1903 16.06 16.06 16.06h125.04c8.87 0 16.06-7.19 16.06-16.06v-37.28c0-8.87-7.19-16.06-16.06-16.06z"/></g><path d="m73.0643 225c-.935 0-1.598-.612-1.989-1.836l-9.435-29.886c-.204-.646-.1105-1.292.2805-1.938.408-.646.9945-.969 1.7595-.969.408 0 .799.136 1.173.408.374.255.646.663.816 1.224l8.313 26.469h-1.122l7.905-26.214c.187-.612.5015-1.071.9435-1.377.459-.306.9265-.459 1.4025-.459.51 0 1.003.153 1.479.459s.799.765.969 1.377l7.905 26.214h-1.122l8.3127-26.469c.187-.561.451-.96.791-1.198.357-.255.739-.383 1.147-.383.748 0 1.343.289 1.785.867s.544 1.241.306 1.989l-9.4347 29.886c-.408 1.224-1.156 1.836-2.244 1.836h-.102c-1.139 0-1.887-.612-2.244-1.836l-8.211-26.571h1.122l-8.262 26.571c-.17.612-.425 1.071-.765 1.377-.323.306-.816.459-1.479.459z" fill="#fff"/><path d="m113.457 225c-1.428 0-2.142-.714-2.142-2.142v-30.294c0-1.428.714-2.142 2.142-2.142.935 0 1.717.459 2.346 1.377l12.036 18.105-.918.153 12.138-18.258c.578-.918 1.445-1.377 2.601-1.377s1.734.714 1.734 2.142v30.294c0 1.428-.714 2.142-2.142 2.142s-2.142-.714-2.142-2.142v-26.01l1.326.459-10.71 15.759c-.629.918-1.496 1.377-2.601 1.377-.765 0-1.462-.459-2.091-1.377l-10.71-15.759 1.275.357v25.194c0 1.428-.714 2.142-2.142 2.142z" fill="#fff"/><path d="m152.365 224.796c-1.36-.527-1.768-1.462-1.224-2.805l12.138-29.886c.51-1.122 1.309-1.683 2.397-1.683h.102c1.105.051 1.853.612 2.244 1.683l12.342 29.886c.544 1.343.153 2.278-1.173 2.805-1.343.527-2.278.136-2.805-1.173l-2.754-6.681h-15.886l-2.627 6.681c-.527 1.326-1.445 1.717-2.754 1.173zm7.064-12.138h12.444l-6.35-15.453z" fill="#fff"/><path d="m117.65 131.92h-10.95v-44.2599c0-1.4826-.589-2.9044-1.637-3.9527-1.049-1.0484-2.47-1.6373-3.953-1.6373h-28c-1.4826 0-2.9044.5889-3.9527 1.6373-1.0483 1.0483-1.6373 2.4701-1.6373 3.9527v44.2599h-11v-47.9999c.0026-3.401 1.3555-6.6618 3.7613-9.0657 2.4058-2.404 5.6677-3.7543 9.0687-3.7543h35.41c3.4 0 6.661 1.3507 9.065 3.7549s3.755 5.665 3.755 9.0651z" fill="#ff9908"/><path d="m104.67 144.9c7.169 0 12.98-5.811 12.98-12.98s-5.811-12.98-12.98-12.98c-7.1687 0-12.98 5.811-12.98 12.98s5.8113 12.98 12.98 12.98z" fill="#ff9908"/><path d="m54.6 144.9c7.1687 0 12.98-5.811 12.98-12.98s-5.8113-12.98-12.98-12.98-12.98 5.811-12.98 12.98 5.8113 12.98 12.98 12.98z" fill="#ff9908"/></svg>