<svg fill="none" height="512" viewBox="0 0 201 240" width="512" xmlns="http://www.w3.org/2000/svg"><g fill="#a140ff"><path d="m140.1 49.24c-5.467-.0053-10.709-2.1794-14.575-6.0453-3.865-3.8659-6.04-9.1076-6.045-14.5747v-28.62h-92.1399c-7.137 0-13.9817 2.83514-19.02833 7.88174-5.04661 5.04656-7.881838 11.89126-7.881838 19.02826v162.22c.010598 7.13 2.850538 13.964 7.895998 19.002 5.04547 5.038 11.88407 7.868 19.01417 7.868h110.5999c7.137 0 13.982-2.835 19.028-7.882 5.047-5.046 7.882-11.891 7.882-19.028v-139.85z" opacity=".15"/><path d="m164.85 49.24h-24.75c-5.467-.0053-10.709-2.1794-14.575-6.0453-3.865-3.8659-6.04-9.1076-6.045-14.5747v-28.62z"/><path d="m184.37 170.6h-125.0399c-8.8697 0-16.0601 7.19-16.0601 16.06v37.28c0 8.87 7.1904 16.06 16.0601 16.06h125.0399c8.87 0 16.06-7.19 16.06-16.06v-37.28c0-8.87-7.19-16.06-16.06-16.06z"/></g><path d="m75.7865 224.541c-1.139-.782-1.309-1.785-.51-3.009l9.333-13.77-9.843-13.872c-.765-1.122-.578-2.125.561-3.009 1.173-.799 2.159-.612 2.958.561l9.129 12.801 9.18-12.801c.884-1.139 1.87-1.292 2.958-.459 1.1555.85 1.3255 1.836.5095 2.958l-10.0465 13.974 9.639 13.566c.7985 1.173.6115 2.193-.561 3.06-1.173.799-2.159.612-2.958-.561l-8.874-12.495-8.466 12.546c-.782 1.105-1.785 1.275-3.009.51z" fill="#fff"/><path d="m110.771 225c-1.428 0-2.142-.714-2.142-2.142v-30.294c0-1.428.714-2.142 2.142-2.142.935 0 1.717.459 2.346 1.377l12.036 18.105-.918.153 12.138-18.258c.578-.918 1.445-1.377 2.601-1.377s1.734.714 1.734 2.142v30.294c0 1.428-.714 2.142-2.142 2.142s-2.142-.714-2.142-2.142v-26.01l1.326.459-10.71 15.759c-.629.918-1.496 1.377-2.601 1.377-.765 0-1.462-.459-2.091-1.377l-10.71-15.759 1.275.357v25.194c0 1.428-.714 2.142-2.142 2.142z" fill="#fff"/><path d="m153.454 225c-1.428 0-2.142-.714-2.142-2.142v-30.294c0-1.428.714-2.142 2.142-2.142s2.142.714 2.142 2.142v28.152h14.127c1.428 0 2.142.714 2.142 2.142s-.714 2.142-2.142 2.142z" fill="#fff"/><path d="m40.94 114.19c-.0139-.43.1164-.852.3701-1.2.3033-.39.6679-.727 1.0798-1 .6238-.323 1.2688-.603 1.9302-.84l1.9299-.8 7.72-3.25c1.0733-.5 3.0733-1.333 6-2.5l3.6699-1.5 1.3201-.47.23-.1c.0626-.013.1273-.013.1899 0 .1481-.065.3083-.099.4702-.1.3098-.017.6196.028.9116.133s.5602.267.7884.477c.1935.182.3474.402.4524.647.1049.244.1585.507.1574.773v2.54c-.0095.471-.1553.93-.4199 1.32-.2782.436-.6932.766-1.1799.94l-15.77 6.45 15.77 6.45c.4695.194.8773.512 1.1799.92.2749.374.4221.826.4199 1.29v2.54c.0003.269-.0536.535-.1584.782-.1048.248-.2582.471-.4514.658-.2245.217-.4916.385-.7842.493s-.6043.155-.9158.137c-.1607-.002-.3201-.032-.4702-.09l-.4199-.14-1.3201-.47-3.6399-1.48-6-2.49-7.7199-3.25-1.93-.8c-.62-.25-1.2702-.53-1.9302-.85-.4095-.191-.7602-.488-1.0153-.861s-.4052-.808-.4346-1.259z" fill="#a140ff"/><path d="m88.05 131.7c-.5004.012-.9952-.108-1.4343-.349-.439-.24-.8067-.592-1.0657-1.021-.2148-.308-.3864-.645-.51-1l-.33-.89-7.2-15.91-.52-1.18c-.6-1.28-1.76-3.82-3.48-7.62-2.2333-4.8332-3.3501-7.4833-3.3501-7.9499.0003-.2812.0645-.5587.1875-.8116s.3017-.4745.5227-.6484c.499-.4218 1.1368-.6429 1.7898-.62h2.3401c.493-.0085.9795.1138 1.4099.3544.4304.2407.7892.5911 1.0401 1.0156l.52 1 .33.89 1.8799 4.1399 5.3201 11.77.7 1.5 3.3 7.25c1.2651 2.601 2.3803 5.272 3.3401 8-.0018.28-.0665.555-.1895.806-.1229.251-.301.471-.5207.644-.4985.423-1.1367.644-1.7898.62z" fill="#a140ff"/><path d="m96.7599 129c-.3193.021-.6396-.024-.9407-.133-.301-.108-.5765-.277-.8093-.497-.3847-.381-.6039-.898-.6101-1.44v-2.54c-.0045-.461.1355-.912.4002-1.29.2991-.42.717-.74 1.1999-.92l15.8201-6.45-15.8201-6.44c-.4803-.21-.8874-.558-1.1699-1-.2726-.379-.4228-.833-.4302-1.3v-2.58c-.0033-.264.0483-.525.1516-.768s.2561-.461.4485-.642c.4701-.423 1.0885-.642 1.72-.61.1462-.002.2905.032.4199.1.086-.015.174-.015.26 0l.2102.1c-.06 0 .3598.12 1.2698.47l3.7202 1.5c-.193-.087 1.807.747 6 2.5 2.287.94 4.907 2.053 7.86 3.34l.75.28 1.08.43c.636.226 1.252.507 1.84.84.42.192.779.496 1.036.879.258.383.405.83.424 1.291v3.1c-.009.425-.149.837-.4 1.18-.279.388-.641.709-1.06.94-.57.28-1.24.58-2 .9l-2 .8-17.4201 7.29c-.5.25-.7999.41-.8899.47l-.1902.14z" fill="#a140ff"/></svg>