<svg id="Layer_1" viewBox="0 0 128 128" xmlns="http://www.w3.org/2000/svg" data-name="Layer 1"><path d="m79 14v32h-4.84a9.522 9.522 0 0 0 -1.17-2 10.13826 10.13826 0 0 0 -1.99-1.99v-28.01z" fill="#81d9e3"/><path d="m111 4h-72a1.97454 1.97454 0 0 0 -2 1.94v34.06h14v-8h8v8h6a10.04809 10.04809 0 0 1 2 .2 10.00375 10.00375 0 0 1 2.33.79 8.35488 8.35488 0 0 1 1.23.71c.15.1.3.2.44.31v-28.01h8v32h-4.84a9.85586 9.85586 0 0 1 .69 2.28 3.16426 3.16426 0 0 1 .06.43.12684.12684 0 0 1 .01.06 5.23 5.23 0 0 1 .06.57v.04c.01.21.02.41.02.62v72a9.55081 9.55081 0 0 1 -.27 2.28 2.84319 2.84319 0 0 0 .07-.28h12.2v-19.95a5.88887 5.88887 0 0 1 5.7-6.05h20.3v-92.06a1.97454 1.97454 0 0 0 -2-1.94zm-12 42h-8v-14h8z" fill="#e1ebf4"/><path d="m51 32h8v8h-8z" fill="#81d9e3"/><path d="m101 28h-12a2.00587 2.00587 0 0 0 -2 2v18a2.00591 2.00591 0 0 0 2 2h12a2.00591 2.00591 0 0 0 2-2v-18a2.00587 2.00587 0 0 0 -2-2zm-2 18h-8v-14h8z" fill="#2d4356"/><path d="m91 32h8v14h-8z" fill="#81d9e3"/><path d="m111 0h-72a5.97939 5.97939 0 0 0 -6 5.94v34.06h4v-34.06a1.97454 1.97454 0 0 1 2-1.94h72a1.97454 1.97454 0 0 1 2 1.94v92.06h-20.3a5.88887 5.88887 0 0 0 -5.7 6.05v19.95h-12.2a2.84319 2.84319 0 0 1 -.07.28.08993.08993 0 0 1 -.01.05 4.40822 4.40822 0 0 1 -.14.52 4.7305 4.7305 0 0 1 -.18.53 7.78091 7.78091 0 0 1 -.44 1.03 9.17337 9.17337 0 0 1 -.98 1.59h17.1a1.975 1.975 0 0 0 1.42-.6l24.92-25.25a1.99219 1.99219 0 0 0 .58-1.4v-94.81a5.97939 5.97939 0 0 0 -6-5.94zm-20 104.05a1.90038 1.90038 0 0 1 1.7-2.05h18.25l-19.95 20.22z" fill="#2d4356"/><path d="m110.95 102-19.95 20.22v-18.17a1.90038 1.90038 0 0 1 1.7-2.05z" fill="#81d9e3"/><g fill="#2d4356"><path d="m101 87h-.00977l-25.99023.12262v4.00006l26.00977-.12268a2 2 0 0 0 -.00977-4z"/><path d="m101 79h-.00977l-25.99023.12262v4.00006l26.00977-.12268a2 2 0 0 0 -.00977-4z"/><path d="m101 71h-.00977l-25.99023.12262v4.00006l26.00977-.12268a2 2 0 0 0 -.00977-4z"/><path d="m75 67.12268 26.00977-.12268a2 2 0 0 0 -.00977-4h-.00977l-25.99023.12262z"/><path d="m63 30v10h-4v-8h-8v8h-4v-10a2.00587 2.00587 0 0 1 2-2h12a2.00587 2.00587 0 0 1 2 2z"/><path d="m65 44h-48a6.00476 6.00476 0 0 0 -6 6v72a6.00476 6.00476 0 0 0 6 6h48a6.00476 6.00476 0 0 0 6-6v-72a6.00476 6.00476 0 0 0 -6-6zm2 78a2.00591 2.00591 0 0 1 -2 2h-48a2.00591 2.00591 0 0 1 -2-2v-50h52zm0-54h-52v-18a2.00587 2.00587 0 0 1 2-2h48a2.00587 2.00587 0 0 1 2 2z"/></g><path d="m65 48h-48a2.00587 2.00587 0 0 0 -2 2v18h52v-18a2.00587 2.00587 0 0 0 -2-2zm-2 14a2.00591 2.00591 0 0 1 -2 2h-40a2.00591 2.00591 0 0 1 -2-2v-8a2.00587 2.00587 0 0 1 2-2h40a2.00587 2.00587 0 0 1 2 2z" fill="#fc785e"/><path d="m15 72v50a2.00591 2.00591 0 0 0 2 2h48a2.00591 2.00591 0 0 0 2-2v-50zm16 44a3.99891 3.99891 0 0 1 -4 4h-4a3.99891 3.99891 0 0 1 -4-4v-4a3.99887 3.99887 0 0 1 4-4h4a3.99887 3.99887 0 0 1 4 4zm0-16a3.99891 3.99891 0 0 1 -4 4h-4a3.99891 3.99891 0 0 1 -4-4v-4a3.99887 3.99887 0 0 1 4-4h4a3.99887 3.99887 0 0 1 4 4zm0-16a3.99891 3.99891 0 0 1 -4 4h-4a3.99891 3.99891 0 0 1 -4-4v-4a3.99887 3.99887 0 0 1 4-4h4a3.99887 3.99887 0 0 1 4 4zm16 32a3.99891 3.99891 0 0 1 -4 4h-4a3.99891 3.99891 0 0 1 -4-4v-4a3.99887 3.99887 0 0 1 4-4h4a3.99887 3.99887 0 0 1 4 4zm0-16a3.99891 3.99891 0 0 1 -4 4h-4a3.99891 3.99891 0 0 1 -4-4v-4a3.99887 3.99887 0 0 1 4-4h4a3.99887 3.99887 0 0 1 4 4zm0-16a3.99891 3.99891 0 0 1 -4 4h-4a3.99891 3.99891 0 0 1 -4-4v-4a3.99887 3.99887 0 0 1 4-4h4a3.99887 3.99887 0 0 1 4 4zm16 32a3.99891 3.99891 0 0 1 -4 4h-4a3.99891 3.99891 0 0 1 -4-4v-20a3.99887 3.99887 0 0 1 4-4h4a3.99887 3.99887 0 0 1 4 4zm0-32a3.99891 3.99891 0 0 1 -4 4h-4a3.99891 3.99891 0 0 1 -4-4v-4a3.99887 3.99887 0 0 1 4-4h4a3.99887 3.99887 0 0 1 4 4z" fill="#ffdb80"/><path d="m61 52h-40a2.00587 2.00587 0 0 0 -2 2v8a2.00591 2.00591 0 0 0 2 2h40a2.00591 2.00591 0 0 0 2-2v-8a2.00587 2.00587 0 0 0 -2-2zm-2 8h-36v-4h36z" fill="#2d4356"/><path d="m23 56h36v4h-36z" fill="#e1ebf4"/><path d="m27 76h-4a3.99887 3.99887 0 0 0 -4 4v4a3.99891 3.99891 0 0 0 4 4h4a3.99891 3.99891 0 0 0 4-4v-4a3.99887 3.99887 0 0 0 -4-4zm0 8h-4v-4h4z" fill="#2d4356"/><path d="m23 80h4v4h-4z" fill="#e1ebf4"/><path d="m43 76h-4a3.99887 3.99887 0 0 0 -4 4v4a3.99891 3.99891 0 0 0 4 4h4a3.99891 3.99891 0 0 0 4-4v-4a3.99887 3.99887 0 0 0 -4-4zm0 8h-4v-4h4z" fill="#2d4356"/><path d="m39 80h4v4h-4z" fill="#e1ebf4"/><path d="m59 76h-4a3.99887 3.99887 0 0 0 -4 4v4a3.99891 3.99891 0 0 0 4 4h4a3.99891 3.99891 0 0 0 4-4v-4a3.99887 3.99887 0 0 0 -4-4zm0 8h-4v-4h4z" fill="#2d4356"/><path d="m55 80h4v4h-4z" fill="#e1ebf4"/><path d="m27 92h-4a3.99887 3.99887 0 0 0 -4 4v4a3.99891 3.99891 0 0 0 4 4h4a3.99891 3.99891 0 0 0 4-4v-4a3.99887 3.99887 0 0 0 -4-4zm0 8h-4v-4h4z" fill="#2d4356"/><path d="m23 96h4v4h-4z" fill="#e1ebf4"/><path d="m43 92h-4a3.99887 3.99887 0 0 0 -4 4v4a3.99891 3.99891 0 0 0 4 4h4a3.99891 3.99891 0 0 0 4-4v-4a3.99887 3.99887 0 0 0 -4-4zm0 8h-4v-4h4z" fill="#2d4356"/><path d="m39 96h4v4h-4z" fill="#e1ebf4"/><path d="m27 108h-4a3.99887 3.99887 0 0 0 -4 4v4a3.99891 3.99891 0 0 0 4 4h4a3.99891 3.99891 0 0 0 4-4v-4a3.99887 3.99887 0 0 0 -4-4zm0 8h-4v-4h4z" fill="#2d4356"/><path d="m23 112h4v4h-4z" fill="#e1ebf4"/><path d="m43 108h-4a3.99887 3.99887 0 0 0 -4 4v4a3.99891 3.99891 0 0 0 4 4h4a3.99891 3.99891 0 0 0 4-4v-4a3.99887 3.99887 0 0 0 -4-4zm0 8h-4v-4h4z" fill="#2d4356"/><path d="m39 112h4v4h-4z" fill="#e1ebf4"/><path d="m59 92h-4a3.99887 3.99887 0 0 0 -4 4v20a3.99891 3.99891 0 0 0 4 4h4a3.99891 3.99891 0 0 0 4-4v-20a3.99887 3.99887 0 0 0 -4-4zm0 24h-4v-20h4z" fill="#2d4356"/><path d="m55 96h4v20h-4z" fill="#e1ebf4"/><path d="m39 82h4v2h-4z" fill="#9fa5aa" opacity=".5"/><path d="m55 82h4v2h-4z" fill="#9fa5aa" opacity=".5"/><path d="m91 44h8v2h-8z" fill="#0f423c" opacity=".3"/><path d="m79 44v2h-4.84a9.522 9.522 0 0 0 -1.17-2z" fill="#0f423c" opacity=".3"/><path d="m91 32h8v2h-8z" fill="#e8fbfc" opacity=".4"/><path d="m71 14h8v2h-8z" fill="#e8fbfc" opacity=".4"/><path d="m51 32h8v2h-8z" fill="#e8fbfc" opacity=".4"/><path d="m67 50v2a2.00587 2.00587 0 0 0 -2-2h-48a2.00587 2.00587 0 0 0 -2 2v-2a2.00587 2.00587 0 0 1 2-2h48a2.00587 2.00587 0 0 1 2 2z" fill="#f9dbd7" opacity=".3"/><path d="m15 72h52v2h-52z" fill="#f9edd2" opacity=".5"/><path d="m67 120v2a2.00591 2.00591 0 0 1 -2 2h-48a2.00591 2.00591 0 0 1 -2-2v-2a2.00591 2.00591 0 0 0 2 2h48a2.00591 2.00591 0 0 0 2-2z" fill="#ad9359" opacity=".45"/><path d="m23 58h36v2h-36z" fill="#9fa5aa" opacity=".5"/><path d="m23 82h4v2h-4z" fill="#9fa5aa" opacity=".5"/><path d="m23 98h4v2h-4z" fill="#9fa5aa" opacity=".5"/><path d="m39 98h4v2h-4z" fill="#9fa5aa" opacity=".5"/><path d="m23 114h4v2h-4z" fill="#9fa5aa" opacity=".5"/><path d="m39 114h4v2h-4z" fill="#9fa5aa" opacity=".5"/><path d="m55 96h4v2h-4z" fill="#e8fbfc" opacity=".4"/><path d="m55 114h4v2h-4z" fill="#9fa5aa" opacity=".5"/><path d="m87 122v2h-12.2a2.84319 2.84319 0 0 1 -.07.28 9.55081 9.55081 0 0 0 .27-2.28z" fill="#9fa5aa" opacity=".5"/><path d="m110.95 102-1.97 2h-16.28a1.90038 1.90038 0 0 0 -1.7 2.05v-2a1.90038 1.90038 0 0 1 1.7-2.05z" fill="#e8fbfc" opacity=".4"/><path d="m113 5.94v2a1.97454 1.97454 0 0 0 -2-1.94h-72a1.97454 1.97454 0 0 0 -2 1.94v-2a1.97454 1.97454 0 0 1 2-1.94h72a1.97454 1.97454 0 0 1 2 1.94z" fill="#fff" opacity=".5"/><path d="m83 12v36a2.00591 2.00591 0 0 1 -2 2h-6c0-.21-.01-.41-.02-.62v-.04a5.23 5.23 0 0 0 -.06-.57.12684.12684 0 0 0 -.01-.06 3.16426 3.16426 0 0 0 -.06-.43 9.85586 9.85586 0 0 0 -.69-2.28h4.84v-32h-8v28.02c-.14-.11-.29-.22-.44-.31995a10.63639 10.63639 0 0 0 -1.23-.71 10.00375 10.00375 0 0 0 -2.33-.79005v-28.2a2.00587 2.00587 0 0 1 2-2h12a2.00587 2.00587 0 0 1 2 2z" fill="#2d4356"/></svg>