<svg xmlns="http://www.w3.org/2000/svg" id="Layer_1" data-name="Layer 1" viewBox="0 0 2000 2000">
  <defs fill="#dcdcdc">
    <style>
      .cls-1 {
        stroke-width: 0px;
      }

      .cls-1, .cls-2 {
        fill: #ffffff;
      }

      .cls-2 {
        stroke: #ffffff;
        stroke-miterlimit: 10;
        stroke-width: 6.76px;
      }
    </style>
  </defs>
  <g>
    <path class="cls-1" d="M366.06,977.42c-2.92,3.16-7.09,4.05-9.31,1.99-2.22-2.06-1.66-6.28,1.26-9.44,2.92-3.16,7.09-4.05,9.31-1.99,2.22,2.06,1.66,6.28-1.26,9.44Z" fill="#dcdcdc"/>
    <path class="cls-1" d="M306.9,982.98c3.46,2.56,7.72,2.66,9.52.22s.46-6.48-3-9.04c-3.46-2.56-7.72-2.66-9.52-.22-1.8,2.43-.46,6.48,3,9.04Z" fill="#dcdcdc"/>
    <path class="cls-1" d="M387.96,928.89c-9.13-2.23-13.9-2.19-18.18-1.87-.9.07-4.43,8.28-3.3,12.06,1.39,4.61-1.29,5.76-5.4,5.01-5.44-.99-10.92-1.41-15.37,2.63-3.69,3.35-5.53,7.82-2.84,12.37,3.01,5.12,6.96,1.96,10.5.1,16.1-8.51,33.84,1.72,38.71,22.39.49,2.1.68,4.27.84,5.29,2,21.66-12.8,34.01-32.2,26.76-16.31-6.1-30.97-5.27-45.47,4.27-8.57,5.63-17.8,6.76-26.58.46-8.69-6.23-11.5-15.19-10.57-25.63.68-7.73,3.03-14.77,7.48-21.13,7.17-10.27,13.79-12.5,25.79-8.77,4,1.24,8.9,4.05,10.78-2.24,1.59-5.3-1.23-9.51-6.23-11.78-3.26-1.48-6.77-1.79-10.28-.55-1.53.54-3.08,1.01-4.61,1.57-2.34.86-5.66.23-4.99-1.91,2.14-6.86-.02-11.79-5.18-16.78-7.5-.08-34.52,30.7-27.32,72.93,7.29,42.79,26.02,50.82,32.02,67.81,4.7.4,21.7,0,21.7,0,.7-4.43,7.07-28.21,21.7-28.21,12.68,0,15.99,20.55,17.23,28.21h21.7c5.45-30.85,14.98-30.3,19.88-26.96,11.31,7.71,11.87,26.96,11.87,26.96h21.76l7.12-30.11c-2.68-7.6-16.41,4.84-16.41,4.84,22.1,5.64,20.41,25.27,20.41,25.27h21.7c11.68-106.95-55.8-138-76.21-142.99ZM352.35,1027.76c-4.43.98-22.23,1.2-26.51.84-1.59-.13-3.28-.86-3.58-2.74-.31-1.87,1.18-2.81,2.49-3.78,6.78-4.98,21.98-4.84,28.51.17,3.32,2.55,2.75,4.7-.9,5.51Z" fill="#dcdcdc"/>
    <polyline class="cls-1" points="270.43 1073.14 482.87 1073.14 482.87 1070.97 270.43 1070.97" fill="#dcdcdc"/>
  </g>
  <g>
    <path class="cls-1" d="M532.15,1036.91c-.71,0-3.02-.2-3.02-2.81v-49.99c0-2.7,2.82-2.78,3.15-2.78.7,0,2.99.2,2.99,2.78v49.99c0,.9-.28,1.57-.86,2.06-.57.48-1.39.75-2.26.75h0Z" fill="#dcdcdc"/>
    <path class="cls-1" d="M609.5,1036.74c-1.5,0-3.25-.88-3.25-3.34v-48.41c0-3.36.87-3.52,2.54-3.52,1.94,0,2.06.12,4.08,2.06l.14.13,33.68,42.14v-41.69c0-1.55,1.5-3.33,2.81-3.33,1.69,0,3.5,1.95,3.5,3.33v49.29c0,1.79-.65,2.72-2.36,3.34-1.83-.04-2.71-.39-4.67-2.2l-33.67-42.72v41.59c0,1.25-.37,3.34-2.81,3.34Z" fill="#dcdcdc"/>
    <path class="cls-1" d="M746.11,1037.43c-1.25,0-2.52-1.14-3.48-3.12l-23.11-48.4c-.56-1.15-.55-2.18.03-3.11.65-1.04,1.9-1.74,3.11-1.74s2.08.63,2.76,1.87l7.75,17.5,12.57,28.84,12.35-28.88,7.74-17.47c.82-1.5,2-1.81,2.85-1.81,1.12,0,2.22.56,2.8,1.42.54.8.58,1.8.12,2.96l-22.35,48.99-.04.1c-.64,1.74-1.85,2.86-3.1,2.86h0Z" fill="#dcdcdc"/>
    <path class="cls-1" d="M864.7,1037.65c-13.89,0-28.83-9.03-28.83-28.84s15.66-29.4,30.23-29.43c13.84.74,28.7,10.25,28.7,29.43s-14.4,28.81-28.63,28.81h-.12c-.45.02-.9.03-1.35.03h0ZM865.2,985.34c-11.25,0-23.2,8.22-23.2,23.47s11.95,23.44,23.2,23.44,23.53-8.22,23.53-23.44-11.84-23.47-23.53-23.47Z" fill="#dcdcdc"/>
    <path class="cls-1" d="M967.05,1036.91c-.71,0-3.03-.2-3.03-2.81v-49.99c0-2.7,2.83-2.78,3.15-2.78.7,0,3,.2,3,2.78v49.99c0,.9-.28,1.57-.86,2.06-.57.48-1.39.75-2.27.75h0Z" fill="#dcdcdc"/>
    <path class="cls-1" d="M1066.9,1037.34c-17.55,0-28.03-10.7-28.03-28.63,0-14.3,8.67-28.73,28.03-28.73,7,0,12.47,2.13,18.28,7.14.56.52.94,1.37.97,2.26.02.83-.27,1.62-.82,2.23-.69.58-1.45.7-1.98.7-.87,0-1.7-.34-2.28-.92-3.78-3.97-7.9-5.61-14.17-5.61-15.66,0-22.67,11.51-22.67,22.93s7.01,23.54,22.67,23.54c5.48,0,10.79-2.15,15.36-6.21.48-.35,1.04-.53,1.67-.53,1.15,0,2.11.58,2.52,1.12.6.83,1.36,2.61-.71,4.68-5.72,5.31-12.74,6.04-18.84,6.04Z" fill="#dcdcdc"/>
    <path class="cls-1" d="M1157.85,1036.74c-1.58,0-2.72-1.14-2.72-2.72v-49.73c0-1.63,1.09-2.72,2.72-2.72h31.43c3.11,0,3.26,2.44,3.26,2.94,0,1.4-.85,3.03-3.26,3.03h-27.92v18.54h24.77c2.99,0,3.14,2.52,3.14,3.03s-.15,3.03-3.14,3.03h-24.77v18.54h29.4c2.76,0,3.5,2,3.5,3.19,0,.77-.27,1.46-.75,1.95-.59.6-1.55.92-2.75.92h-32.92Z" fill="#dcdcdc"/>
    <path class="cls-2" d="M1305.01,978.86c-3.15,0-5.95,2.27-5.95,5.42v19.08h-28.54v-19.08c0-3.15-2.29-5.42-5.34-5.42-3.94,0-6.22,2.27-6.22,5.42v49.73c0,3.06,2.29,5.42,6.22,5.42,3.06,0,5.34-2.37,5.34-5.42v-19.18h28.54v19.18c0,3.06,2.8,5.42,5.95,5.42s5.42-2.37,5.42-5.42v-49.73c0-3.15-2.37-5.42-5.42-5.42Z" fill="#dcdcdc"/>
    <path class="cls-2" d="M1375.73,984.11v49.99c0,7.44,11.55,7.26,11.55,0v-49.99c0-7.44-11.55-7.18-11.55,0Z" fill="#dcdcdc"/>
    <path class="cls-2" d="M1479.03,978.07h-20.22c-3.68,0-5.95,3.15-5.95,6.03v49.29c0,3.85,3.06,6.05,5.95,6.05,3.15,0,5.6-2.19,5.6-6.05v-11.55h14.62c11.39,0,21.63-7.71,21.63-21.53,0-14.62-10.24-22.24-21.63-22.24ZM1479.03,1010.9h-14.62v-21.8h14.62c5.87,0,10.51,5.09,10.51,11.21,0,5.42-4.64,10.59-10.51,10.59Z" fill="#dcdcdc"/>
    <path class="cls-2" d="M1588.72,978.07h-20.22c-3.68,0-5.96,3.15-5.96,6.03v49.29c0,3.85,3.07,6.05,5.96,6.05,3.14,0,5.6-2.19,5.6-6.05v-11.55h14.62c11.38,0,21.63-7.71,21.63-21.53,0-14.62-10.25-22.24-21.63-22.24ZM1588.72,1010.9h-14.62v-21.8h14.62c5.86,0,10.5,5.09,10.5,11.21,0,5.42-4.64,10.59-10.5,10.59Z" fill="#dcdcdc"/>
    <path class="cls-2" d="M1702.96,976.67c-16.2,0-33,10.59-33,32.14s16.8,32.2,33,31.52c15.31,0,31.34-10.78,31.34-31.52s-16.03-31.35-31.34-32.14ZM1702,1029.54c-9.81,0-20.49-6.99-20.49-20.74s10.69-20.76,20.49-20.76,20.83,6.93,20.83,20.76-10.77,20.74-20.83,20.74Z" fill="#dcdcdc"/>
  </g>
</svg>