<svg  width="64" height="64" xmlns="http://www.w3.org/2000/svg" viewBox="0 0 64 64" id="jpg">
  <path fill="#003414" d="M11 3h46v54H11z"></path>
  <path fill="#f7fcff" d="M53 17v44H7V7h36l10 10z"></path>
  <path fill="#03ad3e" d="M7 7v18h46v-8L43 7H7z"></path>
  <path fill="#00451a" d="M53 17h-8a2 2 0 0 1-2-2V7Z"></path>
  <path fill="#03ad3e" d="m45.42 52.86-6.08-11.5a1.84 1.84 0 0 0-3.32 0l-2.15 4.07-6-11.38a1.84 1.84 0 0 0-3.32 0l-10 18.81A2.1 2.1 0 0 0 16.24 56h27.52a2.1 2.1 0 0 0 1.66-3.14Z"></path>
  <circle cx="36.5" cy="32.5" r="2.5" fill="#03ad3e"></circle>
  <path fill="#003414" d="M15 22a4 4 0 0 0 4-4v-7a1 1 0 0 0-2 0v7a2 2 0 0 1-4 0 1 1 0 0 0-2 0 4 4 0 0 0 4 4zm7 0a1 1 0 0 0 1-1v-4h2.5a3.5 3.5 0 0 0 0-7H22a1 1 0 0 0-1 1v10a1 1 0 0 0 1 1zm1-10h2.5a1.5 1.5 0 0 1 0 3H23zm12 0a2 2 0 0 1 1.49.67A1 1 0 0 0 38 11.33 4 4 0 0 0 31 14v4a4 4 0 0 0 8 0v-2a1 1 0 0 0-1-1h-2a1 1 0 0 0 0 2h1v1a2 2 0 0 1-4 0v-4a2 2 0 0 1 2-2z"></path>
</svg>
